<svg xmlns="http://www.w3.org/2000/svg" viewBox="0 0 476.668 476.668" width="512" height="512"><g fill="#FFF"><path d="M245.312 269.296c1.203-6.755 3.731-13.241 7.852-18.98 3.251-4.536 7.291-8.251 11.778-11.291-.528-1.821-1.105-3.625-1.422-5.544-2-12.177.992-24.012 7.421-33.506-9.145-6.974-15.737-17.216-17.728-29.369-1.292-7.877-.35-15.721 2.268-23.036l-.024-.024c-44.098-37.717-80.993-20.874-99.957-10.51-9.909 5.414-17.094 7.771-21.663 8.836-4.666.439-12.233.488-23.345-1.504-21.272-3.812-61.598-8.072-91.455 41.683-10.128 16.883-6.56 49.82 5.446 83.237h220.829v.008zM72.19 175.663c13.819-7.511 26.125 13.542 12.307 21.053-20.817 11.323-23.28 32.01-8.372 49.942 9.974 11.998-7.178 29.352-17.241 17.241-24.541-29.507-22.232-68.915 13.306-88.236z"/><path d="M67.581 42.541c-11.087-7.088-19.59 11.738-8.673 18.72 31.173 19.931 54.201 29.946 60.989 68.329 2.292 12.981 22.606 11.006 20.281-2.113-.756-4.276-1.715-8.194-2.78-11.949-6.47-2.105-14.071-7.633-18.94-21.581-1.983-5.674-2.374-10.697-1.52-15.168-12.64-13.429-29.41-23.484-49.357-36.238zm224.966 226.755c-7.031-2.715-13.209-7.112-18.119-12.729a45.984 45.984 0 0 1-5.739-8.185c-2.837 2.17-5.462 4.633-7.608 7.616a36.678 36.678 0 0 0-5.983 13.298h37.449zm38.449 0c-.163-.309-.284-.642-.439-.959-.585.325-1.203.593-1.772.959h2.211zm-7.446-66.679c-5.113 3.17-10.852 5.332-16.964 6.332a46.396 46.396 0 0 1-7.568.618c-7.064 0-13.697-1.723-19.72-4.552a37.047 37.047 0 0 0-2.894 4.967c-3.211 6.592-4.536 14.16-3.26 21.923.138.821.423 1.577.61 2.382.374 1.618.78 3.219 1.349 4.739.276.732.65 1.406.967 2.113.35.772.658 1.569 1.057 2.309 6.243 11.591 18.362 19.232 32.189 19.232 1.991 0 4.007-.163 5.991-.488 2.731-.447 5.332-1.26 7.836-2.268 1.325-.536 2.577-1.195 3.82-1.878-.171-.756-.439-1.463-.577-2.235-.024-.122-.073-.228-.089-.35-.48-2.926-.642-5.853-.569-8.754.228-9.088 3.121-17.883 8.454-25.467-4.861-5.178-8.535-11.486-10.632-18.623zm12.388 51.283c.098.602.317 1.138.447 1.731.106.504.252 1 .382 1.496.276 1.073.463 2.187.829 3.211.211.593.536 1.122.78 1.707.39.943.805 1.861 1.26 2.764a36.234 36.234 0 0 0 2.772 4.487h59.624c.463-.65.772-1.382 1.195-2.057-10.868-6.885-18.777-18.127-20.996-31.693-.106-.667-.049-1.325-.13-1.991-2.17.691-4.333 1.382-6.625 1.764a46.469 46.469 0 0 1-7.568.618c-4.495 0-8.787-.805-12.916-1.991-1.601-.463-3.186-.935-4.706-1.561a46.716 46.716 0 0 1-4.593-2.178c-1.398-.764-2.699-1.634-3.999-2.528-4.682 7.023-6.698 15.257-5.926 23.63.08.86.023 1.721.17 2.591zm-13.705-72.45a46.63 46.63 0 0 1 12.933-24.825c-3.138-17.558-18.192-30.255-36.05-30.255-1.991 0-4.007.163-5.983.488-9.681 1.585-18.159 6.852-23.882 14.81-3.268 4.552-5.267 9.697-6.21 15.062-.707 4.024-.878 8.161-.195 12.315 1.374 8.364 5.519 15.582 11.323 20.964a37.107 37.107 0 0 0 3.04 2.495c1.349 1.008 2.731 1.951 4.219 2.764 1.601.878 3.235 1.683 4.958 2.317a36.695 36.695 0 0 0 12.64 2.243c1.991 0 4.007-.163 5.983-.488 6.178-1.016 11.77-3.666 16.558-7.421-.008-.187 0-.374-.008-.561a46.98 46.98 0 0 1 .674-9.908zm21.809 35.92c.341.293.74.528 1.089.805a37.281 37.281 0 0 0 2.999 2.138c.797.512 1.601.984 2.439 1.439 1.618.87 3.276 1.658 5.023 2.276 3.861 1.366 7.999 2.154 12.315 2.154 1.991 0 4.007-.163 5.991-.488 2.845-.463 5.544-1.341 8.145-2.422a45.993 45.993 0 0 1 2.178-9.966c.504-1.496.87-3.024 1.528-4.463.707-1.561 1.715-2.999 2.601-4.487.683-1.138 1.211-2.349 1.991-3.438 3.82-5.324 8.665-9.616 14.144-12.851-.057-1.512-.049-3.032-.293-4.552-2.097-12.794-10.575-22.979-21.833-27.767.406-1.577.878-3.113 1.366-4.65a86.397 86.397 0 0 1 1.642-4.69c10.275-26.824 32.88-46.089 57.388-61.395 10.112-6.316 2.414-23.467-7.852-17.054-30.287 18.915-56.453 41.976-68.109 75.124-.585 1.666-1.105 3.373-1.618 5.088-.48 1.618-.951 3.243-1.366 4.91-.602.065-1.211.049-1.805.146-6.389 1.049-12.014 3.829-16.753 7.6a36 36 0 0 0-4.706 4.479c-4.869 5.536-8.023 12.429-8.909 19.939-.146 1.276-.309 2.544-.317 3.853-.008.602.089 1.219.114 1.829.057 1.496.033 2.983.276 4.495.024.154.089.301.114.455.081.48.252.919.358 1.39 1.382 6.357 4.292 12.022 8.381 16.623 1.114 1.212 2.235 2.415 3.479 3.48zm67.524 43.358c1.447.732 2.918 1.414 4.471 1.951 3.78 1.301 7.803 2.065 12.006 2.065 1.991 0 4.007-.163 5.983-.488 9.681-1.585 18.159-6.852 23.882-14.81 5.723-7.966 7.999-17.688 6.413-27.369-2.926-17.826-18.143-30.775-36.188-30.775-1.991 0-4.007.163-5.983.488-2.845.463-5.544 1.341-8.145 2.422-1.813.756-3.601 1.561-5.267 2.585-2.341 1.455-4.463 3.243-6.43 5.202-1.439 1.431-2.829 2.918-4.04 4.601-.488.683-.805 1.439-1.244 2.146-.886 1.423-1.788 2.829-2.463 4.341-.35.772-.528 1.601-.821 2.398-.276.764-.561 1.528-.788 2.309-.528 1.821-.878 3.666-1.122 5.552a35.92 35.92 0 0 0-.276 6.072c.057 1.52.049 3.032.301 4.56 1.674 10.226 7.47 18.736 15.444 24.223a35.747 35.747 0 0 0 4.267 2.527z"/><path d="M406.689 129.939c-27.41 47.463 48.706 52.429 69.979 32.295.008 0-42.57-79.766-69.979-32.295zm-175.26 305.757c127.814 0 231.429-30.458 231.429-158.271H0c0 127.813 103.615 158.271 231.429 158.271zM184.763 68.772c-5.511-.845-15.696-2.162-26.215-2.162-16.623 0-27.662 3.178-31.929 9.185-2.439 3.438-2.666 8.055-.902 13.941.154.52.228.984.415 1.52 1.902 5.438 4.308 9.567 7.186 12.453 3.219 3.235 7.015 4.91 11.396 4.91 15.167-.001 34.009-19.16 40.049-39.847z"/></g></svg>