<svg xmlns="http://www.w3.org/2000/svg" width="32" height="32"><path d="M7.903 7.023v1.993h14.014V7.023a.996.996 0 0 0-.996-.997h-2.99s.034-1.138.034-2.882c0-1.619-1.404-3.098-3.086-3.098s-2.978 1.406-2.978 3.089c0 1.619-.012 2.891-.012 2.891H8.9a.997.997 0 0 0-.997.997zm6.976-3.986a.997.997 0 1 1 0 1.994.997.997 0 0 1 0-1.994zm9.032 2.989v9.901s.86-.949 1.992-1.404V5.03c0-1.101-.955-1.993-2.055-1.993h-4.921V5.03h3.986c.551 0 .998.446.998.996zm-11.088 23.98H6.906a.995.995 0 0 1-.996-.996V6.026c0-.55.446-.996.996-.996h4.049V3.037H5.91A1.993 1.993 0 0 0 3.917 5.03v24.976c0 1.101.892 1.994 1.993 1.994h9.081c-.39-.658-1.087-1.418-2.168-1.994zm11.088-.996a.996.996 0 0 1-.997.996h-2.729A44.86 44.86 0 0 0 18.775 32h5.074c1.1 0 2.055-.893 2.055-1.994v-6.129a26.013 26.013 0 0 0-1.992 1.83v3.303zm4.172-8.084c-1.123-2.496-.48-4.523-.32-6.863-6.579 3.275-10.751 13.103-10.751 13.103l-2.567-4.836-5.295 3.119c2.247.779 5.456 3.275 8.184 6.551 1.924-3.432 7.861-10.449 10.749-11.074z"/></svg>