<svg xmlns="http://www.w3.org/2000/svg" viewBox="0 0 496.072 496.072" width="512" height="512"><g fill="#FFF"><path d="M206.191 280.613c.496 1.268.959 2.56 1.349 3.885a48.055 48.055 0 0 1 1.146 4.991h10.006a114.88 114.88 0 0 1-2.471-8.754c-.309-1.325-.512-2.666-.78-4.007a121.886 121.886 0 0 1-.732-4.154c-1.211-7.763-1.609-15.647-1.057-23.565-6.308 5.747-14.217 9.803-23.101 11.339a45.917 45.917 0 0 1 13.908 16.404 49.371 49.371 0 0 1 1.732 3.861zm-30.189-18.769c-1.26-.447-2.561-.805-3.877-1.122-.065.341-.098.683-.163 1.016a45.862 45.862 0 0 1-2.934 9.169c-3.251 7.389-8.413 13.786-14.883 18.582h46.13c-.293-1.341-.602-2.658-1.024-3.934-.471-1.422-.992-2.812-1.618-4.154a37.637 37.637 0 0 0-21.631-19.557zm-4.333-19.899c.471 2.04.862 4.121 1.057 6.267.106 1.13.114 2.252.138 3.365.024.008.049.008.065.016 1.301.341 2.617.634 3.967.837 2.999.447 6.072.658 9.242.358 13.103-1.203 24.044-8.966 29.905-19.736.65-2.837 1.309-5.674 2.211-8.494.163-.504.374-.992.545-1.496a105.99 105.99 0 0 1 1.423-3.902c.081-.211.146-.423.228-.626.114-1.162.033-2.365.033-3.544s.138-2.333.033-3.528c-.967-10.518-6.137-19.557-13.672-25.784-7.031 6.072-15.908 10.112-25.841 11.03-1.439.13-2.861.195-4.268.195-5.186 0-10.12-.992-14.778-2.561-.033 7.917-1.926 15.591-5.812 22.427 7.64 6.294 13.191 15.048 15.524 25.176zm-53.567 47.358c.301.073.61.13.91.195h15.233c15.225-3.073 26.767-15.005 29.669-29.84.154-.805.406-1.569.512-2.39.065-.496.098-1 .138-1.504.089-.992.016-2.008.024-3.008 0-.415.024-.821.008-1.236-.024-.862.106-1.699.024-2.569-.016-.195-.081-.366-.106-.561-1.073-10.031-5.909-18.712-13.022-24.817v.008c-1.341 1.609-2.894 2.967-4.414 4.357-1.049.967-2.081 1.935-3.203 2.796-1.114.854-2.317 1.569-3.503 2.309-6.048 3.788-12.827 6.308-20.134 6.982-1.439.13-2.861.195-4.268.195-1.195 0-2.325-.236-3.495-.325.154 1 .333 1.992.431 3.008 1.276 13.94-3.837 27.003-12.9 36.343a37.289 37.289 0 0 0 18.096 10.057zm42.886-105.404c.114.504.252.992.35 1.496 5.739 2.552 12.136 3.861 18.907 3.203 7.299-.675 13.867-3.471 19.33-7.6 1.195-.902 2.276-1.902 3.357-2.934 1.024-.984 2.105-1.902 3.008-2.991 6.243-7.486 9.632-17.346 8.673-27.8-1.813-19.687-18.062-34.53-37.798-34.53-1.171 0-2.333.049-3.52.163-20.785 1.91-36.148 20.313-34.368 41.09a45.874 45.874 0 0 1 19.509 21.89 45.874 45.874 0 0 1 1.439 3.902c.43 1.348.796 2.721 1.113 4.111zm-57.152 54.535c-.366-1.585-.854-3.105-1.406-4.601-.691-1.861-1.479-3.658-2.439-5.357-.325-.577-.699-1.13-1.049-1.691-.74-1.171-1.471-2.333-2.333-3.414-.878-1.097-1.837-2.113-2.829-3.105a37.429 37.429 0 0 0-10.835-7.527c-1.715-.788-3.487-1.423-5.332-1.959-1.593-.463-3.195-.862-4.861-1.114-1.878-.285-3.772-.536-5.731-.536-1.171 0-2.341.057-3.528.171-10.112.927-19.257 5.739-25.751 13.542-6.487 7.803-9.551 17.672-8.624 27.775 1.918 20.85 20.143 36.4 41.326 34.376 6.804-.626 12.924-3.154 18.159-6.82 1.146-.805 2.276-1.601 3.316-2.52a37.244 37.244 0 0 0 2.894-2.878c7.023-7.633 11.014-17.997 9.99-29.108-.154-1.812-.56-3.519-.967-5.234zM7.188 113.221c29.58 9.283 58.103 23.532 74.661 49.999.748 1.195 1.406 2.471 2.097 3.715.723 1.292 1.52 2.52 2.187 3.877-5.739 7.356-8.876 16.769-7.958 26.776.163 1.756.593 3.406.984 5.08 8.039 2.17 15.233 6.422 20.89 12.242a49.218 49.218 0 0 1 2.804 3.146 43.686 43.686 0 0 1 2.406 3.276c2.122 3.162 3.82 6.625 5.121 10.299 2.959.431 5.983.618 9.112.317 6.73-.618 12.941-3.097 18.322-6.885a37.961 37.961 0 0 0 3.609-2.878c1.114-1.016 2.227-2.04 3.227-3.195.073-.081.154-.138.228-.219.114-.13.26-.228.366-.366.723-.87 1.244-1.853 1.878-2.772.788-1.138 1.674-2.219 2.325-3.422 3.536-6.503 5.08-13.908 4.414-21.443 0-.049.008-.089 0-.138-.008-.122-.057-.228-.065-.35-.171-1.65-.536-3.227-.902-4.804-.024-.106-.033-.219-.057-.325-.333-1.398-.764-2.731-1.252-4.064-.374-1.032-.732-2.065-1.187-3.048a37.7 37.7 0 0 0-8.007-11.282c-1.886-1.821-3.902-3.495-6.129-4.893-1.455-.91-3.032-1.626-4.609-2.333-4.78-2.146-10.014-3.438-15.599-3.438-1.171 0-2.341.057-3.528.171-3.942.366-7.608 1.479-11.079 2.934-.667-1.203-1.374-2.357-2.073-3.528-.732-1.219-1.439-2.463-2.203-3.633-19.777-30.32-51.69-46.528-86.651-57.502-11.656-3.675-14.834 15.069-3.332 18.686z"/><path d="M62.055 148.02C23.16 108.523 1.758 197.425 1.758 197.425c25.946 14.307 99.193-9.908 60.297-49.405zm424.8-94.365c-33.01 2.853-64.598 10.153-90.17 28.93a112.559 112.559 0 0 0-5.576 4.398 118.668 118.668 0 0 0-5.471 4.877c-4.064-1.016-8.153-1.658-12.217-1.658-23.15 0-45.114 15.916-52.99 40.553-.415 1.309-.732 2.617-1.057 3.926-2.057 6.105-7.852 17.997-23.272 25.727-21.468 10.754-32.604 21.24-32.604 21.24l.041.024c-12.9 9.592-23.321 22.199-30.019 37.204a82.575 82.575 0 0 0-1.65 3.91 99.14 99.14 0 0 0-1.382 3.772c-.195.577-.439 1.13-.626 1.715-4.519 14.136-5.332 28.621-3.138 42.626.219 1.374.463 2.747.732 4.105.285 1.39.545 2.78.886 4.154.87 3.495 1.951 6.934 3.195 10.331h209.49c4.316-17.338 3.365-35.026-1.943-51.543l.081.008s-2.463-14.948-13.705-36.172c-8.901-16.802-5.714-31.067-3.999-36.294.26-.723.569-1.414.805-2.154a62.573 62.573 0 0 0 1.52-5.649c-10.933-7.178-19.704-16.615-22.817-27.141-1.845-6.235-2.739-16.737 5.763-27.71-.593-.528-1.236-1.008-1.853-1.512a96.812 96.812 0 0 1 4.958-3.796 104.253 104.253 0 0 1 5.316-3.536c.927-.577 1.894-1.097 2.837-1.642.805-.569 1.585-1.146 2.455-1.715 5.975-3.877 11.754-6.308 17.257-7.283 15.306-5.406 31.823-8.194 48.316-9.616 12.745-1.082 13.753-21.192.837-20.079z"/><path d="M443.082 91.006c-5.202 0-11.217 1.935-18.192 6.462a66.006 66.006 0 0 0-3.82 2.674 46.848 46.848 0 0 0-4.593 3.991c-1.561 1.528-2.943 3.073-4.048 4.617-10.307 14.379-1.87 29.287 12.583 39.919a72.802 72.802 0 0 0 5.82 3.869 86.403 86.403 0 0 0 5.666 3.105c9.925 4.918 20.874 7.901 30.165 7.901 3.341 0 6.462-.382 9.242-1.203.001-.007-1.308-71.335-32.823-71.335zm-174.366 206.62H41.596c0 116.962 94.812 144.835 211.774 144.835s211.774-27.873 211.774-144.835H268.716z"/></g></svg>