<svg xmlns="http://www.w3.org/2000/svg" viewBox="0 0 512 512"><path d="M511.972 54.762c-.005-.069-.004-.138-.012-.207-.017-.18-.047-.356-.077-.532-.014-.087-.022-.175-.04-.261-.03-.148-.07-.292-.107-.438-.03-.115-.056-.231-.09-.346-.033-.111-.076-.218-.114-.327-.05-.145-.098-.292-.158-.435-.031-.075-.069-.148-.103-.222-.076-.169-.152-.339-.24-.504-.028-.052-.061-.101-.09-.152a8.447 8.447 0 0 0-.317-.531c-.046-.069-.099-.133-.148-.2-.11-.154-.217-.308-.339-.455a8.27 8.27 0 0 0-.533-.59l-.009-.01c-.033-.033-.069-.061-.104-.094a8.098 8.098 0 0 0-.496-.447c-.068-.057-.141-.105-.21-.159-.143-.11-.286-.22-.437-.321-.096-.065-.197-.121-.296-.181-.129-.079-.256-.159-.39-.231-.125-.067-.252-.123-.379-.183-.114-.054-.227-.111-.344-.16-.157-.065-.317-.119-.478-.174-.094-.032-.185-.069-.281-.098a8.76 8.76 0 0 0-.614-.156c-.056-.012-.109-.03-.165-.042l-.033-.006-.016-.003-33.276-6.657-6.653-33.271-.005-.028-.005-.026c-.01-.045-.024-.088-.033-.132a7.83 7.83 0 0 0-.165-.65c-.027-.089-.062-.174-.092-.261-.057-.167-.112-.333-.181-.496-.046-.112-.102-.22-.153-.329-.062-.132-.12-.265-.189-.394-.07-.13-.149-.254-.224-.379-.062-.102-.121-.206-.187-.307-.098-.147-.206-.286-.313-.425-.057-.074-.108-.15-.168-.222a8.402 8.402 0 0 0-.438-.485c-.036-.037-.066-.077-.103-.113l-.011-.009a7.753 7.753 0 0 0-.495-.448 8.187 8.187 0 0 0-2.059-1.277c-.028-.012-.053-.026-.081-.038a8.335 8.335 0 0 0-.573-.208c-.063-.021-.124-.046-.187-.065-.161-.05-.326-.087-.49-.127-.098-.024-.194-.051-.294-.072-.139-.028-.279-.044-.419-.065-.126-.019-.25-.042-.377-.054-.133-.013-.266-.015-.399-.022-.134-.007-.266-.019-.401-.019a8.17 8.17 0 0 0-.682.031c-.039.003-.077.002-.117.006a8.382 8.382 0 0 0-.815.12l-.013.002c-.048.01-.094.026-.142.036a8.417 8.417 0 0 0-.639.162c-.091.027-.176.062-.265.093a7.836 7.836 0 0 0-.493.179c-.113.047-.22.102-.33.153-.133.062-.265.12-.394.19-.129.069-.252.148-.377.223-.103.062-.207.121-.309.189-.145.098-.284.205-.423.311-.075.057-.152.109-.224.169a8.167 8.167 0 0 0-.478.432c-.04.037-.081.069-.12.108l-.022.023-.013.013-68.283 68.284-.01.011a8.193 8.193 0 0 0-.902 1.087c-.037.053-.079.103-.115.157a7.884 7.884 0 0 0-.321.535c-.029.05-.061.097-.088.148a7.259 7.259 0 0 0-.24.505c-.033.074-.072.146-.103.221-.06.144-.108.292-.159.439-.039.107-.08.213-.113.323-.034.115-.06.233-.09.349-.037.145-.077.288-.107.436-.016.086-.026.173-.04.259-.029.177-.06.355-.077.535-.006.066-.006.132-.011.198a7.873 7.873 0 0 0-.029.596c0 .104.011.207.015.31.005.161.006.321.023.483.027.272.067.542.12.81l.002.012 6.876 34.383-26.186 26.186c-19.44-12.791-42.188-19.662-65.996-19.662-29.493 0-57.367 10.535-79.325 29.822-21.958-19.288-49.832-29.822-79.325-29.822-32.157 0-62.391 12.524-85.132 35.264-22.74 22.738-35.263 52.97-35.263 85.128s12.523 62.39 35.262 85.127l61.239 61.24-58.515 58.514-17.41-17.41c-.048-.048-.1-.089-.15-.136a9.42 9.42 0 0 0-.377-.341c-.087-.073-.175-.141-.264-.21a7.648 7.648 0 0 0-1.039-.686 8.58 8.58 0 0 0-1.196-.54c-.062-.022-.12-.05-.183-.071-.034-.011-.069-.018-.104-.029a8.88 8.88 0 0 0-.477-.133c-.113-.028-.226-.059-.338-.082-.13-.027-.261-.047-.392-.067-.143-.023-.286-.047-.43-.062-.098-.011-.196-.014-.294-.021-.173-.012-.344-.024-.515-.025-.078-.001-.155.005-.233.006-.187.004-.374.01-.56.027-.079.007-.158.021-.236.03-.179.022-.358.044-.535.077-.104.02-.206.047-.309.071-.149.034-.298.066-.444.108-.131.038-.26.085-.389.129-.116.04-.234.077-.348.122-.14.056-.278.121-.416.184-.102.047-.205.091-.305.142-.129.066-.254.141-.382.214-.107.062-.215.122-.32.189-.106.068-.208.143-.312.216a7.745 7.745 0 0 0-.36.265c-.082.065-.161.136-.241.204a8.519 8.519 0 0 0-.387.349c-.025.024-.051.044-.076.069-.045.045-.082.094-.127.14a8.24 8.24 0 0 0-.353.391c-.07.084-.137.17-.204.257a8 8 0 0 0-.491.708c-.067.11-.134.22-.197.334a7.203 7.203 0 0 0-.215.419c-.046.097-.093.193-.136.292a7.606 7.606 0 0 0-.192.493c-.021.059-.048.115-.068.175L.417 500.476c-.019.058-.03.116-.048.174a7.885 7.885 0 0 0-.281 1.241 9.153 9.153 0 0 0-.047.366c-.014.14-.022.28-.029.422a7.26 7.26 0 0 0-.012.391c0 .133.005.266.012.399a7.196 7.196 0 0 0 .077.789 7.864 7.864 0 0 0 .278 1.229c.018.06.03.12.05.18.012.036.031.067.044.103.127.363.275.718.451 1.06.034.066.073.129.109.194.163.296.342.582.54.856.037.051.071.105.108.155.221.292.468.566.728.828.059.059.119.116.178.173a8.453 8.453 0 0 0 .896.741c.299.211.618.397.948.569a8.204 8.204 0 0 0 1.189.514c.014.005.029.006.043.011.349.115.711.197 1.074.264.064.012.127.035.19.045.423.067.854.103 1.288.103h.002c.434 0 .865-.036 1.287-.103.068-.011.136-.036.204-.049a8.283 8.283 0 0 0 1.06-.261c.015-.005.029-.006.044-.011l69.643-23.214c.065-.022.126-.051.19-.074.157-.057.314-.117.469-.183.107-.046.209-.096.313-.146a7.936 7.936 0 0 0 1.454-.9c.084-.065.168-.13.25-.199.135-.113.263-.231.39-.352.046-.044.096-.083.142-.129.026-.025.046-.053.072-.078a7.95 7.95 0 0 0 .337-.374c.074-.085.149-.169.218-.257.087-.108.166-.222.246-.334.08-.113.162-.225.236-.341.059-.091.11-.185.165-.278.082-.141.165-.281.238-.424.042-.082.076-.166.115-.249.073-.156.146-.313.208-.473.036-.091.065-.185.097-.278.053-.152.108-.305.153-.459.034-.12.06-.243.089-.364.031-.13.065-.259.089-.39.028-.15.046-.302.066-.454.013-.106.031-.211.041-.317.015-.164.018-.329.024-.495.002-.099.009-.197.009-.295-.001-.155-.013-.311-.022-.467-.007-.114-.012-.228-.025-.341-.014-.131-.036-.263-.057-.394a8.77 8.77 0 0 0-.073-.425c-.022-.105-.05-.209-.077-.314a7.751 7.751 0 0 0-.138-.496c-.011-.033-.017-.066-.028-.099-.02-.06-.047-.115-.068-.175a8.3 8.3 0 0 0-.193-.495c-.042-.097-.088-.192-.133-.287a8.188 8.188 0 0 0-.219-.427c-.061-.111-.126-.218-.191-.325-.072-.115-.144-.23-.221-.343a8.982 8.982 0 0 0-.48-.63 7.705 7.705 0 0 0-.344-.38c-.046-.048-.085-.1-.133-.147l-17.411-17.411 58.515-58.515 85.807 85.809a8.21 8.21 0 0 0 11.608 0l158.656-158.656c46.938-46.939 46.938-123.315-.001-170.256a122.76 122.76 0 0 0-5.958-5.566l24.612-24.612 34.386 6.876.014.002c.201.04.404.066.608.09.066.009.134.022.2.029.019.002.04.002.059.003.247.022.494.036.737.036.259 0 .515-.014.771-.038l.059-.008c.229-.024.456-.056.681-.098.069-.013.139-.031.208-.046a6.688 6.688 0 0 0 .793-.213 7.975 7.975 0 0 0 1.416-.607c.119-.065.234-.136.348-.206.098-.06.198-.117.293-.182.197-.132.388-.272.573-.421.032-.026.063-.054.094-.081.177-.147.348-.301.513-.463.015-.015.032-.027.047-.042l68.318-68.318c.037-.037.067-.077.104-.114a7.746 7.746 0 0 0 .852-1.042c.052-.076.105-.151.154-.228a7.92 7.92 0 0 0 .251-.426c.047-.083.095-.164.138-.247.074-.144.139-.292.204-.441.038-.086.081-.171.115-.259.062-.156.114-.316.167-.477.055-.165.103-.33.146-.497.039-.153.082-.304.113-.461l.001-.011a8.3 8.3 0 0 0 .121-.813c.012-.15.012-.291.019-.434.005-.121.017-.243.017-.364 0-.197-.014-.392-.028-.587zM21.18 490.094l13.824-41.472 27.647 27.648-41.471 13.824zm348.038-176.422L216.366 466.525l-85.804-85.805-.003-.004-.004-.004-67.039-67.04c-19.639-19.636-30.454-45.747-30.454-73.52 0-27.773 10.815-53.883 30.454-73.521 19.641-19.64 45.753-30.455 73.526-30.455 27.774 0 53.883 10.816 73.521 30.455a8.209 8.209 0 0 0 11.608 0c19.637-19.64 45.747-30.455 73.521-30.455 19.39 0 37.967 5.278 54.1 15.143l-20.139 20.139a75.62 75.62 0 0 0-5.126-2.329c-9.096-3.684-18.793-5.565-28.865-5.59-10.035.025-19.729 1.907-28.811 5.591-9.466 3.836-17.99 9.5-25.345 16.844-6.598 6.606-15.736 10.401-25.079 10.417-.019 0-.036-.003-.054-.003h-.055c-4.564 0-9.258-.941-13.57-2.736-4.323-1.795-8.306-4.454-11.524-7.682-7.354-7.343-15.879-13.012-25.345-16.842a76.63 76.63 0 0 0-16.032-4.52 8.186 8.186 0 0 0-1.357-.12 8.182 8.182 0 0 0-8.087 6.862 8.155 8.155 0 0 0 1.412 6.117 8.186 8.186 0 0 0 5.33 3.327 59.747 59.747 0 0 1 12.573 3.546c7.42 3.009 14.118 7.474 19.907 13.241 4.826 4.826 10.505 8.613 16.864 11.25 6.291 2.603 12.919 3.945 19.707 3.968.057.001.113.009.171.009 13.691 0 27.087-5.553 36.746-15.226 5.787-5.777 12.484-10.231 19.907-13.239 7.129-2.892 14.761-4.368 22.644-4.388 7.498.019 14.735 1.359 21.542 3.952l-62.863 62.864a8.208 8.208 0 1 0 11.608 11.607l66.158-66.159a61.96 61.96 0 0 1 6.149 5.364c5.781 5.79 10.234 12.483 13.239 19.896 2.89 7.122 4.37 14.762 4.4 22.644-.03 7.938-1.51 15.574-4.4 22.699-3.009 7.423-7.464 14.12-13.235 19.9L216.366 404.616 94.47 282.722c-5.767-5.779-10.221-12.476-13.241-19.896-2.878-7.124-4.356-14.741-4.399-22.675.043-7.923 1.521-15.562 4.399-22.675 3.009-7.409 7.464-14.106 13.241-19.896 5.789-5.778 12.487-10.232 19.896-13.241a60.164 60.164 0 0 1 4.191-1.511c4.311-1.39 6.698-6.019 5.318-10.319a8.187 8.187 0 0 0-7.813-5.713c-.854 0-1.696.132-2.517.394a76.619 76.619 0 0 0-5.34 1.937c-9.456 3.83-17.981 9.499-25.335 16.842-7.354 7.365-13.023 15.879-16.854 25.345-3.676 9.061-5.559 18.757-5.602 28.814v.054c.043 10.046 1.926 19.742 5.602 28.803 3.842 9.467 9.5 17.992 16.843 25.335l127.7 127.711c.396.393.825.741 1.28 1.042.053.035.109.063.163.097.174.11.348.217.529.313.083.044.169.079.253.119.156.075.31.153.47.219.11.045.223.079.334.119.137.049.273.103.411.144.167.05.336.087.505.126.087.02.171.046.259.063a8.208 8.208 0 0 0 3.206 0c.055-.011.106-.028.16-.039.201-.044.402-.09.601-.15.134-.04.264-.091.395-.138.117-.041.233-.077.347-.124.174-.071.342-.154.51-.237.071-.034.142-.062.211-.099.214-.112.42-.236.622-.367.022-.014.046-.026.068-.041.457-.302.889-.65 1.287-1.045.021-.021.039-.044.059-.065l127.643-127.644c7.333-7.345 12.998-15.869 16.834-25.334 3.68-9.072 5.565-18.763 5.603-28.867-.039-10.048-1.924-19.743-5.603-28.813-3.832-9.455-9.497-17.975-16.844-25.335a78.867 78.867 0 0 0-6.064-5.45l19.432-19.432a106.084 106.084 0 0 1 5.988 5.538c40.538 40.54 40.538 106.502 0 147.041zm28.737-233.73l54.367-54.369 3.869 19.345-54.367 54.368-3.869-19.344zm34.822 34.821l-19.347-3.869 54.368-54.369 19.346 3.87-54.367 54.368z"/></svg>