<svg xmlns="http://www.w3.org/2000/svg" viewBox="0 0 487.866 487.866" width="512" height="512"><path d="M468.696 101.721v-9.856a5 5 0 0 0-5-5H298.433a59.215 59.215 0 0 0-21.975 4.22c-.182.062-.36.128-.531.21a59.639 59.639 0 0 0-16.182 9.903H25c-13.785 0-25 11.215-25 25v235.519c0 13.785 11.215 25 25 25h194.875v9.286a5 5 0 0 0 5 5h38.117a5 5 0 0 0 5-5v-9.286h195.704c13.328 0 24.17-10.843 24.17-24.171V125.368c0-11.614-8.234-21.338-19.17-23.647zm-10-4.857v219.369H305.683c-22.635 0-43.625 10.936-56.806 28.516V146.42c0-18.06 9.715-33.888 24.189-42.55v160.856a5 5 0 1 0 10 0V99.315a49.35 49.35 0 0 1 15.367-2.451h160.263zm0 229.369v33.022H251.545c10.338-20.012 31.257-33.022 54.138-33.022h153.013zm19.17 36.312c0 7.813-6.357 14.171-14.17 14.171H262.992a5 5 0 0 0-5 5v9.286h-28.117v-9.286c0-.032-.009-.061-.009-.092v-13.225a5 5 0 1 0-10 0v8.316H25c-8.271 0-15-6.729-15-15V126.197c0-8.271 6.729-15 15-15h194.865v227.184a5 5 0 1 0 10 0V111.197h20.583c-7.266 9.873-11.571 22.052-11.571 35.223v217.836a5.002 5.002 0 0 0 5.003 5c.021 0 .041-.004.062-.005.016 0 .031.005.047.005h219.707a5 5 0 0 0 5-5V112.125c5.35 2.027 9.17 7.191 9.17 13.243v237.177zm-174.569-25.397h143.36a5 5 0 1 1 0 10h-143.36a5 5 0 1 1 0-10zM214.8 361.867a5 5 0 0 1-5 5H22.066a5 5 0 1 1 0-10H209.8a5 5 0 0 1 5 5zm85.336-104.77h74.3a5 5 0 0 0 5-5V149.694a5 5 0 0 0-5-5h-74.3a5 5 0 0 0-5 5v102.402a5 5 0 0 0 5 5.001zm5-102.403h64.3v92.402h-64.3v-92.402zm55.131 5.7h-45.96a5 5 0 0 0-5 5v62.476a5 5 0 0 0 5 5h45.96a5 5 0 0 0 5-5v-62.476a5 5 0 0 0-5-5zm-28.348 28.882c0-2.959 2.408-5.366 5.367-5.366s5.367 2.407 5.367 5.366c0 2.96-2.408 5.367-5.367 5.367s-5.367-2.407-5.367-5.367zm0 33.593v-12.858c0-2.96 2.408-5.367 5.367-5.367s5.367 2.407 5.367 5.367v12.858h-10.734zm23.348 0h-2.614v-12.858c0-3.997-1.547-7.631-4.057-10.367 2.51-2.736 4.057-6.37 4.057-10.367 0-8.473-6.894-15.366-15.367-15.366s-15.367 6.894-15.367 15.366c0 3.997 1.547 7.631 4.057 10.367-2.51 2.736-4.057 6.37-4.057 10.367v12.858h-2.613v-52.476h35.96v52.476zm33.336-14.51h53.978a5 5 0 0 0 5-5v-53.665a5 5 0 0 0-5-5h-53.978a5 5 0 0 0-5 5v53.665a5 5 0 0 0 5 5zm5-15.619l13.367-13.133 14.868 18.752h-28.235v-5.619zm40.997 5.619l-9.341-11.781 5.11-6.736 7.212 7.555v10.963H434.6zm2.981-43.665v18.22l-4.031-4.223a5.005 5.005 0 0 0-3.899-1.54 5.004 5.004 0 0 0-3.701 1.97l-7.106 9.366-7.493-9.45a5.002 5.002 0 0 0-3.608-1.884 4.947 4.947 0 0 0-3.813 1.424l-10.326 10.145v-24.028h43.977zm-48.978 102.403h53.978a5 5 0 0 0 5-5v-34.134a5 5 0 0 0-5-5h-53.978a5 5 0 0 0-5 5v34.134a5 5 0 0 0 5 5zm5-10v-6.571c1.885 1.807 4.513 3.504 8.493 3.504 5.696 0 8.627-3.477 10.567-5.777 1.629-1.932 2.011-2.223 2.922-2.223.914 0 1.296.291 2.927 2.224 1.94 2.301 4.873 5.776 10.571 5.776 3.983 0 6.612-1.698 8.498-3.507v6.574h-43.978zm43.978-24.134v4.133c-2.607 1.209-4.304 3.208-5.571 4.71-1.631 1.933-2.014 2.224-2.927 2.224s-1.296-.291-2.927-2.224c-1.94-2.301-4.873-5.776-10.571-5.776-5.697 0-8.628 3.477-10.567 5.777-1.629 1.932-2.011 2.223-2.921 2.223-.912 0-1.294-.291-2.924-2.224-1.267-1.502-2.963-3.5-5.569-4.709v-4.133h43.977z" fill="#FFF"/></svg>