<svg xmlns="http://www.w3.org/2000/svg" viewBox="0 0 512 512"><path d="M509.769 134.021a7.647 7.647 0 0 0-5.373-2.22h-49.081L278.802 53.613c.002-.13.01-.257.01-.388 0-12.578-10.234-22.812-22.812-22.812s-22.812 10.234-22.812 22.812c0 .131.008.26.01.39L56.685 131.801H7.604a7.665 7.665 0 0 0-5.373 2.22A7.655 7.655 0 0 0 0 139.405v70.97c0 4.187 3.406 7.604 7.604 7.604 4.187 0 7.604-3.417 7.604-7.604v-63.376h42.988c.037 0 .073.008.11.008.052 0 .103-.007.154-.008h60.455c.081.01.162.03.223 0H453.54c.051.001.103.008.154.008.037 0 .073-.008.11-.008h42.988v319.376h-25.341v-2.489l.002-.04c0-20.964-17.055-38.02-38.02-38.02h-32.948l.007-13.644a89.221 89.221 0 0 0 28.8-21.851h44.687c4.2 0 7.604-3.404 7.604-7.604v-91.246c0-65.688-53.441-119.129-119.129-119.129s-119.129 53.441-119.129 119.129v91.246c0 4.2 3.404 7.604 7.604 7.604h44.707a89.19 89.19 0 0 0 28.809 21.855v13.64h-32.951c-20.964 0-38.02 17.055-38.02 38.02v2.529h-5.086v-12.667c0-20.964-17.055-38.02-38.02-38.02H197.7l.007-16.836c18.622-16.269 30.405-40.174 30.405-66.78V302.9c5.942-29.887 3.216-52.051-8.113-65.869-7.141-8.71-15.992-12.031-22.303-13.272v-33.654c0-4.2-3.404-7.604-7.604-7.604-2.885 0-5.842-.016-8.851-.032-3.147-.017-6.35-.034-9.593-.034-36.683 0-77.868 2.321-102.333 30.034-17.598 19.935-23.692 49.376-18.63 90.003v29.601c0 26.612 11.788 50.522 30.417 66.792v16.824h-12.67c-20.964 0-38.02 17.055-38.02 38.02v12.667H15.208V240.791c0-4.198-3.417-7.604-7.604-7.604A7.606 7.606 0 0 0 0 240.791v233.188c0 1.997.811 3.964 2.231 5.373a7.629 7.629 0 0 0 5.373 2.231h30.372l.04.002.04-.002h70.878c.018 0 .036.004.054.004.028 0 .056-.004.084-.004h60.659c.028 0 .056.004.084.004.018 0 .036-.004.053-.004h70.877l.04.002.04-.002h263.571a7.629 7.629 0 0 0 5.373-2.231 7.629 7.629 0 0 0 2.231-5.373V139.405a7.655 7.655 0 0 0-2.231-5.384zM256 45.621c4.193 0 7.604 3.411 7.604 7.604s-3.411 7.604-7.604 7.604-7.604-3.411-7.604-7.604 3.411-7.604 7.604-7.604zm-136.871 86.18H94.236l144.303-63.919c4.188 4.981 10.46 8.154 17.461 8.154 7.002 0 13.275-3.174 17.462-8.156l144.304 63.921H119.129zm-38.411 90.732c20.275-22.967 57.568-24.89 90.932-24.89a1739.277 1739.277 0 0 1 10.84.041v32.975c0 2.099.831 4.107 2.361 5.545a7.543 7.543 0 0 0 5.644 2.049c.697-.036 10.719-.149 17.745 8.422 5.19 6.331 7.78 16.046 7.722 28.642l-3.305-6.611a7.608 7.608 0 0 0-9.111-3.844c-.451.144-45.475 14.403-71.495 14.403-24.927 0-47.483-13.516-47.699-13.647a7.603 7.603 0 0 0-10.048 1.926l-10.037 13.383c-.614-25.713 4.895-45.303 16.451-58.394zM65.895 332.072v-27.971l16.648-22.197c9.376 4.662 28.392 12.568 49.507 12.568 22.522 0 56.054-9.148 69.875-13.223l10.98 21.96v28.862c0 40.516-32.974 73.477-73.505 73.477-40.531.002-73.505-32.96-73.505-73.476zm116.6 77.494l-.004 9.655-23.352 15.57-12.135-6.061v-8.301a88.086 88.086 0 0 0 35.491-10.863zm-50.699 10.863v7.853l-16.446 6.578-19.039-15.224v-10.067a88.08 88.08 0 0 0 35.485 10.86zM45.62 466.375v-12.667c0-12.578 10.234-22.812 22.812-22.812H83.56l14.192 35.479H45.62zm119.049 0h-50.536l-7.655-19.139 2.836 2.267c.067.053.143.089.211.141.215.159.435.307.663.443.138.082.274.162.415.235.218.111.442.206.667.295.152.059.3.125.454.174.251.081.507.139.765.194.129.028.254.066.383.087.392.062.79.099 1.192.099.265 0 .531-.018.798-.046.047-.006.093-.015.141-.021.209-.026.417-.059.626-.103.085-.019.169-.041.254-.061a7.282 7.282 0 0 0 .805-.247c.065-.024.133-.042.198-.068l22.17-8.867 17.094 8.539.02.01.121.06c.104.052.212.089.317.136.151.067.3.139.455.195.182.067.367.119.552.171.098.028.194.062.293.086.268.065.538.113.807.149.023.002.046.008.068.012.301.036.601.055.9.055.357 0 .712-.027 1.063-.076.152-.022.303-.064.454-.095.196-.04.392-.073.584-.128.152-.045.302-.107.453-.161.19-.068.381-.133.566-.216.133-.059.261-.134.392-.202a7.63 7.63 0 0 0 .585-.33c.041-.027.085-.044.126-.071l10.032-6.689-9.269 23.172zm68.512 0h-52.132l14.192-35.479h15.128c12.579 0 22.812 10.234 22.812 22.812v12.667zm25.353-91.25v-83.643c0-57.302 46.619-103.921 103.921-103.921s103.921 46.619 103.921 103.921v83.642h-26.377c7.117-12.756 11.179-27.438 11.179-43.052v-40.598c-.005-22.181-8.192-42.485-21.701-58.053a7.422 7.422 0 0 0-1.047-1.178c-16.251-18.076-39.803-29.463-65.966-29.463-48.917 0-88.713 39.796-88.713 88.713l.001.02v40.56c0 15.614 4.062 30.295 11.179 43.052h-26.397zm162.535-127.938a73.156 73.156 0 0 1 13.913 32.35l-43.985-18.839 30.072-13.511zM289 289.856c.875-39.776 33.481-71.869 73.463-71.869 18.114 0 34.707 6.599 47.534 17.503L289 289.856zm-.041 42.216v-25.526l83.186-37.377 63.824 27.337v35.566c0 40.515-32.974 73.475-73.505 73.475s-73.505-32.96-73.505-73.475zm5.071 134.304h-25.347v-2.529c0-12.579 10.234-22.812 22.812-22.812h2.535v25.341zm121.658.001h-106.45v-25.341h22.812c4.2 0 7.604-3.404 7.604-7.604V417.78a88.655 88.655 0 0 0 22.81 2.975 88.58 88.58 0 0 0 22.817-2.979l-.007 15.651v.003c0 .129.013.254.019.381.007.132.007.264.02.395.012.117.036.231.054.347.02.137.035.275.062.408.024.117.058.23.088.345.033.129.059.258.099.384.042.135.095.263.144.394.038.101.07.205.112.305.076.18.164.354.253.527.023.044.042.092.065.137a7.615 7.615 0 0 0 5.152 3.827c.194.041.393.066.592.091.055.007.109.019.164.025.151.016.308.018.462.024.105.004.208.016.314.016h22.814v25.341zm40.556-2.53v2.529h-25.347v-25.341h2.537c12.569 0 22.797 10.219 22.811 22.786l-.001.026z"/></svg>