<svg xmlns="http://www.w3.org/2000/svg" viewBox="0 0 512 512"><path d="M275.7 153.164l45.964-38.304.009-.007.026-.022c.148-.123.286-.253.422-.385.029-.028.061-.054.09-.082.171-.171.333-.349.485-.533.018-.023.035-.048.053-.07.13-.161.254-.325.369-.494.045-.066.084-.136.127-.203.082-.13.164-.259.238-.392.051-.092.095-.187.142-.281a7.2 7.2 0 0 0 .165-.343c.047-.107.089-.217.131-.327a6.386 6.386 0 0 0 .224-.674 8.121 8.121 0 0 0 .159-.683c.024-.13.043-.26.06-.391.013-.102.027-.203.037-.306.015-.169.022-.338.025-.507.001-.058.009-.114.009-.172l-.002-.039a7.495 7.495 0 0 0-.037-.733c-.002-.028-.009-.055-.012-.083a7.32 7.32 0 0 0-.095-.623c-.019-.098-.046-.193-.069-.29-.032-.133-.063-.265-.102-.397-.034-.114-.074-.225-.113-.337a6.838 6.838 0 0 0-.12-.329 7.346 7.346 0 0 0-.154-.352c-.046-.098-.091-.196-.141-.292a7.28 7.28 0 0 0-.191-.347c-.03-.052-.055-.106-.087-.157l-18.667-30.415a7.605 7.605 0 0 0-6.481-3.627h-11.749l-72.582.002a7.603 7.603 0 0 0-6.481 3.627l-18.665 30.413c-.032.052-.057.105-.087.157a7.28 7.28 0 0 0-.606 1.32c-.039.112-.079.223-.113.337-.039.132-.07.264-.102.397-.023.097-.049.192-.069.29a7.32 7.32 0 0 0-.095.623c-.003.028-.009.055-.012.083a7.495 7.495 0 0 0-.037.733l-.002.039c0 .058.007.114.009.172.003.169.01.338.025.507.009.103.024.204.037.306a7.378 7.378 0 0 0 .443 1.748c.043.11.084.22.131.327a7.2 7.2 0 0 0 .165.343c.047.094.091.189.142.281.074.133.156.262.238.392.043.067.082.137.127.203.115.169.24.333.369.494.018.023.035.048.053.07.152.183.313.361.485.533.029.029.06.054.09.082.136.132.274.262.422.385l.026.022a.055.055 0 0 0 .009.007l45.964 38.304C146.304 163.008 76.04 239.467 76.04 332.04 76.04 431.271 156.77 512 256 512s179.96-80.729 179.96-179.96c0-92.573-70.264-169.032-160.26-178.876zm-12.096-9.716v-26.854h32.225l-32.225 26.854zm25.961-57.269h4.344l9.333 15.207h-28.884l15.207-15.207zm-21.508.001L256 98.236 243.943 86.18h24.114zm-49.968.001h4.346l15.206 15.205h-28.884l9.332-15.205zm-1.918 30.413h32.225v26.854l-32.225-26.854zM256 496.792c-90.845 0-164.752-73.908-164.752-164.752S165.155 167.288 256 167.288s164.752 73.908 164.752 164.752S346.845 496.792 256 496.792z"/><path d="M393.793 273.834a149.852 149.852 0 0 0-13.788-25.407 151.446 151.446 0 0 0-18.26-22.133 151.446 151.446 0 0 0-22.133-18.26 150.854 150.854 0 0 0-25.397-13.788c-18.442-7.797-38.03-11.75-58.216-11.75s-39.774 3.953-58.206 11.75a150.559 150.559 0 0 0-25.407 13.788 151.5 151.5 0 0 0-22.133 18.26 151.387 151.387 0 0 0-18.259 22.133 150.525 150.525 0 0 0-13.789 25.407c-7.796 18.432-11.75 38.02-11.75 58.206 0 29.209 8.425 57.516 24.363 81.838a150.387 150.387 0 0 0 27.618 31.511A149.717 149.717 0 0 0 193.85 468.1a148.958 148.958 0 0 0 29.858 9.986 150.331 150.331 0 0 0 32.281 3.498h.031c11.071 0 22.122-1.217 32.839-3.62a149.071 149.071 0 0 0 30.304-10.342 149.728 149.728 0 0 0 26.989-16.251 150.778 150.778 0 0 0 22.862-21.393 7.616 7.616 0 0 0-.76-10.727 7.593 7.593 0 0 0-10.717.751l-.01.01a136.341 136.341 0 0 1-20.561 19.234 134.445 134.445 0 0 1-24.231 14.599 133.59 133.59 0 0 1-27.222 9.287A135.657 135.657 0 0 1 256 466.377c-19.405 0-38.132-4.045-55.641-12.025a1.388 1.388 0 0 0-.182-.081c0-.01-.01-.01-.02-.01a134.479 134.479 0 0 1-31.794-20.409 134.773 134.773 0 0 1-24.82-28.297c-14.315-21.848-21.879-47.276-21.879-73.515 0-18.148 3.549-35.738 10.554-52.285 6.762-15.988 16.445-30.354 28.794-42.704 12.348-12.348 26.715-22.031 42.693-28.793 16.556-7.006 34.146-10.554 52.295-10.554 18.148 0 35.738 3.549 52.284 10.554 15.989 6.762 30.355 16.444 42.704 28.793 12.348 12.349 22.031 26.716 28.793 42.704 7.006 16.546 10.554 34.136 10.554 52.285 0 11.446-1.44 22.812-4.279 33.781a133.444 133.444 0 0 1-12.126 30.599 7.585 7.585 0 0 0-.629 5.789 7.575 7.575 0 0 0 3.65 4.532 7.608 7.608 0 0 0 10.322-3.02 148.507 148.507 0 0 0 13.504-34.086 150.108 150.108 0 0 0 4.765-37.594c.002-20.188-3.952-39.776-11.749-58.207zM256 0a7.603 7.603 0 0 0-7.604 7.604v30.415a7.604 7.604 0 0 0 15.208 0V7.604C263.604 3.404 260.2 0 256 0zm-54.247 50.517l-15.208-26.341a7.603 7.603 0 0 0-10.387-2.783 7.603 7.603 0 0 0-2.783 10.387l15.208 26.341a7.598 7.598 0 0 0 10.387 2.783 7.603 7.603 0 0 0 2.783-10.387zm134.089-29.125a7.604 7.604 0 0 0-10.387 2.783l-15.208 26.34a7.604 7.604 0 1 0 13.17 7.604l15.208-26.34a7.603 7.603 0 0 0-2.783-10.387z"/></svg>