<svg xmlns="http://www.w3.org/2000/svg" viewBox="0 0 512 512"><path d="M328.572 54.285c-4.897-4.9-11.41-7.599-18.339-7.599-4.582 0-8.982 1.18-12.852 3.396-3.873-2.216-8.274-3.396-12.856-3.396-6.929 0-13.443 2.698-18.339 7.597-10.11 10.111-10.111 26.564 0 36.678l25.712 25.707a7.758 7.758 0 0 0 10.971-.001l25.702-25.707c10.11-10.113 10.109-26.566.001-36.675zM317.6 79.992l-20.217 20.221-20.224-20.221c-4.064-4.065-4.065-10.676-.001-14.74a10.345 10.345 0 0 1 7.366-3.051 10.36 10.36 0 0 1 7.374 3.054 7.761 7.761 0 0 0 5.485 2.272h.003a7.756 7.756 0 0 0 5.485-2.275 10.332 10.332 0 0 1 7.362-3.05c2.783 0 5.398 1.083 7.367 3.054 4.062 4.061 4.061 10.672 0 14.736z"/><path d="M483.559 0H131.885a7.757 7.757 0 0 0-7.757 7.757V400.8a7.756 7.756 0 0 0 7.757 7.757h351.672a7.757 7.757 0 0 0 7.757-7.757V7.757A7.755 7.755 0 0 0 483.559 0zM475.8 393.042H139.643v-67.231h105.979l.035.002h.012l.035-.002H475.8v67.231zM258.592 152.561a7.756 7.756 0 0 0 7.757 7.757c5.527 0 10.242 3.493 12.088 8.382l-2.329-1.708c-.086-.064-.177-.115-.266-.175-.091-.062-.181-.124-.275-.182a7.622 7.622 0 0 0-.421-.236c-.076-.04-.15-.081-.227-.118a7.482 7.482 0 0 0-.478-.212c-.068-.027-.136-.057-.206-.082a6.977 6.977 0 0 0-.5-.167c-.073-.022-.146-.044-.22-.064a7.637 7.637 0 0 0-.488-.112l-.264-.05a9.534 9.534 0 0 0-.768-.085 7.016 7.016 0 0 0-.41-.013 7.043 7.043 0 0 0-.747.03 9.121 9.121 0 0 0-.363.038c-.136.018-.27.043-.405.069a6.49 6.49 0 0 0-.337.069 8.35 8.35 0 0 0-.438.121c-.074.022-.149.037-.223.062-3.995 1.327-15.991 4.77-23.413 4.77s-19.415-3.442-23.408-4.769c-.036-.012-.072-.018-.108-.03-.124-.038-.25-.071-.376-.104-.127-.033-.254-.069-.381-.095-.102-.022-.207-.036-.31-.054-.15-.025-.3-.052-.451-.068-.082-.009-.165-.011-.248-.017-.169-.013-.338-.026-.506-.027-.079-.001-.158.005-.236.006-.17.004-.339.007-.507.022-.101.008-.201.025-.3.038-.144.018-.289.033-.432.061-.127.023-.252.057-.378.086-.115.027-.232.051-.345.084-.133.037-.264.086-.395.131-.107.036-.215.07-.319.111-.12.047-.238.104-.356.158-.116.053-.232.103-.344.161-.102.053-.201.112-.301.169-.126.073-.252.144-.374.223-.028.018-.058.032-.086.052l-3.277 2.185c1.646-19.486 15.217-28.046 46.37-29.203l.001 12.786zm-37.552 29.185c5.568 1.63 16.321 4.424 24.621 4.424 8.198 0 18.79-2.725 24.415-4.364l9.202 6.748v15.716c0 18.536-15.08 33.616-33.616 33.616s-33.616-15.08-33.616-33.616v-16.528h.002l8.992-5.996zm60.447 82.005h15.851l.04.002c7.129 0 12.929 5.8 12.929 12.929v33.614h-52.093l23.273-46.545zm-35.824 36.956l-23.272-46.545v-6.634a48.824 48.824 0 0 0 23.272 5.874 48.813 48.813 0 0 0 23.272-5.874v6.634l-23.272 46.545zm-12.552 9.589h-52.094v-33.614h.001c0-7.129 5.8-12.929 12.929-12.929h15.893l23.271 46.543zm115.983-25.859h62.06a7.757 7.757 0 0 0 7.757-7.757v-12.929h2.544l.04.002c7.129 0 12.929 5.8 12.929 12.929v33.614h-108.6v-33.614c0-7.129 5.8-12.929 12.929-12.929h2.584v12.927a7.756 7.756 0 0 0 7.757 7.757zm-2.483-103.342c1.284-17.372 15.818-31.118 33.513-31.118 6.271 0 12.143 1.73 17.173 4.732l-50.686 26.386zm62.256-14.918a33.383 33.383 0 0 1 4.788 15.163l-17.301-8.649 12.513-6.514zm-29.509 15.361l34.382 17.188v5.545c0 18.536-15.08 33.616-33.616 33.616s-33.616-15.08-33.616-33.616v-5.632l32.85-17.101zm-12.162 74.458v-4.332a48.979 48.979 0 0 0 12.927 1.738c4.475 0 8.806-.613 12.929-1.738v4.33a7.756 7.756 0 0 0 7.757 7.757h2.586v5.172H356.85v-5.17h2.589a7.757 7.757 0 0 0 7.757-7.757zm108.604 54.3h-25.861v-33.614c0-15.655-12.714-28.395-28.36-28.442-.028 0-.055-.004-.082-.004h-12.929v-3.943c12.507-8.915 20.687-23.527 20.687-40.022v-20.678c0-12.229-4.501-23.42-11.921-32.028a7.682 7.682 0 0 0-.73-.842c-8.999-9.977-22.018-16.26-36.479-16.26-27.09 0-49.131 22.04-49.131 49.131v20.678c0 16.496 8.181 31.108 20.689 40.023v3.944h-12.929c-8.145 0-15.497 3.447-20.687 8.952-5.173-5.487-12.492-8.927-20.605-8.95-.027 0-.054-.004-.081-.004h-12.929v-13.863c6.474-8.322 10.343-18.765 10.343-30.102v-31.024c0-12.994-8.762-23.973-20.687-27.36v-14.011a7.756 7.756 0 0 0-7.757-7.757c-21.387 0-36.504 2.781-47.575 8.751-14.758 7.959-22.242 21.544-22.242 40.377v31.024c0 11.336 3.87 21.779 10.343 30.102v13.865h-12.929c-15.684 0-28.444 12.76-28.444 28.444v33.614h-25.86V15.515H475.8v294.781z"/><path d="M431.836 424.078a7.757 7.757 0 0 0-7.757 7.757v12.929H87.921V67.235h12.923a7.757 7.757 0 0 0 0-15.514h-20.68a7.757 7.757 0 0 0-7.757 7.757v393.044a7.756 7.756 0 0 0 7.757 7.757h351.672a7.757 7.757 0 0 0 7.757-7.757v-20.687a7.756 7.756 0 0 0-7.757-7.757z"/><path d="M380.115 475.801a7.757 7.757 0 0 0-7.757 7.757v12.927H36.2V118.958h12.923a7.757 7.757 0 0 0 0-15.514H28.442a7.757 7.757 0 0 0-7.757 7.757v393.042A7.756 7.756 0 0 0 28.442 512h351.672a7.757 7.757 0 0 0 7.757-7.757v-20.684a7.755 7.755 0 0 0-7.756-7.758zm.007-372.376c-44.2 0-80.158 35.96-80.158 80.16a7.757 7.757 0 0 0 15.514 0c0-35.646 29-64.645 64.645-64.645 35.645 0 64.645 29 64.645 64.645a7.757 7.757 0 0 0 15.514 0c0-44.2-35.96-80.16-80.16-80.16z"/><path d="M359.439 351.669H256.007a7.757 7.757 0 0 0 0 15.514H359.44a7.757 7.757 0 1 0-.001-15.514z"/></svg>