<!-- Generated by IcoMoon.io -->
<svg version="1.1" xmlns="http://www.w3.org/2000/svg" width="32" height="32" viewBox="0 0 32 32">
<title>apple-and-grapes-on-a-bowl</title>
<path fill="#fff" d="M16.468 18.079c0.081-0.453 0.25-0.889 0.527-1.274 0.218-0.305 0.489-0.554 0.791-0.758-0.035-0.122-0.074-0.243-0.095-0.372-0.134-0.817 0.067-1.612 0.498-2.249-0.614-0.468-1.056-1.156-1.19-1.972-0.087-0.529-0.023-1.055 0.152-1.546l-0.002-0.002c-2.96-2.532-5.437-1.401-6.71-0.706-0.665 0.363-1.148 0.522-1.454 0.593-0.313 0.029-0.821 0.033-1.567-0.101-1.428-0.256-4.135-0.542-6.14 2.798-0.68 1.133-0.44 3.345 0.366 5.588l14.825 0.001zM4.846 11.793c0.928-0.504 1.754 0.909 0.826 1.413-1.397 0.76-1.563 2.149-0.562 3.353 0.67 0.805-0.482 1.97-1.157 1.157-1.647-1.981-1.493-4.626 0.893-5.924z"></path>
<path fill="#fff" d="M4.537 2.856c-0.744-0.476-1.315 0.788-0.582 1.257 2.093 1.338 3.639 2.010 4.094 4.587 0.154 0.871 1.518 0.739 1.362-0.142-0.051-0.287-0.115-0.55-0.187-0.802-0.434-0.141-0.945-0.512-1.271-1.449-0.133-0.381-0.159-0.718-0.102-1.018-0.849-0.902-1.974-1.577-3.313-2.433zM19.639 18.079c-0.472-0.182-0.887-0.477-1.216-0.855-0.142-0.161-0.27-0.341-0.377-0.534l-0.008-0.016c-0.19 0.146-0.367 0.311-0.511 0.511-0.184 0.253-0.323 0.553-0.398 0.876l-0.003 0.017h2.514zM22.221 18.079c-0.011-0.021-0.019-0.043-0.029-0.064-0.039 0.022-0.081 0.040-0.119 0.064h0.148zM21.721 13.602c-0.343 0.213-0.729 0.358-1.139 0.425-0.152 0.026-0.328 0.041-0.507 0.041-0 0-0.001 0-0.001 0h0c-0.474 0-0.92-0.116-1.324-0.306-0.067 0.095-0.132 0.205-0.188 0.319l-0.006 0.015c-0.216 0.443-0.305 0.951-0.219 1.472 0.009 0.055 0.028 0.106 0.041 0.16 0.025 0.109 0.052 0.216 0.091 0.318 0.019 0.049 0.044 0.094 0.065 0.142 0.023 0.052 0.044 0.105 0.071 0.155 0.419 0.778 1.233 1.291 2.161 1.291 0.134 0 0.269-0.011 0.402-0.033 0.183-0.030 0.358-0.085 0.526-0.152 0.089-0.036 0.173-0.080 0.256-0.126-0.011-0.051-0.029-0.098-0.039-0.15-0.002-0.008-0.005-0.015-0.006-0.023-0.032-0.196-0.043-0.393-0.038-0.588 0.015-0.61 0.21-1.201 0.568-1.71-0.326-0.348-0.573-0.771-0.714-1.25zM22.552 17.045c0.007 0.040 0.021 0.076 0.030 0.116 0.007 0.034 0.017 0.067 0.026 0.1 0.019 0.072 0.031 0.147 0.056 0.216 0.014 0.040 0.036 0.075 0.052 0.115 0.026 0.063 0.054 0.125 0.085 0.186 0.061 0.116 0.123 0.215 0.191 0.308l-0.005-0.007h4.003c0.031-0.044 0.052-0.093 0.080-0.138-0.73-0.462-1.261-1.217-1.41-2.128-0.007-0.045-0.003-0.089-0.009-0.134-0.146 0.046-0.291 0.093-0.445 0.118-0.152 0.026-0.328 0.041-0.507 0.041-0 0-0.001 0-0.001 0h0c-0.302 0-0.59-0.054-0.867-0.134-0.107-0.031-0.214-0.063-0.316-0.105-0.125-0.051-0.226-0.1-0.325-0.154l0.016 0.008c-0.094-0.051-0.181-0.11-0.268-0.17-0.314 0.471-0.45 1.024-0.398 1.586 0.005 0.058 0.002 0.116 0.011 0.174zM21.632 12.181c0.119-0.657 0.429-1.227 0.868-1.667v0c-0.211-1.179-1.221-2.031-2.42-2.031-0.134 0-0.269 0.011-0.402 0.033-0.65 0.106-1.219 0.46-1.603 0.994-0.219 0.306-0.354 0.651-0.417 1.011-0.047 0.27-0.059 0.548-0.013 0.827 0.092 0.562 0.37 1.046 0.76 1.407 0.062 0.056 0.128 0.111 0.197 0.163l0.007 0.005c0.091 0.068 0.183 0.131 0.283 0.186 0.107 0.059 0.217 0.113 0.333 0.156 0.252 0.095 0.544 0.151 0.848 0.151 0 0 0 0 0.001 0h-0c0.134 0 0.269-0.011 0.402-0.033 0.415-0.068 0.79-0.246 1.112-0.498-0.001-0.013 0-0.025-0.001-0.038-0.001-0.036-0.002-0.078-0.002-0.12 0-0.193 0.017-0.381 0.050-0.565l-0.003 0.019zM23.096 14.593c0.023 0.020 0.050 0.035 0.073 0.054 0.058 0.046 0.124 0.094 0.192 0.138l0.010 0.006c0.053 0.034 0.107 0.066 0.164 0.097 0.109 0.058 0.22 0.111 0.337 0.153 0.259 0.092 0.537 0.145 0.827 0.145 0.134 0 0.269-0.011 0.402-0.033 0.191-0.031 0.372-0.090 0.547-0.163 0.026-0.248 0.078-0.475 0.153-0.691l-0.007 0.022c0.034-0.1 0.058-0.203 0.103-0.3 0.047-0.105 0.115-0.201 0.175-0.301 0.046-0.076 0.081-0.158 0.134-0.231 0.256-0.357 0.582-0.646 0.95-0.863-0.004-0.101-0.003-0.204-0.020-0.306-0.141-0.859-0.71-1.543-1.466-1.864 0.027-0.106 0.059-0.209 0.092-0.312 0.046-0.147 0.084-0.251 0.124-0.354l-0.014 0.039c0.69-1.801 2.207-3.094 3.853-4.122 0.679-0.424 0.162-1.575-0.527-1.145-2.033 1.27-3.79 2.818-4.572 5.043-0.039 0.112-0.074 0.226-0.109 0.342-0.032 0.109-0.064 0.218-0.092 0.33-0.040 0.004-0.081 0.003-0.121 0.010-0.429 0.070-0.807 0.257-1.125 0.51-0.116 0.093-0.22 0.191-0.314 0.298l-0.002 0.003c-0.327 0.372-0.539 0.834-0.598 1.339-0.010 0.086-0.021 0.171-0.021 0.259-0.001 0.040 0.006 0.082 0.008 0.123 0.004 0.1 0.002 0.2 0.019 0.302 0.002 0.010 0.006 0.020 0.008 0.031 0.005 0.032 0.017 0.062 0.024 0.093 0.093 0.427 0.288 0.807 0.563 1.116 0.075 0.081 0.15 0.162 0.234 0.234zM27.63 17.503c0.097 0.049 0.196 0.095 0.3 0.131 0.254 0.087 0.524 0.139 0.806 0.139 0.134 0 0.269-0.011 0.402-0.033 0.65-0.106 1.219-0.46 1.603-0.994s0.537-1.187 0.431-1.837c-0.196-1.197-1.218-2.066-2.429-2.066-0.134 0-0.269 0.011-0.402 0.033-0.191 0.031-0.372 0.090-0.547 0.163-0.122 0.051-0.242 0.105-0.354 0.174-0.157 0.098-0.3 0.218-0.432 0.349-0.097 0.096-0.19 0.196-0.271 0.309-0.033 0.046-0.054 0.097-0.084 0.144-0.059 0.096-0.12 0.19-0.165 0.291-0.023 0.052-0.035 0.107-0.055 0.161-0.019 0.051-0.038 0.103-0.053 0.155-0.035 0.122-0.059 0.246-0.075 0.373-0.013 0.094-0.020 0.203-0.020 0.313 0 0.033 0.001 0.066 0.002 0.099l-0-0.005c0.004 0.102 0.003 0.204 0.020 0.306 0.112 0.686 0.501 1.258 1.037 1.626 0.081 0.057 0.175 0.113 0.273 0.163l0.014 0.006z"></path>
<path fill="#fff" d="M27.302 8.723c-1.84 3.186 3.27 3.52 4.698 2.168 0.001 0-2.858-5.355-4.698-2.168zM15.536 29.249c8.58 0 15.536-2.045 15.536-10.625h-31.073c0 8.58 6.956 10.625 15.536 10.625zM12.404 4.617c-0.37-0.057-1.054-0.145-1.76-0.145-1.116 0-1.857 0.213-2.143 0.617-0.164 0.231-0.179 0.541-0.061 0.936 0.010 0.035 0.015 0.066 0.028 0.102 0.128 0.365 0.289 0.642 0.482 0.836 0.216 0.217 0.471 0.33 0.765 0.33 1.018-0 2.283-1.286 2.689-2.675z"></path>
</svg>
