<!-- Generated by IcoMoon.io -->
<svg version="1.1" xmlns="http://www.w3.org/2000/svg" width="32" height="32" viewBox="0 0 32 32">
<title>boy-broad-smile</title>
<path fill="#fff" d="M9.752 18.522c0.295 0 0.572 0.115 0.78 0.323 0.109 0.109 0.259 0.177 0.426 0.177 0 0 0.001 0 0.001 0h-0c0 0 0 0 0 0 0.333 0 0.603-0.27 0.603-0.603 0-0.167-0.068-0.318-0.177-0.427v0c-0.436-0.436-1.016-0.677-1.633-0.677s-1.197 0.24-1.633 0.677c-0.236 0.236-0.236 0.618 0 0.853s0.618 0.236 0.853 0c0.198-0.2 0.473-0.323 0.777-0.323 0.001 0 0.002 0 0.003 0h-0zM20.615 17.992c-0.109 0.109-0.177 0.26-0.177 0.427s0.068 0.317 0.177 0.427v0c0.109 0.109 0.26 0.177 0.427 0.177s0.317-0.068 0.427-0.177v0c0.43-0.43 1.13-0.43 1.56 0 0.118 0.118 0.272 0.177 0.427 0.177s0.309-0.059 0.427-0.177c0.109-0.109 0.177-0.26 0.177-0.427s-0.068-0.317-0.177-0.427v0c-0.9-0.901-2.366-0.901-3.267 0zM22.245 23.945c-3.443 3.443-9.046 3.443-12.489 0-0.109-0.109-0.26-0.177-0.427-0.177s-0.317 0.068-0.427 0.177v0c-0.109 0.109-0.177 0.26-0.177 0.427s0.068 0.317 0.177 0.427v0c1.957 1.957 4.527 2.935 7.098 2.935s5.141-0.978 7.098-2.935c0.109-0.109 0.177-0.26 0.177-0.427 0-0.333-0.27-0.603-0.603-0.603-0.167 0-0.317 0.068-0.427 0.177v0z"></path>
<path fill="#fff" d="M30.238 19.172c0-1.639-1.185-3.006-2.743-3.291v-10.095c0-0.001 0-0.003 0-0.005 0-1.348-0.686-2.537-1.729-3.234l-0.014-0.009c-1.025-0.68-2.297-0.834-3.448-0.429l-3.788-1.286c-2.911-0.988-5.975-1.090-8.862-0.293-3.778 1.042-5.945 3.247-6.279 6.381-0.285 0.373-0.52 0.804-0.681 1.269l-0.010 0.032-0.294 0.87c-0.158 0.467 0.016 0.958 0.433 1.221s0.935 0.21 1.289-0.133c0.115-0.111 0.244-0.21 0.383-0.293l0.010-0.005v6.009c-1.558 0.285-2.743 1.652-2.743 3.291 0 1.705 1.282 3.115 2.932 3.32 0.414 2.288 1.503 4.399 3.168 6.088 2.174 2.205 5.064 3.42 8.138 3.42h0.001c3.070-0 5.956-1.196 8.127-3.367 1.696-1.696 2.796-3.828 3.197-6.143 1.641-0.214 2.913-1.619 2.913-3.318zM25.085 3.545c0.765 0.507 1.203 1.324 1.203 2.242v7.897c-1.873-0.291-3.311-1.915-3.311-3.868l-0.050-6.635c0.737-0.194 1.505-0.069 2.158 0.364zM3.711 8.946l0.117-0.347c0.317-0.917 0.99-1.64 1.85-2.017l0.022-0.008c0.392-0.172 0.85-0.272 1.33-0.272 0.518 0 1.009 0.116 1.448 0.324l-0.021-0.009c1.827 0.851 4.036 0.391 5.372-1.119l0.149-0.169c0.090-0.105 0.145-0.242 0.145-0.393 0-0.333-0.27-0.604-0.604-0.604-0.176 0-0.335 0.076-0.445 0.196l-0 0-0.149 0.169c-0.984 1.113-2.612 1.452-3.959 0.824-0.568-0.27-1.234-0.428-1.937-0.428-0.652 0-1.273 0.136-1.835 0.381l0.030-0.011c-0.136 0.059-0.241 0.11-0.344 0.165l0.025-0.012c0.701-1.87 2.399-3.187 5.070-3.924 2.652-0.732 5.471-0.637 8.153 0.273l3.592 1.219 0.047 3.118c-1.599 2.175-3.932 3.647-6.59 4.153-2.722 0.518-5.499-0.030-7.819-1.544-1.134-0.74-2.563-0.708-3.647 0.033zM2.969 19.172c0-0.97 0.649-1.791 1.536-2.052v3.271c0 0.283 0.010 0.564 0.030 0.843-0.902-0.251-1.566-1.080-1.566-2.061zM23.275 27.78c-1.943 1.943-4.526 3.013-7.274 3.013h-0.001c-2.748 0-5.333-1.087-7.278-3.060-1.941-1.969-3.010-4.576-3.010-7.342v-10.802c0.37 0.029 0.707 0.15 0.994 0.34l-0.008-0.005c2.583 1.686 5.674 2.296 8.705 1.719 2.46-0.468 4.669-1.679 6.368-3.465v1.637c0 2.62 1.978 4.785 4.518 5.085v5.605c0 2.748-1.070 5.332-3.013 7.275zM27.472 21.232c0.015-0.241 0.023-0.483 0.023-0.727v-3.385c0.887 0.261 1.536 1.082 1.536 2.052 0 0.979-0.661 1.805-1.559 2.059z"></path>
</svg>
