<!-- Generated by IcoMoon.io -->
<svg version="1.1" xmlns="http://www.w3.org/2000/svg" width="32" height="32" viewBox="0 0 32 32">
<title>camera</title>
<path d="M29.526 6.598h-3.019l-1.835-3.059c-0.002-0.003-0.004-0.006-0.006-0.009-0.010-0.016-0.020-0.030-0.030-0.043l0.001 0.001c-0.011-0.014-0.022-0.026-0.033-0.038l0 0c-0.005-0.005-0.010-0.010-0.015-0.015l-0-0c-0.006-0.006-0.012-0.012-0.019-0.017l-0.001-0.001c-0.011-0.009-0.023-0.019-0.036-0.028l-0.002-0.001c-0.011-0.008-0.024-0.016-0.037-0.024l-0.003-0.001c-0.005-0.003-0.013-0.007-0.021-0.011l-0.003-0.001c-0.012-0.006-0.027-0.013-0.042-0.019l-0.003-0.001c-0.002-0.001-0.008-0.003-0.014-0.005l-0.004-0.001c-0.020-0.007-0.045-0.014-0.071-0.018l-0.003-0c-0.022-0.004-0.047-0.007-0.073-0.007h-0.001c-0.004-0-0.008-0.001-0.011-0.001h-9.897c-0.004 0-0.007 0-0.011 0.001-0.019 0.001-0.036 0.002-0.054 0.004l0.003-0c-0.020 0.003-0.037 0.006-0.053 0.010l0.004-0.001c-0.020 0.005-0.036 0.009-0.051 0.014l0.004-0.001c-0.006 0.002-0.012 0.004-0.018 0.007-0.012 0.005-0.021 0.008-0.029 0.012l0.003-0.001c-0.009 0.004-0.015 0.007-0.022 0.010l0.002-0.001c-0.010 0.005-0.018 0.009-0.025 0.013l0.002-0.001c-0.007 0.004-0.014 0.008-0.020 0.012-0.008 0.005-0.015 0.009-0.021 0.014l0.001-0.001c-0.007 0.005-0.014 0.010-0.021 0.016-0.006 0.004-0.011 0.009-0.017 0.013-0.025 0.022-0.047 0.045-0.067 0.070l-0.001 0.001c-0.009 0.012-0.019 0.026-0.028 0.040l-0.001 0.002c-0.002 0.003-0.004 0.006-0.006 0.009l-1.835 3.059h-4.503v-1.484c0-0 0-0 0-0 0-0.273-0.221-0.495-0.495-0.495-0 0-0 0-0 0h-3.959c-0.273 0-0.495 0.222-0.495 0.495v0 1.484h-0.165c-1.364 0-2.474 1.11-2.474 2.474v17.155c0 1.364 1.11 2.474 2.474 2.474h27.052c1.364 0 2.474-1.11 2.474-2.474v-17.155c0-1.364-1.11-2.474-2.474-2.474zM3.629 5.608h2.969v0.99h-2.969v-0.99zM29.526 27.711h-21.938v-18.639c0-0.273-0.222-0.495-0.495-0.495s-0.495 0.222-0.495 0.495v0 18.639h-4.124c-0.819 0-1.484-0.666-1.484-1.485v-3.497h1.485c0.273 0 0.495-0.222 0.495-0.495s-0.222-0.495-0.495-0.495v0h-1.485v-1.633h1.485c0.273 0 0.495-0.222 0.495-0.495s-0.222-0.495-0.495-0.495v0h-1.485v-1.633h1.485c0.273 0 0.495-0.222 0.495-0.495s-0.222-0.495-0.495-0.495v0h-1.485v-1.633h1.485c0.273 0 0.495-0.222 0.495-0.495s-0.222-0.495-0.495-0.495v0h-1.485v-4.8c0-0.819 0.666-1.484 1.484-1.484l9.897 0c0.001 0 0.002-0 0.003-0 0.019-0 0.037-0.001 0.055-0.003 0.005-0.001 0.010-0.002 0.015-0.002 0.015-0.002 0.029-0.005 0.043-0.008 0.005-0.001 0.010-0.003 0.015-0.004 0.019-0.005 0.034-0.010 0.048-0.016l-0.003 0.001c0.004-0.001 0.007-0.002 0.010-0.004 0.018-0.007 0.036-0.016 0.052-0.025 0.003-0.002 0.006-0.004 0.009-0.005 0.013-0.008 0.026-0.016 0.039-0.025 0.005-0.004 0.011-0.008 0.016-0.012 0.011-0.008 0.021-0.017 0.030-0.026 0.005-0.004 0.009-0.008 0.014-0.012 0.014-0.013 0.026-0.027 0.038-0.042 0.002-0.003 0.005-0.006 0.007-0.009 0.010-0.013 0.020-0.027 0.029-0.041 0.001-0.002 0.003-0.004 0.004-0.006l1.835-3.059h9.336l1.835 3.059c0.001 0.002 0.003 0.004 0.004 0.006 0.009 0.014 0.019 0.028 0.029 0.041 0.002 0.003 0.004 0.006 0.007 0.009 0.012 0.015 0.025 0.029 0.038 0.042 0.004 0.004 0.009 0.008 0.014 0.012 0.010 0.009 0.020 0.018 0.030 0.026 0.005 0.004 0.011 0.008 0.016 0.012 0.013 0.009 0.026 0.017 0.039 0.025 0.003 0.002 0.006 0.004 0.009 0.005 0.017 0.009 0.034 0.017 0.052 0.025 0.003 0.001 0.007 0.003 0.010 0.004 0.015 0.006 0.029 0.010 0.045 0.015 0.005 0.001 0.010 0.003 0.015 0.004 0.014 0.003 0.029 0.006 0.043 0.008 0.005 0.001 0.010 0.002 0.015 0.002 0.018 0.002 0.036 0.003 0.055 0.003 0.001 0 0.002 0 0.003 0l0.001-0h3.298c0.819 0 1.485 0.666 1.485 1.484v17.155h0c0 0.819-0.666 1.485-1.485 1.485z"></path>
<path d="M19.298 11.216c-3.729 0-6.763 3.034-6.763 6.763s3.034 6.763 6.763 6.763 6.763-3.034 6.763-6.763c0-3.729-3.034-6.763-6.763-6.763zM19.298 23.752c-3.183 0-5.773-2.59-5.773-5.773s2.59-5.773 5.773-5.773c3.183 0 5.773 2.59 5.773 5.773s-2.59 5.773-5.773 5.773z"></path>
<path d="M22.108 15.679c-0.422-0.422-0.983-0.654-1.58-0.654-0.444 0-0.868 0.129-1.23 0.368-0.362-0.239-0.786-0.368-1.23-0.368-0.597 0-1.158 0.232-1.58 0.654-0.871 0.871-0.871 2.289 0 3.16l2.46 2.459c0.097 0.097 0.223 0.145 0.35 0.145s0.253-0.048 0.35-0.145l2.459-2.459c0.422-0.422 0.655-0.983 0.655-1.58s-0.233-1.158-0.655-1.58zM21.408 18.139l-2.11 2.11-2.11-2.11c-0.485-0.485-0.485-1.275-0-1.76 0.224-0.225 0.534-0.364 0.877-0.364 0.001 0 0.002 0 0.003 0h-0c0.332 0 0.645 0.13 0.88 0.365 0.090 0.090 0.213 0.145 0.35 0.145s0.26-0.055 0.35-0.145v0c0.235-0.235 0.547-0.364 0.88-0.364s0.645 0.129 0.88 0.364c0.225 0.224 0.365 0.534 0.365 0.877 0 0.001 0 0.002 0 0.003v-0c0 0.001 0 0.002 0 0.003 0 0.343-0.139 0.653-0.365 0.877l-0 0zM24.047 6.909l-0.528-1.319c-0-0.001-0.001-0.002-0.001-0.003-0.006-0.013-0.010-0.024-0.016-0.034l0.001 0.003c-0.002-0.005-0.004-0.010-0.007-0.014-0.004-0.008-0.009-0.016-0.014-0.025-0.004-0.006-0.007-0.012-0.011-0.018s-0.007-0.010-0.011-0.015-0.012-0.017-0.018-0.024c-0.001-0.002-0.003-0.003-0.005-0.005-0.019-0.023-0.040-0.043-0.062-0.062l-0.001-0.001c-0.002-0.002-0.004-0.003-0.006-0.005-0.009-0.007-0.019-0.015-0.030-0.022l-0.002-0.001c-0.010-0.007-0.021-0.014-0.033-0.021l-0.002-0.001c-0.001-0.001-0.003-0.002-0.004-0.003-0.023-0.013-0.050-0.025-0.079-0.034l-0.003-0.001-0.006-0.002c-0.010-0.003-0.020-0.006-0.030-0.008-0.006-0.001-0.011-0.003-0.017-0.004-0.007-0.002-0.015-0.002-0.022-0.004-0.009-0.002-0.018-0.003-0.027-0.004-0.005-0.001-0.011-0.001-0.016-0.001-0.010-0.001-0.022-0.001-0.033-0.002h-0c-0.001 0-0.002-0-0.003-0l-7.524 0c-0.013 0-0.026 0.001-0.038 0.002l0.002-0c-0.005 0-0.009 0-0.014 0.001-0.010 0.001-0.020 0.003-0.030 0.005-0.006 0.001-0.013 0.002-0.019 0.003s-0.014 0.003-0.021 0.005c-0.009 0.002-0.018 0.004-0.027 0.007-0.003 0.001-0.006 0.002-0.010 0.004-0.015 0.005-0.027 0.010-0.039 0.014l0.003-0.001-0.002 0.001c-0.014 0.006-0.027 0.013-0.041 0.020-0.003 0.002-0.006 0.004-0.009 0.006-0.010 0.006-0.021 0.012-0.031 0.019-0.013 0.009-0.023 0.017-0.034 0.025l0.001-0.001c-0.001 0.001-0.003 0.002-0.004 0.003-0.023 0.019-0.043 0.039-0.062 0.062-0.002 0.002-0.003 0.003-0.005 0.005-0.006 0.008-0.012 0.016-0.018 0.024-0.004 0.005-0.008 0.010-0.011 0.015s-0.007 0.012-0.011 0.018c-0.005 0.008-0.010 0.016-0.015 0.025-0.002 0.005-0.004 0.009-0.007 0.014-0.004 0.007-0.009 0.018-0.013 0.028l-0.001 0.003c-0 0.001-0.001 0.002-0.001 0.003l-0.528 1.319c-0.022 0.054-0.035 0.118-0.035 0.184 0 0.273 0.222 0.495 0.495 0.495 0.207 0 0.384-0.127 0.458-0.308l0.001-0.003 0.403-1.008h6.851l0.403 1.008c0.075 0.184 0.252 0.311 0.46 0.311 0 0 0 0 0 0v0c0.061 0 0.123-0.011 0.184-0.036 0.184-0.075 0.311-0.252 0.311-0.459 0-0.066-0.013-0.129-0.037-0.187l0.001 0.003zM28.536 8.577c-0.819 0-1.485 0.666-1.485 1.485s0.666 1.485 1.485 1.485 1.485-0.666 1.485-1.485c-0-0.819-0.666-1.485-1.485-1.485zM28.536 10.557c-0.273 0-0.495-0.222-0.495-0.495s0.222-0.495 0.495-0.495 0.495 0.222 0.495 0.495-0.222 0.495-0.495 0.495z"></path>
<path d="M27.777 15.848c-0.954-3.793-4.393-6.611-8.479-6.611-4.82 0-8.742 3.922-8.742 8.742s3.922 8.742 8.742 8.742c4.085 0 7.525-2.817 8.479-6.611 1.074-0.116 1.913-1.027 1.913-2.132s-0.839-2.016-1.913-2.132zM19.298 25.732c-4.275 0-7.753-3.478-7.753-7.753s3.478-7.753 7.753-7.753c3.726 0 6.846 2.642 7.586 6.151 0 0.003 0 0.007 0 0.010 0.004 0.037 0.012 0.072 0.023 0.106 0.091 0.446 0.143 0.959 0.143 1.484 0 0 0 0.001 0 0.001v-0c0 4.275-3.478 7.753-7.753 7.753zM27.975 19.050c0.042-0.322 0.066-0.693 0.066-1.071v-0c0-0.363-0.023-0.72-0.066-1.071 0.425 0.171 0.726 0.586 0.726 1.071s-0.301 0.9-0.725 1.071zM11.052 9.897h-1.979c-0.273 0-0.495 0.222-0.495 0.495s0.222 0.495 0.495 0.495v0h1.979c0.273 0 0.495-0.222 0.495-0.495s-0.222-0.495-0.495-0.495v0z"></path>
</svg>
