<!-- Generated by IcoMoon.io -->
<svg version="1.1" xmlns="http://www.w3.org/2000/svg" width="32" height="32" viewBox="0 0 32 32">
<title>diet</title>
<path fill="#fff" d="M12.373 12.429c-0.263-0.286-0.636-0.467-1.052-0.474l-0.001-0c-0.804-0.010-1.469 0.63-1.482 1.434-0 0.002-0 0.005-0 0.008 0 0.256 0.205 0.464 0.46 0.469h0l0.008 0c0.256-0 0.464-0.205 0.469-0.46v-0c0.005-0.284 0.236-0.512 0.52-0.512 0.003 0 0.007 0 0.010 0h-0.001c0.149 0.002 0.282 0.066 0.375 0.169l0 0c0.086 0.094 0.209 0.153 0.346 0.153 0.259 0 0.469-0.21 0.469-0.469 0-0.122-0.047-0.233-0.123-0.316l0 0zM14.867 13.957c-0.147-0.339-0.42-0.6-0.758-0.728l-0.009-0.003c-0.692-0.255-1.464 0.1-1.72 0.791-0.018 0.047-0.028 0.102-0.028 0.159 0 0.259 0.21 0.469 0.469 0.469 0.199 0 0.369-0.124 0.437-0.299l0.001-0.003c0.077-0.208 0.309-0.314 0.517-0.237 0.104 0.039 0.186 0.117 0.228 0.216l0.001 0.003c0.073 0.169 0.239 0.285 0.431 0.285 0.259 0 0.469-0.21 0.469-0.469 0-0.066-0.014-0.129-0.039-0.186l0.001 0.003zM17.888 9.805c-0.085-0.085-0.202-0.137-0.331-0.137s-0.247 0.053-0.332 0.138l-0.442 0.443c-0.087 0.085-0.14 0.204-0.14 0.335 0 0.259 0.21 0.469 0.469 0.469 0.131 0 0.25-0.054 0.335-0.141l0-0 0.442-0.443c0.085-0.085 0.137-0.202 0.137-0.331s-0.053-0.247-0.138-0.332v0zM14.972 15.857h-0.625c-0.259 0-0.469 0.21-0.469 0.469v0c0 0.259 0.21 0.469 0.469 0.469v0h0.625c0.259 0 0.469-0.21 0.469-0.469v0c0-0.259-0.21-0.469-0.469-0.469v0zM19.762 15.857h-0.625c-0.259 0-0.469 0.21-0.469 0.469s0.21 0.469 0.469 0.469v0h0.625c0.259 0 0.469-0.21 0.469-0.469s-0.21-0.469-0.469-0.469v0z"></path>
<path fill="#fff" d="M31.985 24.309l-0.122-0.659c-0.078-0.421-0.445-0.727-0.874-0.727-0.054 0-0.108 0.005-0.161 0.015l-2.485 0.456 1.125-0.752c0.239-0.161 0.395-0.432 0.395-0.738 0-0.057-0.005-0.113-0.016-0.167l0.001 0.006c-0.020-0.103-0.054-0.195-0.102-0.278l0.002 0.004-0.341-0.603c-0.118-0.206-0.31-0.358-0.539-0.421l-0.006-0.001c-0.068-0.019-0.147-0.029-0.228-0.029-0.041 0-0.082 0.003-0.122 0.008l0.005-0.001c0.121-0.636 0.19-1.367 0.19-2.114 0-0.001 0-0.002 0-0.003v0c0-0.319-0.192-0.594-0.466-0.716 0.358-0.852 0.383-1.827 0.029-2.72-0.030-0.075-0.073-0.139-0.127-0.193v0c-0.053-0.053-0.117-0.096-0.188-0.125l-0.004-0.001c-0.392-0.161-0.847-0.255-1.323-0.255-0.062 0-0.123 0.002-0.184 0.005l0.009-0c-0.065-1.308-1.148-2.353-2.47-2.353-0.174 0-0.344 0.018-0.508 0.053 0.034-0.192 0.053-0.414 0.053-0.64 0-0.513-0.1-1.002-0.281-1.449l0.009 0.026c-0.031-0.077-0.075-0.144-0.13-0.199v0c-0.054-0.054-0.119-0.098-0.191-0.127l-0.004-0.001c-0.422-0.174-0.912-0.274-1.425-0.274-0.001 0-0.001 0-0.002 0h0c-0.738 0-1.445 0.208-2.055 0.594-0.243-0.691-0.62-1.282-1.104-1.766l0 0c-0.143-0.144-0.342-0.234-0.561-0.234-0.001 0-0.001 0-0.002 0h0c-0.001 0-0.001 0-0.002 0-0.219 0-0.418 0.089-0.561 0.234l-0 0-2.27 2.275c-0.415-0.371-0.965-0.599-1.569-0.599-0.001 0-0.002 0-0.004 0h0c-0.136 0-0.274 0.012-0.409 0.035-0.489 0.085-0.939 0.324-1.284 0.675-0.442-0.213-0.949-0.286-1.436-0.201-0.122 0.022-0.227 0.048-0.329 0.082l0.017-0.005v-1.753c0-1.207-0.97-2.191-2.17-2.212v-0.994c0.367-0.064 0.648-0.384 0.648-0.769v-2.252c0-0.431-0.35-0.781-0.781-0.781h-3.812c-0.431 0-0.781 0.35-0.781 0.781v2.252c0 0.385 0.28 0.705 0.648 0.769v0.994c-1.2 0.021-2.17 1.005-2.17 2.212v13.681c-0.936 0.845-1.518 2.024-1.518 3.329 0 2.565 2.252 4.652 5.019 4.652l18.762-0.006c0.64-0 1.243-0.282 1.652-0.772 0.31-0.368 0.498-0.847 0.498-1.37 0-0.12-0.010-0.237-0.029-0.352l0.002 0.012 3.747 0.673c0.052 0.009 0.105 0.014 0.158 0.014 0.187 0 0.366-0.057 0.518-0.166 0.191-0.138 0.324-0.346 0.361-0.586l0.001-0.005 0.102-0.681c0.006-0.040 0.010-0.085 0.010-0.132 0-0.057-0.005-0.112-0.016-0.166l0.001 0.006c-0.067-0.35-0.331-0.623-0.67-0.703l-0.006-0.001-1.321-0.303 2.483-0.456c0.239-0.044 0.44-0.179 0.57-0.367l0.002-0.003c0.098-0.14 0.157-0.314 0.157-0.502 0-0.058-0.006-0.114-0.016-0.168l0.001 0.006zM26.626 15.233c0.282 0 0.56 0.045 0.826 0.133 0.238 0.726 0.149 1.509-0.224 2.156h-1.263l0.403-0.404c0.085-0.085 0.137-0.202 0.137-0.331s-0.053-0.247-0.138-0.332v0c-0.085-0.085-0.202-0.137-0.331-0.137s-0.247 0.053-0.332 0.138l-0.213 0.214c-0.104-0.338-0.278-0.628-0.505-0.866l0.001 0.001c0.465-0.369 1.036-0.571 1.638-0.571zM23.983 12.885c0.847 0 1.535 0.691 1.535 1.54 0 0.016-0.001 0.031-0.001 0.047-0.494 0.161-0.95 0.429-1.338 0.794-0.047-0.019-0.11-0.041-0.174-0.059l-0.015-0.004c-0.138-0.732-0.627-1.325-1.282-1.606l-0.014-0.005c0.274-0.424 0.749-0.706 1.289-0.706zM21.505 10.274c0.318 0 0.631 0.052 0.933 0.153 0.097 0.279 0.153 0.601 0.153 0.936 0 0.446-0.099 0.868-0.277 1.246l0.008-0.018c-0.251 0.229-0.454 0.506-0.594 0.817l-0.006 0.016c-0.093 0.005-0.179 0.016-0.263 0.030l0.013-0.002c-0.367 0.064-0.71 0.223-0.996 0.454-0.104-0.187-0.221-0.348-0.356-0.494l0.001 0.002 1.075-1.077c0.085-0.085 0.137-0.202 0.137-0.331s-0.053-0.247-0.138-0.332v0c-0.085-0.085-0.202-0.137-0.331-0.137s-0.247 0.053-0.332 0.138l-1.175 1.178c-0.209-0.101-0.451-0.176-0.706-0.212l-0.013-0.001c0.119-0.594 0.402-1.108 0.801-1.507l-0 0c0.552-0.554 1.286-0.859 2.067-0.859zM17.913 17.522h-0.406c-0.068-0.174-0.238-0.298-0.436-0.298s-0.368 0.123-0.436 0.298h-0.478c0.111-0.181 0.089-0.42-0.068-0.577-0.085-0.085-0.202-0.137-0.331-0.137s-0.247 0.053-0.332 0.138l-0.442 0.443c-0.037 0.038-0.069 0.082-0.091 0.13l-0.001 0.003h-0.954c-0.357-0.548-0.575-1.195-0.601-1.892h7.437c-0.026 0.696-0.244 1.343-0.601 1.892h-0.993c-0.024-0.052-0.055-0.096-0.093-0.133l0 0-0.442-0.443c-0.085-0.085-0.202-0.138-0.332-0.138s-0.246 0.052-0.331 0.137v0c-0.157 0.156-0.179 0.396-0.068 0.577zM16.823 14.692c0.177-0.655 0.774-1.138 1.482-1.138s1.305 0.483 1.482 1.138h-2.964zM17.781 8.929c0.419 0.451 0.727 1.010 0.88 1.63l0.005 0.025c-0.228 0.247-0.426 0.528-0.585 0.832l-0.010 0.021c-0.069-0.043-0.154-0.069-0.244-0.069h-0.625c-0.259 0-0.469 0.21-0.469 0.469s0.21 0.469 0.469 0.469v0h0.548c-0.026 0.104-0.052 0.237-0.070 0.372l-0.002 0.020c-0.202 0.054-0.378 0.124-0.543 0.214l0.013-0.006c-0.312-0.539-0.83-0.941-1.443-1.102-0.039-0.227-0.105-0.43-0.195-0.619l0.006 0.014 2.265-2.27zM9.308 13.158c-0.025-0.066-0.046-0.145-0.061-0.226l-0.001-0.009c-0.134-0.775 0.388-1.516 1.165-1.651 0.074-0.014 0.16-0.021 0.247-0.021h0c0.309 0 0.604 0.098 0.853 0.285 0.077 0.058 0.175 0.093 0.281 0.093 0.162 0 0.306-0.083 0.39-0.208l0.001-0.002c0.22-0.332 0.557-0.552 0.948-0.62 0.074-0.014 0.16-0.021 0.248-0.021h0c0.001 0 0.001 0 0.002 0 0.7 0 1.282 0.506 1.4 1.173l0.001 0.009c0.014 0.078 0.021 0.16 0.021 0.243 0 0.244 0.187 0.444 0.426 0.466l0.002 0c0.524 0.046 0.97 0.376 1.177 0.841-0.273 0.325-0.465 0.727-0.54 1.169l-0.002 0.015h-2.673c-0.332 0-0.618 0.205-0.736 0.496-0.588-0.401-1.281-0.616-2.008-0.616-0 0-0.001 0-0.002 0-0.477 0-0.932 0.094-1.348 0.263l0.024-0.009c-0.075 0.030-0.138 0.073-0.191 0.126v0c-0.054 0.053-0.096 0.117-0.125 0.189l-0.001 0.004c-0.099 0.241-0.175 0.522-0.216 0.814l-0.002 0.019c-0.167-0.189-0.285-0.426-0.331-0.687l-0.001-0.009c-0.11-0.636 0.223-1.269 0.809-1.54 0.162-0.076 0.272-0.238 0.272-0.426 0-0.057-0.010-0.111-0.028-0.161l0.001 0.003zM10.705 17.393l0.128 0.128h-1.126c-0.253-0.586-0.291-1.254-0.086-1.88 0.246-0.084 0.53-0.133 0.825-0.133 0.001 0 0.001 0 0.002 0h-0c0.706 0 1.371 0.276 1.871 0.777 0.064 0.065 0.125 0.133 0.183 0.204l0.004 0.005c0.088 0.39 0.211 0.732 0.371 1.053l-0.012-0.027h-0.706l-0.789-0.79c-0.183-0.183-0.48-0.184-0.663-0.001-0.085 0.085-0.138 0.202-0.138 0.332s0.052 0.246 0.137 0.331v0zM8.709 17.522h-1.671c0.074-0.454 0.348-0.841 0.727-1.069 0.224 0.298 0.511 0.538 0.841 0.702l0.014 0.006c0.028 0.147 0.059 0.268 0.096 0.387l-0.007-0.026zM3.978 2.602h3.499v1.94h-3.499v-1.94zM6.83 5.48v0.981h-2.204v-0.981h2.204zM2.456 10.574h3.044c0.259 0 0.469-0.21 0.469-0.469v0c0-0.259-0.21-0.469-0.469-0.469v0h-3.044v-0.963c0-0.703 0.57-1.275 1.271-1.275h4.002c0.701 0 1.271 0.572 1.271 1.275v0.963h-0.875c-0.259 0-0.469 0.21-0.469 0.469v0c0 0.259 0.21 0.469 0.469 0.469v0h0.875v0.416c-0.537 0.527-0.816 1.299-0.678 2.093l0.001 0.005c-0.752 0.516-1.153 1.433-0.993 2.354 0.009 0.054 0.021 0.107 0.034 0.159-0.241 0.135-0.447 0.298-0.623 0.489l-0.002 0.002h-4.283v-5.518zM2.456 17.029h3.738c-0.047 0.142-0.083 0.309-0.101 0.482l-0.001 0.011h-0.079c-0.431 0-0.782 0.351-0.782 0.783 0 0.744 0.069 1.475 0.203 2.19-0.124-0.011-0.268-0.017-0.413-0.017h-0c-0.567 0-1.107 0.090-1.521 0.253-0.633 0.25-0.808 0.605-0.846 0.85-0.095 0.047-0.16 0.082-0.224 0.118l0.026-0.013v-4.657zM8.392 22.788c0.169 0.135 0.272 0.25 0.332 0.333l-0.017 0c-0.265 0-0.742-0.107-1.284-0.407-0.202-0.112-0.388-0.238-0.538-0.365-0.081-0.069-0.187-0.111-0.303-0.111s-0.222 0.042-0.304 0.112l0.001-0.001c-0.15 0.127-0.336 0.253-0.537 0.365-0.542 0.3-1.019 0.407-1.284 0.407l-0.018-0c0.060-0.083 0.163-0.198 0.332-0.333 0.108-0.087 0.176-0.218 0.176-0.366 0-0.24-0.18-0.437-0.412-0.465l-0.002-0c-0.457-0.054-0.747-0.17-0.882-0.255 0.17-0.106 0.599-0.286 1.371-0.286 0.639 0 1.107 0.134 1.331 0.26 0.066 0.038 0.145 0.060 0.23 0.060s0.163-0.022 0.232-0.061l-0.002 0.001c0.224-0.126 0.692-0.26 1.331-0.26 0.772 0 1.201 0.18 1.371 0.286-0.135 0.085-0.425 0.201-0.882 0.255-0.19 0.023-0.343 0.156-0.395 0.333l-0.001 0.003c-0.012 0.039-0.018 0.083-0.018 0.129 0 0.148 0.068 0.279 0.175 0.365l0.001 0.001zM7.454 28.493l0.016 0.087c0.059 0.31 0.177 0.585 0.342 0.825l-0.005-0.007h-2.788c-2.251 0-4.082-1.666-4.082-3.715 0-1.4 0.856-2.621 2.115-3.254 0.145 0.108 0.325 0.201 0.539 0.276-0.085 0.145-0.144 0.301-0.158 0.463-0.018 0.216 0.048 0.421 0.186 0.578 0.183 0.207 0.465 0.312 0.836 0.312 0.495 0 1.145-0.196 1.738-0.524 0.154-0.085 0.28-0.164 0.402-0.249l-0.015 0.010c0.107 0.075 0.233 0.154 0.363 0.227l0.023 0.012c0.593 0.328 1.243 0.524 1.738 0.524h0c0.371 0 0.653-0.105 0.836-0.312 0.139-0.157 0.205-0.362 0.186-0.578-0.014-0.163-0.073-0.318-0.158-0.463 0.214-0.075 0.394-0.168 0.539-0.276 0.999 0.502 1.743 1.374 2.009 2.412l-3.315 1.259c-0.97 0.369-1.538 1.375-1.349 2.393zM24.714 28.957c-0.224 0.267-0.558 0.436-0.931 0.436-0.001 0-0.001 0-0.002 0l-0.492 0-0.307-1.66c-0.042-0.22-0.232-0.383-0.461-0.383-0.030 0-0.060 0.003-0.088 0.008l0.003-0c-0.22 0.042-0.383 0.232-0.383 0.461 0 0.030 0.003 0.060 0.008 0.088l-0-0.003 0.276 1.489-1.613 0.001-0.208-1.122c-0.042-0.22-0.232-0.383-0.461-0.383-0.259 0-0.469 0.21-0.469 0.469 0 0.030 0.003 0.060 0.008 0.088l-0-0.003 0.176 0.952-3.752 0.001-0.282-1.524c-0.042-0.22-0.232-0.383-0.461-0.383-0.259 0-0.469 0.21-0.469 0.469 0 0.030 0.003 0.060 0.008 0.088l-0-0.003 0.251 1.354-5.478 0.002c-0.586 0-1.088-0.416-1.194-0.988l-0.016-0.087c-0.106-0.572 0.214-1.138 0.761-1.346l1.842-0.7 0.137 0.741c0.042 0.22 0.232 0.383 0.461 0.383 0.030 0 0.060-0.003 0.088-0.008l-0.003 0c0.22-0.042 0.383-0.232 0.383-0.461 0-0.030-0.003-0.060-0.008-0.088l0 0.003-0.168-0.908 2.735-1.039c0.178-0.069 0.302-0.239 0.302-0.438 0-0.259-0.21-0.469-0.469-0.469-0.060 0-0.117 0.011-0.17 0.032l0.003-0.001-1.273 0.483c-0.357-1.264-1.274-2.32-2.49-2.925-0.038-0.245-0.213-0.6-0.846-0.85-0.414-0.163-0.954-0.253-1.521-0.253-0.39 0-0.763 0.043-1.092 0.122v-0.283c0-0.259-0.21-0.469-0.469-0.469v0c-0 0-0 0-0 0-0.11 0-0.211 0.038-0.29 0.101l0.001-0.001c-0.071-0.442-0.115-0.957-0.122-1.481l-0-0.008h15.268c0.259 0 0.469-0.21 0.469-0.469v0c0-0.259-0.21-0.469-0.469-0.469v0h-0.192c0.295-0.593 0.467-1.291 0.467-2.029 0-0.001 0-0.002 0-0.004v0c0-0.414-0.316-0.754-0.72-0.793 0.171-0.162 0.389-0.276 0.631-0.319l0.007-0.001c0.072-0.012 0.144-0.019 0.216-0.019 0.001 0 0.001 0 0.002 0 0.61 0 1.117 0.441 1.22 1.022l0.001 0.007c0.012 0.069 0.018 0.14 0.018 0.212 0 0.244 0.187 0.445 0.426 0.466l0.002 0c0.56 0.049 1.018 0.471 1.115 1.024 0.011 0.062 0.018 0.134 0.018 0.207 0 0.080-0.008 0.157-0.022 0.233l0.001-0.008h-0.503c-0.259 0-0.469 0.21-0.469 0.469v0c0 0.259 0.21 0.469 0.469 0.469v0h3.643c-0.012 0.86-0.122 1.7-0.329 2.515l-2.54 1.5c-0.162-0.552-0.525-1.002-1.003-1.272l-0.011-0.006c-0.303-0.173-0.666-0.275-1.053-0.275-0.276 0-0.539 0.052-0.781 0.146l0.015-0.005-5.232 1.988c-0.178 0.069-0.302 0.239-0.302 0.438 0 0.259 0.21 0.469 0.469 0.469 0.060 0 0.117-0.011 0.17-0.032l-0.003 0.001 0.689-0.262 0.214 1.155c0.042 0.22 0.232 0.383 0.461 0.383 0.030 0 0.060-0.003 0.088-0.008l-0.003 0c0.22-0.042 0.383-0.232 0.383-0.461 0-0.030-0.003-0.060-0.008-0.088l0 0.003-0.245-1.323 3.652-1.387c0.129-0.051 0.278-0.080 0.434-0.080 0.219 0 0.424 0.058 0.601 0.159l-0.006-0.003c0.309 0.174 0.53 0.473 0.597 0.826l0.001 0.008 0.948 5.12c0.013 0.066 0.020 0.142 0.020 0.219 0 0.294-0.106 0.564-0.282 0.772l0.001-0.002zM26.386 25.287c-0.22 0.042-0.384 0.232-0.384 0.461 0 0.222 0.154 0.407 0.361 0.456l0.003 0.001 3.49 0.8-0.087 0.585-4.046-0.727-0.632-3.415 3.524-2.080 0.294 0.52-2.972 1.987c-0.126 0.085-0.208 0.228-0.208 0.39 0 0.259 0.21 0.469 0.469 0.469 0.030 0 0.059-0.003 0.088-0.008l-0.003 0 4.669-0.858 0.104 0.561-4.668 0.858z"></path>
</svg>
