<!-- Generated by IcoMoon.io -->
<svg version="1.1" xmlns="http://www.w3.org/2000/svg" width="32" height="32" viewBox="0 0 32 32">
<title>fruit</title>
<path fill="#fff" d="M20.799 6.911l1.067-0.006 0.006 1.067-1.067 0.006z"></path>
<path fill="#fff" d="M31.467 17.025h-7.572l0.64-9.564c0.001-0.010 0.001-0.022 0.001-0.034 0-0.142-0.055-0.271-0.145-0.367l0 0c-0.101-0.099-0.237-0.162-0.389-0.167l-0.001-0-1.067 0.006 0.005 1.067h0.494l-0.127 1.908-1.546 0.858c-0.82 0.461-1.801 0.733-2.845 0.733-0.862 0-1.681-0.185-2.418-0.518l0.037 0.015v-2.963l3.202-0.017-0.005-1.067-3.195 0.017v-2.412l5.619-3.573-0.573-0.903-5.866 3.733c-0.149 0.096-0.247 0.262-0.247 0.45 0 0 0 0 0 0v0 2.71l-7.463 0.038c-0.293 0.002-0.53 0.24-0.53 0.533 0 0.013 0 0.025 0.001 0.037l-0-0.002 0.594 8.9c-0.287 0.509-0.54 1.1-0.73 1.719l-0.017 0.064c-0.924-1.63-2.646-2.712-4.621-2.714h-0c-0.295 0-0.533 0.239-0.533 0.533v0c0 0.001 0 0.003 0 0.004 0 1.082 0.327 2.088 0.887 2.925l-0.012-0.019c-0.244 0.121-0.454 0.264-0.643 0.43l0.003-0.003-0.155 0.137c-1.881 1.653-2.668 4.226-2.032 6.648l0.326 1.259c0.428 1.618 1.408 2.961 2.723 3.846l0.024 0.015c0.584 0.397 1.306 0.634 2.082 0.634 0.675 0 1.308-0.179 1.854-0.492l-0.018 0.010-0.030-0.053c0.906 0.279 1.955 0.465 3.039 0.517l0.030 0.001c0.107 0.005 0.213 0.005 0.324 0.007v0.044h7.032c7.945 0.007 14.391-6.428 14.398-14.373v-0.026c0-0.295-0.239-0.533-0.533-0.533v0zM23.691 18.382v-0.291h5.311c-0.205 4.323-2.833 8.16-6.79 9.915-0.902 0.41-1.948 0.715-3.044 0.863l-0.058 0.006c0.794-0.694 1.487-1.474 2.073-2.332l0.027-0.042c1.554-2.269 2.481-5.073 2.481-8.094 0-0.009 0-0.018-0-0.027v0.001zM15.469 8.003v2.578c-0.556-0.16-1.196-0.253-1.856-0.253-1.23 0-2.385 0.32-3.387 0.88l0.035-0.018-1.42 0.789-0.262-3.941 6.89-0.035zM9.679 15.928l0.065-0.084-0.681-0.525-0.145-2.16 1.857-1.035c0.821-0.462 1.803-0.735 2.848-0.735 0.878 0 1.71 0.192 2.459 0.537l-0.037-0.015c0.842 0.39 1.827 0.618 2.865 0.618 1.235 0 2.394-0.322 3.399-0.887l-0.035 0.018 0.942-0.523-0.239 3.586c-0.112-0.087-0.239-0.163-0.376-0.222l-0.011-0.004-0.797-0.332c-0.173-0.074-0.374-0.118-0.585-0.118-0.267 0-0.518 0.069-0.736 0.191l0.008-0.004c-0.408 0.226-0.698 0.621-0.779 1.088l-0.001 0.009c-0.599 3.387-2.337 6.291-4.797 8.367l-0.021 0.017c-0.2-1.68-1.004-3.143-2.186-4.188l-0.007-0.006-0.155-0.137c-1.076-0.958-2.693-0.981-3.796-0.053l-0.671 0.56c0.181-1.513 0.759-2.864 1.626-3.979l-0.014 0.018zM6.898 20.241c-1.883-0.259-3.363-1.74-3.623-3.622 1.882 0.26 3.362 1.74 3.623 3.622zM3.881 30.401c-1.123-0.756-1.946-1.883-2.297-3.202l-0.009-0.039-0.326-1.259c-0.534-2.034 0.128-4.196 1.709-5.583l0.155-0.137c0.182-0.156 0.397-0.278 0.634-0.354l0.013-0.004c0.953 0.94 2.262 1.52 3.706 1.52 0.001 0 0.003 0 0.004 0h-0c0.037-0.004 0.071-0.011 0.104-0.021l-0.004 0.001c0.317-0.021 0.602-0.141 0.83-0.329l-0.002 0.002 1.021-0.853c0.7-0.588 1.726-0.574 2.408 0.035l0.155 0.137c1.155 1.021 1.879 2.506 1.879 4.159 0 0.003 0 0.006 0 0.008v-0c-1.971 1.398-4.377 2.309-6.982 2.511l-0.048 0.003-2.362 0.178c-0.277 0.021-0.493 0.251-0.493 0.532 0 0.001 0 0.001 0 0.002v-0 1.943c0.001 0.196 0.107 0.367 0.264 0.459l0.003 0.001 0.074 0.044c0.367 0.219 0.81 0.447 1.267 0.649l0.083 0.033c-0.089 0.010-0.192 0.016-0.296 0.016-0.555 0-1.071-0.169-1.499-0.458l0.010 0.006zM10.296 30.84l-0.001 0.001c-1.942-0.095-3.738-0.639-5.312-1.53l0.059 0.031v-1.14l1.866-0.141c6.943-0.52 12.645-5.689 13.841-12.548 0.025-0.149 0.115-0.273 0.24-0.343l0.002-0.001c0.062-0.035 0.137-0.056 0.216-0.056 0.063 0 0.122 0.013 0.177 0.036l-0.003-0.001 0.797 0.333c0.262 0.111 0.442 0.365 0.442 0.662 0 0.001 0 0.001 0 0.002v-0 2.24c0 0.007 0 0.015 0 0.024 0 2.799-0.859 5.397-2.328 7.546l0.030-0.046c-2.243 3.293-6.050 5.166-10.028 4.933zM17.602 30.89h-1.7c0.66-0.286 1.218-0.586 1.749-0.925l-0.049 0.029v0.050c0.007 0 0.015 0 0.023 0 1.817 0 3.542-0.392 5.096-1.095l-0.078 0.032c4.342-1.925 7.219-6.144 7.425-10.889h0.855c-0.279 7.153-6.163 12.806-13.321 12.798z"></path>
<path fill="#fff" d="M24.534 19.158h1.067v1.067h-1.067zM22.934 24.491h1.067v1.067h-1.067zM24.534 22.358h1.067v1.067h-1.067z"></path>
</svg>
