<!-- Generated by IcoMoon.io -->
<svg version="1.1" xmlns="http://www.w3.org/2000/svg" width="32" height="32" viewBox="0 0 32 32">
<title>grapes-and-pear-on-a-platter</title>
<path fill="#fff" d="M13.301 18.101c0.032 0.082 0.062 0.165 0.087 0.251 0.026 0.084 0.051 0.193 0.071 0.303l0.003 0.019h0.645c-0.047-0.133-0.101-0.322-0.149-0.514l-0.011-0.051c-0.020-0.085-0.033-0.172-0.050-0.258-0.010-0.040-0.026-0.131-0.041-0.223l-0.006-0.045c-0.078-0.501-0.104-1.009-0.068-1.52-0.407 0.371-0.917 0.632-1.49 0.731 0.376 0.277 0.679 0.632 0.889 1.041l0.008 0.017c0.032 0.062 0.070 0.144 0.104 0.228l0.008 0.021zM11.353 16.891c-0.081-0.029-0.165-0.052-0.25-0.072-0.004 0.022-0.006 0.044-0.011 0.066-0.047 0.225-0.113 0.423-0.197 0.61l0.008-0.019c-0.21 0.477-0.543 0.889-0.96 1.199h2.976c-0.019-0.087-0.039-0.171-0.066-0.254-0.030-0.092-0.064-0.181-0.104-0.268-0.28-0.589-0.774-1.039-1.378-1.256l-0.017-0.005zM11.074 15.607c0.030 0.132 0.056 0.266 0.068 0.404 0.007 0.073 0.007 0.145 0.009 0.217 0.002 0.001 0.003 0.001 0.004 0.001 0.084 0.022 0.169 0.041 0.256 0.054 0.193 0.029 0.392 0.042 0.596 0.023 0.845-0.078 1.551-0.578 1.929-1.273 0.042-0.183 0.084-0.366 0.143-0.548 0.011-0.033 0.024-0.064 0.035-0.097 0.044-0.132 0.075-0.215 0.108-0.298l-0.016 0.046c0.005-0.014 0.009-0.027 0.015-0.040 0.007-0.075 0.002-0.153 0.002-0.229s0.009-0.15 0.002-0.228c-0.062-0.678-0.396-1.262-0.882-1.663-0.454 0.392-1.026 0.652-1.667 0.711-0.093 0.008-0.185 0.013-0.275 0.013-0.335 0-0.653-0.064-0.953-0.165-0.002 0.511-0.124 1.006-0.375 1.447 0.493 0.406 0.851 0.971 1.001 1.624zM7.618 18.662c0.019 0.005 0.039 0.008 0.059 0.013h0.983c0.982-0.198 1.727-0.968 1.914-1.925 0.010-0.052 0.026-0.101 0.033-0.154 0.004-0.032 0.006-0.064 0.009-0.097 0.006-0.064 0.001-0.13 0.002-0.194 0-0.027 0.002-0.053 0.001-0.080-0.002-0.056 0.007-0.11 0.002-0.166-0.001-0.013-0.005-0.024-0.007-0.036-0.069-0.647-0.381-1.207-0.84-1.601v0.001c-0.086 0.104-0.187 0.191-0.285 0.281-0.068 0.062-0.134 0.125-0.207 0.18s-0.149 0.101-0.226 0.149c-0.39 0.244-0.827 0.407-1.299 0.45-0.093 0.008-0.185 0.013-0.275 0.013-0.077 0-0.15-0.015-0.225-0.021 0.010 0.065 0.021 0.129 0.028 0.194 0.082 0.899-0.247 1.742-0.832 2.344 0.311 0.313 0.707 0.541 1.151 0.645l0.016 0.003zM10.385 11.863c0.007 0.033 0.016 0.064 0.023 0.097 0.37 0.165 0.783 0.249 1.22 0.207 0.471-0.044 0.895-0.224 1.247-0.49 0.077-0.058 0.147-0.123 0.217-0.189 0.066-0.063 0.136-0.123 0.194-0.193 0.403-0.483 0.621-1.119 0.559-1.793-0.117-1.27-1.165-2.227-2.438-2.227-0.076 0-0.15 0.003-0.227 0.011-1.341 0.123-2.332 1.31-2.217 2.651 0.561 0.324 0.997 0.809 1.251 1.393l0.007 0.019c0.028 0.062 0.059 0.146 0.087 0.231l0.006 0.021c0.028 0.087 0.051 0.176 0.072 0.265zM6.698 15.381c-0.024-0.102-0.055-0.2-0.091-0.297-0.045-0.12-0.095-0.236-0.157-0.346-0.021-0.037-0.045-0.073-0.068-0.109-0.048-0.076-0.095-0.15-0.151-0.22-0.057-0.071-0.119-0.136-0.183-0.2-0.197-0.197-0.428-0.36-0.684-0.479l-0.015-0.006c-0.111-0.051-0.225-0.092-0.344-0.126-0.103-0.030-0.206-0.056-0.314-0.072-0.121-0.018-0.243-0.035-0.37-0.035-0.076 0-0.151 0.004-0.228 0.011-0.652 0.060-1.242 0.37-1.661 0.874s-0.616 1.14-0.556 1.792c0.124 1.345 1.299 2.348 2.666 2.218 0.439-0.040 0.834-0.203 1.171-0.44 0.074-0.052 0.147-0.103 0.214-0.163s0.127-0.12 0.185-0.184l0.002-0.002c0.453-0.492 0.71-1.161 0.644-1.878-0.010-0.117-0.036-0.227-0.062-0.338zM0.464 7.304c1.908 0.599 3.748 1.518 4.816 3.225 0.048 0.077 0.091 0.159 0.135 0.24 0.047 0.083 0.098 0.163 0.141 0.25-0.37 0.475-0.573 1.082-0.513 1.727 0.011 0.113 0.038 0.22 0.063 0.328 0.519 0.14 0.983 0.414 1.348 0.79 0.061 0.063 0.12 0.129 0.176 0.197l0.004 0.006c0.050 0.061 0.101 0.13 0.149 0.201l0.006 0.010c0.137 0.204 0.246 0.427 0.33 0.664 0.191 0.028 0.386 0.040 0.588 0.020 0.434-0.040 0.835-0.2 1.182-0.444 0.087-0.061 0.163-0.122 0.235-0.188l-0.002 0.002c0.072-0.066 0.144-0.132 0.208-0.206 0.005-0.005 0.010-0.009 0.015-0.014 0.007-0.008 0.017-0.015 0.024-0.024 0.047-0.056 0.080-0.12 0.121-0.179 0.051-0.073 0.108-0.143 0.15-0.221 0.228-0.419 0.328-0.897 0.285-1.383 0-0.003 0.001-0.006 0-0.009-0.001-0.008-0.004-0.015-0.004-0.023-0.011-0.106-0.035-0.208-0.058-0.31-0.002-0.007-0.002-0.014-0.004-0.021-0.021-0.090-0.049-0.176-0.081-0.262-0.024-0.067-0.047-0.133-0.077-0.197-0.132-0.283-0.306-0.524-0.516-0.727l-0.001-0.001c-0.122-0.117-0.252-0.225-0.395-0.316-0.094-0.059-0.196-0.105-0.297-0.15-0.308-0.138-0.646-0.222-1.006-0.222-0.076 0-0.151 0.004-0.228 0.011-0.254 0.024-0.491 0.095-0.715 0.189-0.043-0.078-0.089-0.152-0.134-0.228-0.047-0.079-0.093-0.159-0.142-0.234-1.276-1.956-3.334-3.001-5.59-3.709-0.752-0.237-0.957 0.972-0.215 1.205z"></path>
<path fill="#fff" d="M4.003 9.548c-2.509-2.548-3.89 3.187-3.89 3.187 1.674 0.923 6.399-0.639 3.89-3.187zM31.405 3.461c-2.129 0.184-4.167 0.655-5.817 1.866-0.139 0.103-0.256 0.196-0.37 0.293l0.011-0.009c-0.13 0.109-0.244 0.212-0.356 0.318l0.003-0.003c-0.262-0.066-0.526-0.107-0.788-0.107-1.493 0-2.91 1.027-3.418 2.616-0.027 0.084-0.047 0.169-0.068 0.253-0.133 0.394-0.506 1.161-1.501 1.66-1.385 0.694-2.103 1.37-2.103 1.37l0.003 0.002c-0.832 0.619-1.504 1.432-1.936 2.4-0.024 0.049-0.060 0.132-0.094 0.216l-0.013 0.036c-0.017 0.037-0.047 0.117-0.075 0.199l-0.014 0.045c-0.013 0.037-0.028 0.073-0.040 0.111-0.291 0.912-0.344 1.846-0.202 2.75 0.014 0.089 0.030 0.177 0.047 0.265 0.018 0.090 0.035 0.179 0.057 0.268 0.056 0.225 0.126 0.447 0.206 0.666h13.514c0.278-1.118 0.217-2.259-0.125-3.325l0.005 0.001s-0.159-0.964-0.884-2.333c-0.574-1.084-0.369-2.004-0.258-2.341 0.017-0.047 0.037-0.091 0.052-0.139 0.031-0.091 0.065-0.213 0.093-0.337l0.005-0.027c-0.705-0.463-1.271-1.072-1.472-1.751-0.119-0.402-0.177-1.080 0.372-1.787-0.038-0.034-0.080-0.065-0.12-0.098 0.091-0.075 0.195-0.155 0.302-0.232l0.018-0.013c0.089-0.065 0.201-0.14 0.315-0.212l0.028-0.016c0.060-0.037 0.122-0.071 0.183-0.106 0.052-0.037 0.102-0.074 0.158-0.111 0.385-0.25 0.758-0.407 1.113-0.47 0.987-0.349 2.053-0.529 3.117-0.62 0.822-0.070 0.887-1.367 0.054-1.295z"></path>
<path fill="#fff" d="M28.582 5.87c-0.336 0-0.724 0.125-1.174 0.417-0.098 0.064-0.179 0.121-0.257 0.18l0.011-0.008c-0.109 0.083-0.206 0.168-0.297 0.258l0-0c-0.101 0.099-0.19 0.198-0.261 0.298-0.665 0.928-0.121 1.889 0.812 2.575 0.106 0.079 0.228 0.161 0.355 0.238l0.021 0.012c0.092 0.057 0.212 0.123 0.334 0.186l0.032 0.015c0.64 0.317 1.346 0.51 1.946 0.51 0.216 0 0.417-0.025 0.596-0.078 0-0-0.084-4.602-2.117-4.602zM17.334 19.199h-14.651c0 7.545 6.116 9.343 13.661 9.343s13.661-1.798 13.661-9.343h-12.671z"></path>
</svg>
