<!-- Generated by IcoMoon.io -->
<svg version="1.1" xmlns="http://www.w3.org/2000/svg" width="32" height="32" viewBox="0 0 32 32">
<title>heart</title>
<path d="M31.998 3.423c-0-0.004-0-0.009-0.001-0.013-0.001-0.011-0.003-0.022-0.005-0.033-0.001-0.005-0.001-0.011-0.003-0.016-0.002-0.009-0.004-0.018-0.007-0.027-0.002-0.007-0.003-0.014-0.006-0.022s-0.005-0.014-0.007-0.020c-0.003-0.009-0.006-0.018-0.010-0.027-0.002-0.005-0.004-0.009-0.006-0.014-0.005-0.011-0.009-0.021-0.015-0.031-0.002-0.003-0.004-0.006-0.006-0.010-0.008-0.014-0.014-0.025-0.021-0.035l0.001 0.002c-0.003-0.004-0.006-0.008-0.009-0.013-0.007-0.010-0.014-0.019-0.021-0.028-0.011-0.013-0.022-0.025-0.033-0.037l0 0-0.001-0.001c-0.002-0.002-0.004-0.004-0.006-0.006-0.010-0.009-0.020-0.019-0.030-0.027l-0.001-0.001c-0.004-0.004-0.009-0.007-0.013-0.010-0.009-0.007-0.018-0.014-0.027-0.020-0.006-0.004-0.012-0.008-0.018-0.011-0.008-0.005-0.016-0.010-0.024-0.014s-0.016-0.008-0.024-0.011c-0.007-0.003-0.014-0.007-0.021-0.010-0.010-0.004-0.020-0.007-0.030-0.011-0.006-0.002-0.012-0.004-0.018-0.006-0.009-0.003-0.022-0.006-0.035-0.009l-0.004-0.001c-0.003-0.001-0.007-0.002-0.010-0.003l-0.002-0-0.001-0-2.080-0.416-0.416-2.083c-0.001-0.003-0.002-0.006-0.002-0.008-0.004-0.017-0.007-0.031-0.011-0.044l0.001 0.003c-0.002-0.006-0.004-0.011-0.006-0.016-0.004-0.010-0.007-0.021-0.011-0.031-0.003-0.007-0.006-0.014-0.010-0.021-0.004-0.008-0.008-0.017-0.012-0.025s-0.009-0.016-0.014-0.024c-0.004-0.006-0.008-0.013-0.012-0.019-0.006-0.009-0.013-0.018-0.020-0.027-0.004-0.005-0.007-0.009-0.011-0.014-0.009-0.011-0.018-0.021-0.027-0.030l0 0c-0.002-0.002-0.004-0.005-0.006-0.007l-0.001-0.001c-0.010-0.010-0.020-0.019-0.030-0.027l-0.001-0.001c-0.037-0.032-0.079-0.058-0.125-0.079l-0.003-0.001c-0.002-0.001-0.003-0.002-0.005-0.002-0.008-0.004-0.020-0.008-0.032-0.012l-0.004-0.001c-0.004-0.001-0.008-0.003-0.012-0.004-0.010-0.003-0.020-0.005-0.031-0.008-0.006-0.002-0.012-0.003-0.018-0.004-0.009-0.002-0.017-0.003-0.026-0.004s-0.016-0.003-0.024-0.003c-0.008-0.001-0.017-0.001-0.025-0.001s-0.017-0.001-0.025-0.001c-0.015 0-0.030 0.001-0.045 0.002l0.002-0c-0.002 0-0.005 0-0.007 0-0.020 0.002-0.037 0.005-0.054 0.008l0.003-0.001-0.001 0c-0.003 0.001-0.006 0.002-0.009 0.002-0.017 0.004-0.030 0.007-0.044 0.011l0.004-0.001c-0.006 0.002-0.011 0.004-0.017 0.006-0.014 0.004-0.024 0.008-0.034 0.012l0.003-0.001c-0.007 0.003-0.014 0.006-0.021 0.010-0.008 0.004-0.017 0.008-0.025 0.012s-0.016 0.009-0.024 0.014c-0.006 0.004-0.013 0.008-0.019 0.012-0.009 0.006-0.018 0.013-0.026 0.019-0.005 0.004-0.009 0.007-0.014 0.011-0.011 0.009-0.021 0.018-0.030 0.027l0-0c-0.003 0.002-0.005 0.004-0.008 0.007l-0.001 0.001-4.269 4.269c-0.020 0.020-0.039 0.043-0.055 0.066l-0.001 0.002c-0.002 0.003-0.005 0.006-0.007 0.010-0.006 0.009-0.013 0.020-0.019 0.031l-0.001 0.003c-0.002 0.003-0.004 0.006-0.006 0.009-0.004 0.008-0.009 0.018-0.014 0.029l-0.001 0.003c-0.002 0.005-0.005 0.009-0.006 0.014-0.004 0.009-0.007 0.018-0.010 0.027-0.002 0.007-0.005 0.013-0.007 0.020s-0.004 0.015-0.006 0.022c-0.002 0.009-0.005 0.018-0.007 0.027-0.001 0.005-0.002 0.011-0.003 0.016-0.002 0.011-0.004 0.022-0.005 0.033-0 0.004-0 0.008-0.001 0.012-0.001 0.011-0.002 0.024-0.002 0.037v0c0 0.006 0.001 0.013 0.001 0.019 0 0.010 0 0.020 0.001 0.030 0.002 0.017 0.004 0.034 0.008 0.051l0 0.001 0.43 2.149-1.637 1.637c-1.215-0.799-2.637-1.229-4.125-1.229-1.843 0-3.585 0.658-4.958 1.864-1.372-1.206-3.114-1.864-4.958-1.864-2.010 0-3.899 0.783-5.321 2.204s-2.204 3.311-2.204 5.32 0.783 3.899 2.204 5.32l3.827 3.828-3.657 3.657-1.088-1.088c-0.003-0.003-0.006-0.006-0.009-0.009-0.007-0.007-0.015-0.014-0.023-0.021l-0.001-0.001c-0.005-0.005-0.011-0.009-0.017-0.013-0.019-0.015-0.040-0.029-0.063-0.042l-0.002-0.001c-0.021-0.012-0.045-0.023-0.071-0.033l-0.004-0.001c-0.004-0.001-0.007-0.003-0.011-0.004-0.002-0.001-0.004-0.001-0.006-0.002-0.006-0.002-0.016-0.005-0.026-0.007l-0.004-0.001c-0.007-0.002-0.014-0.004-0.021-0.005-0.008-0.002-0.016-0.003-0.025-0.004s-0.018-0.003-0.027-0.004c-0.006-0.001-0.012-0.001-0.018-0.001-0.011-0.001-0.022-0.002-0.032-0.002-0.005-0-0.010 0-0.015 0-0.012 0-0.023 0.001-0.035 0.002-0.005 0-0.010 0.001-0.015 0.002-0.011 0.001-0.022 0.003-0.033 0.005-0.006 0.001-0.013 0.003-0.019 0.004-0.009 0.002-0.019 0.004-0.028 0.007s-0.016 0.005-0.024 0.008c-0.007 0.003-0.015 0.005-0.022 0.008-0.009 0.003-0.017 0.008-0.026 0.012-0.006 0.003-0.013 0.006-0.019 0.009-0.008 0.004-0.016 0.009-0.024 0.013-0.007 0.004-0.013 0.008-0.020 0.012s-0.013 0.009-0.020 0.014c-0.009 0.006-0.016 0.012-0.024 0.017l0.001-0.001c-0.005 0.004-0.010 0.009-0.015 0.013-0.009 0.008-0.017 0.015-0.024 0.022l0-0c-0.002 0.002-0.003 0.003-0.005 0.004-0.003 0.003-0.005 0.006-0.008 0.009-0.007 0.008-0.014 0.016-0.021 0.024l-0.001 0.001c-0.004 0.005-0.009 0.011-0.013 0.016-0.010 0.013-0.020 0.027-0.029 0.042l-0.001 0.002c-0.004 0.007-0.008 0.014-0.012 0.021s-0.008 0.015-0.012 0.023l-0.001 0.003c-0.003 0.006-0.006 0.012-0.008 0.018s-0.007 0.017-0.011 0.027l-0.001 0.003c-0.001 0.004-0.003 0.007-0.004 0.011l-1.451 4.353c-0.001 0.004-0.002 0.007-0.003 0.011-0.007 0.022-0.013 0.048-0.017 0.075l-0 0.003c-0.001 0.005-0.002 0.012-0.003 0.020l-0 0.003c-0.001 0.009-0.001 0.017-0.002 0.026-0 0.007-0.001 0.016-0.001 0.024v0c0 0.008 0 0.017 0.001 0.025 0.001 0.018 0.002 0.035 0.005 0.052l-0-0.003c0.004 0.029 0.010 0.055 0.018 0.080l-0.001-0.003c0.001 0.004 0.002 0.008 0.003 0.011 0.001 0.002 0.002 0.004 0.003 0.006 0.008 0.023 0.017 0.045 0.028 0.066 0.002 0.004 0.005 0.008 0.007 0.012 0.010 0.018 0.021 0.036 0.034 0.053 0.002 0.003 0.004 0.007 0.007 0.010 0.014 0.018 0.029 0.035 0.045 0.052 0.004 0.004 0.007 0.007 0.011 0.011 0.017 0.016 0.035 0.031 0.054 0.045l0.002 0.001c0.019 0.013 0.039 0.025 0.059 0.036s0.045 0.022 0.071 0.031l0.004 0.001c0.001 0 0.002 0 0.003 0.001 0.022 0.007 0.044 0.012 0.067 0.017 0.004 0.001 0.008 0.002 0.012 0.003 0.026 0.004 0.053 0.006 0.081 0.006h0c0.027 0 0.054-0.002 0.080-0.006 0.004-0.001 0.008-0.002 0.013-0.003 0.026-0.005 0.048-0.010 0.070-0.017l-0.004 0.001c0.001-0 0.002-0 0.003-0.001l4.353-1.451c0.004-0.001 0.008-0.003 0.012-0.005 0.010-0.004 0.020-0.007 0.029-0.011 0.007-0.003 0.013-0.006 0.020-0.009 0.035-0.017 0.064-0.035 0.092-0.057l-0.001 0.001c0.005-0.004 0.011-0.008 0.016-0.012 0.008-0.007 0.016-0.014 0.024-0.022 0.003-0.003 0.006-0.005 0.009-0.008 0.002-0.002 0.003-0.003 0.005-0.005 0.007-0.007 0.014-0.015 0.020-0.023l0.001-0.001c0.005-0.005 0.009-0.011 0.014-0.016 0.005-0.007 0.010-0.014 0.015-0.021s0.010-0.014 0.015-0.021c0.004-0.006 0.007-0.012 0.010-0.017 0.005-0.009 0.010-0.018 0.015-0.026 0.003-0.005 0.005-0.010 0.007-0.016 0.005-0.010 0.009-0.020 0.013-0.030 0.002-0.006 0.004-0.012 0.006-0.017 0.003-0.009 0.007-0.019 0.010-0.029 0.002-0.008 0.004-0.015 0.006-0.023s0.004-0.016 0.006-0.024c0.002-0.009 0.003-0.019 0.004-0.028 0.001-0.007 0.002-0.013 0.003-0.020 0.001-0.010 0.001-0.021 0.002-0.031 0-0.006 0.001-0.012 0.001-0.018-0-0.010-0.001-0.019-0.001-0.029-0-0.007-0.001-0.014-0.002-0.021-0.001-0.008-0.002-0.016-0.004-0.025-0.002-0.012-0.003-0.021-0.005-0.030l0.001 0.004c-0.001-0.007-0.003-0.013-0.005-0.020-0.003-0.014-0.006-0.024-0.010-0.034l0.001 0.003c-0.001-0.002-0.001-0.004-0.002-0.006-0.001-0.004-0.003-0.007-0.004-0.011-0.005-0.014-0.009-0.024-0.013-0.034l0.001 0.003c-0.003-0.006-0.005-0.012-0.008-0.018-0.006-0.012-0.010-0.021-0.015-0.029l0.001 0.003c-0.004-0.007-0.008-0.014-0.012-0.020s-0.009-0.014-0.014-0.021-0.020-0.028-0.031-0.040l0.001 0.001c-0.007-0.009-0.014-0.016-0.022-0.024l0 0c-0.003-0.003-0.005-0.006-0.008-0.009l-1.088-1.088 3.657-3.657 5.363 5.363c0.093 0.093 0.221 0.15 0.363 0.15s0.27-0.057 0.363-0.15l9.916-9.916c2.934-2.934 2.934-7.707-0-10.641-0.117-0.117-0.239-0.231-0.364-0.34l-0.009-0.008 1.538-1.538 2.15 0.43c0.013 0.002 0.025 0.004 0.038 0.006 0.004 0.001 0.008 0.001 0.012 0.002 0.001 0 0.003 0 0.004 0 0.015 0.001 0.031 0.002 0.046 0.002 0.016 0 0.032-0.001 0.048-0.002l0.004-0.001c0.014-0.002 0.029-0.004 0.043-0.006 0.004-0.001 0.009-0.002 0.013-0.003 0.020-0.004 0.036-0.009 0.052-0.014l-0.003 0.001c0.034-0.011 0.063-0.024 0.091-0.039l-0.003 0.001c0.007-0.004 0.015-0.008 0.022-0.013 0.006-0.004 0.012-0.007 0.018-0.011 0.012-0.008 0.024-0.017 0.036-0.026 0.002-0.002 0.004-0.003 0.006-0.005 0.011-0.009 0.022-0.019 0.032-0.029 0.001-0.001 0.002-0.002 0.003-0.003l4.27-4.27c0.002-0.002 0.004-0.005 0.006-0.007 0.019-0.020 0.037-0.041 0.052-0.063l0.001-0.002c0.003-0.005 0.007-0.009 0.010-0.014 0.004-0.007 0.009-0.015 0.014-0.024l0.001-0.003c0.003-0.005 0.006-0.010 0.009-0.015 0.005-0.009 0.009-0.018 0.013-0.028 0.002-0.005 0.005-0.011 0.007-0.016 0.004-0.010 0.007-0.020 0.010-0.030s0.006-0.021 0.009-0.031c0.002-0.010 0.005-0.019 0.007-0.029l0-0.001c0.003-0.014 0.006-0.031 0.007-0.049l0-0.002c0.001-0.009 0.001-0.018 0.001-0.027 0-0.008 0.001-0.015 0.001-0.023 0-0.012-0.001-0.025-0.002-0.037zM1.324 30.631l0.864-2.592 1.728 1.728-2.592 0.864zM23.076 19.605l-9.553 9.553-9.553-9.553c-1.227-1.227-1.903-2.859-1.903-4.595s0.676-3.368 1.903-4.595c1.228-1.227 2.86-1.903 4.595-1.903s3.368 0.676 4.595 1.903c0.093 0.093 0.221 0.15 0.363 0.15s0.27-0.057 0.363-0.15v0c1.227-1.227 2.859-1.903 4.595-1.903 1.212 0 2.373 0.33 3.381 0.946l-1.259 1.259c-0.076-0.040-0.182-0.089-0.289-0.134l-0.031-0.012c-0.569-0.23-1.175-0.348-1.804-0.349-0.627 0.002-1.233 0.119-1.801 0.349-0.592 0.24-1.124 0.594-1.584 1.053-0.412 0.413-0.983 0.65-1.567 0.651-0.001 0-0.002-0-0.003-0h-0.003c-0.285 0-0.579-0.059-0.848-0.171s-0.519-0.278-0.72-0.48c-0.46-0.459-0.992-0.813-1.584-1.053-0.287-0.12-0.624-0.218-0.974-0.278l-0.028-0.004c-0.025-0.005-0.055-0.007-0.085-0.008h-0c-0 0-0.001 0-0.001 0-0.253 0-0.464 0.184-0.504 0.426l-0 0.003c-0.005 0.026-0.007 0.055-0.007 0.085 0 0.111 0.036 0.215 0.096 0.298l-0.001-0.002c0.078 0.108 0.195 0.184 0.33 0.207l0.003 0c0.296 0.050 0.56 0.127 0.811 0.231l-0.025-0.009c0.464 0.188 0.882 0.467 1.244 0.828 0.302 0.302 0.657 0.538 1.054 0.703 0.393 0.163 0.807 0.247 1.232 0.248 0.004 0 0.007 0.001 0.011 0.001 0.856 0 1.693-0.347 2.297-0.952 0.362-0.361 0.78-0.639 1.244-0.827 0.446-0.181 0.923-0.273 1.415-0.274 0.469 0.001 0.921 0.085 1.346 0.247l-3.929 3.929c-0.095 0.093-0.153 0.223-0.153 0.366 0 0.283 0.23 0.513 0.513 0.513 0.143 0 0.273-0.059 0.366-0.153l4.135-4.135c0.141 0.108 0.267 0.218 0.384 0.335l-0-0c0.361 0.362 0.64 0.78 0.827 1.244 0.181 0.445 0.273 0.923 0.275 1.415-0.002 0.496-0.094 0.973-0.275 1.419-0.188 0.464-0.466 0.883-0.827 1.244l-7.619 7.618-7.619-7.618c-0.36-0.361-0.639-0.78-0.828-1.244-0.18-0.445-0.272-0.921-0.275-1.417 0.003-0.495 0.095-0.973 0.275-1.417 0.188-0.463 0.466-0.882 0.828-1.244s0.78-0.639 1.244-0.828c0.060-0.026 0.147-0.058 0.235-0.087l0.027-0.008c0.269-0.087 0.419-0.376 0.332-0.645-0.068-0.209-0.26-0.357-0.488-0.357-0 0-0 0-0.001 0h0c-0.053 0-0.106 0.008-0.157 0.025-0.146 0.047-0.257 0.088-0.366 0.133l0.032-0.012c-0.591 0.239-1.124 0.594-1.583 1.053-0.46 0.46-0.814 0.992-1.053 1.584-0.23 0.566-0.347 1.172-0.35 1.801v0.003c0.003 0.628 0.12 1.234 0.35 1.8 0.24 0.592 0.594 1.125 1.053 1.583l7.981 7.982c0.025 0.025 0.052 0.046 0.080 0.065 0.003 0.002 0.007 0.004 0.010 0.006 0.011 0.007 0.022 0.014 0.033 0.020 0.005 0.003 0.011 0.005 0.016 0.007 0.010 0.005 0.019 0.010 0.029 0.014 0.007 0.003 0.014 0.005 0.021 0.007 0.009 0.003 0.017 0.006 0.026 0.009 0.010 0.003 0.021 0.005 0.032 0.008 0.005 0.001 0.011 0.003 0.016 0.004 0.030 0.006 0.065 0.010 0.1 0.010s0.070-0.004 0.104-0.010l-0.003 0.001c0.003-0.001 0.007-0.002 0.010-0.002 0.013-0.003 0.025-0.006 0.038-0.009 0.008-0.003 0.017-0.006 0.025-0.009s0.015-0.005 0.022-0.008c0.011-0.004 0.021-0.010 0.032-0.015 0.004-0.002 0.009-0.004 0.013-0.006 0.013-0.007 0.026-0.015 0.039-0.023 0.001-0.001 0.003-0.002 0.004-0.003 0.029-0.019 0.056-0.041 0.080-0.065 0.001-0.001 0.002-0.003 0.004-0.004l7.978-7.978c0.458-0.459 0.812-0.992 1.052-1.583 0.23-0.567 0.348-1.173 0.35-1.804-0.002-0.628-0.12-1.234-0.35-1.801-0.239-0.591-0.594-1.123-1.053-1.583-0.118-0.117-0.241-0.229-0.37-0.334l-0.009-0.007 1.215-1.214c0.135 0.116 0.257 0.229 0.374 0.346l-0-0c2.534 2.534 2.534 6.656 0 9.19zM24.872 4.996l3.398-3.398 0.242 1.209-3.398 3.398-0.242-1.209zM27.049 7.173l-1.209-0.242 3.398-3.398 1.209 0.242-3.398 3.398z"></path>
</svg>
