<!-- Generated by IcoMoon.io -->
<svg version="1.1" xmlns="http://www.w3.org/2000/svg" width="32" height="32" viewBox="0 0 32 32">
<title>parents</title>
<path fill="#fff" d="M10.194 11.476c-0.080-0.065-0.183-0.105-0.295-0.105-0.147 0-0.277 0.067-0.363 0.173l-0.001 0.001c-0.199 0.246-0.464 0.381-0.745 0.381s-0.546-0.135-0.745-0.381c-0.087-0.108-0.219-0.177-0.367-0.177-0.259 0-0.469 0.21-0.469 0.469 0 0.114 0.041 0.218 0.108 0.299l-0.001-0.001c0.375 0.463 0.912 0.728 1.473 0.728s1.098-0.265 1.473-0.728c0.065-0.080 0.105-0.183 0.105-0.295 0-0.147-0.067-0.277-0.173-0.363l-0.001-0.001zM6.57 8.598c-0.259 0-0.469 0.21-0.469 0.469v0 0.555c0 0.259 0.21 0.469 0.469 0.469s0.469-0.21 0.469-0.469v0-0.555c0-0.259-0.21-0.469-0.469-0.469v0zM11.008 8.598c-0.259 0-0.469 0.21-0.469 0.469v0 0.555c0 0.259 0.21 0.469 0.469 0.469s0.469-0.21 0.469-0.469v0-0.555c0-0.259-0.21-0.469-0.469-0.469v0zM4.216 21.615l-1.109-2.219c-0.079-0.155-0.237-0.259-0.419-0.259-0.076 0-0.149 0.018-0.212 0.051l0.003-0.001c-0.155 0.079-0.259 0.237-0.259 0.419 0 0.076 0.018 0.149 0.051 0.212l-0.001-0.003 1.060 2.12v8.764c0 0.259 0.21 0.469 0.469 0.469s0.469-0.21 0.469-0.469v0-8.875c0-0 0-0 0-0 0-0.076-0.018-0.148-0.051-0.212l0.001 0.003zM15.1 19.186c-0.061-0.031-0.133-0.049-0.21-0.049-0.182 0-0.341 0.104-0.418 0.256l-0.001 0.003-1.109 2.219c-0.031 0.061-0.050 0.133-0.050 0.21 0 0 0 0 0 0v0 8.875c0 0.259 0.21 0.469 0.469 0.469s0.469-0.21 0.469-0.469v0-8.764l1.060-2.12c0.031-0.061 0.049-0.133 0.049-0.21 0-0.182-0.104-0.341-0.256-0.418l-0.003-0.001zM25.17 14.249c-0.080-0.065-0.183-0.105-0.295-0.105-0.147 0-0.277 0.067-0.363 0.173l-0.001 0.001c-0.199 0.246-0.464 0.381-0.745 0.381s-0.546-0.135-0.745-0.381c-0.087-0.108-0.219-0.177-0.367-0.177-0.259 0-0.469 0.21-0.469 0.469 0 0.114 0.041 0.218 0.108 0.299l-0.001-0.001c0.375 0.463 0.912 0.728 1.473 0.728s1.098-0.265 1.473-0.728c0.065-0.080 0.105-0.183 0.105-0.295 0-0.147-0.067-0.277-0.173-0.363l-0.001-0.001zM21.547 11.371c-0.259 0-0.469 0.21-0.469 0.469v0 0.555c0 0.259 0.21 0.469 0.469 0.469s0.469-0.21 0.469-0.469v0-0.555c0-0.259-0.21-0.469-0.469-0.469v0zM25.984 11.371c-0.259 0-0.469 0.21-0.469 0.469v0 0.555c0 0.259 0.21 0.469 0.469 0.469s0.469-0.21 0.469-0.469v0-0.555c0-0.259-0.21-0.469-0.469-0.469v0z"></path>
<path fill="#fff" d="M30.659 20.971l-3.803-1.521c-0.238-0.096-0.403-0.325-0.403-0.593 0-0.001 0-0.002 0-0.002v0-1.152c0.283-0.16 0.526-0.327 0.753-0.512l-0.010 0.008c0.952-0.77 1.625-1.848 1.895-3.036 0.086-0.364 0.135-0.782 0.135-1.212 0-0.001 0-0.001 0-0.002v0c0-2.73-1.978-3.123-3.89-3.503-1.223-0.243-2.488-0.494-3.497-1.301-0.079-0.064-0.181-0.102-0.293-0.102-0.036 0-0.070 0.004-0.104 0.011l0.003-0.001c-0.14 0.031-0.255 0.123-0.318 0.245l-0.001 0.003c-0.003 0.005-0.265 0.522-0.709 1.026-0.376 0.426-0.967 0.935-1.645 0.935-0.228 0-0.445 0.049-0.641 0.136v-0.777c0-3.106 2.527-5.633 5.633-5.633s5.633 2.527 5.633 5.633v1.109c0 0.259 0.21 0.469 0.469 0.469s0.469-0.21 0.469-0.469v0-1.109c0-2.457-1.356-4.604-3.359-5.73 0.020-0.123 0.031-0.247 0.031-0.371 0-1.482-1.454-2.688-3.242-2.688s-3.242 1.206-3.242 2.688c0 0.125 0.011 0.249 0.031 0.371-2.003 1.127-3.359 3.273-3.359 5.73v2.219c0 0.712 0.474 1.316 1.124 1.512 0.020 0.274 0.060 0.545 0.121 0.811 0.27 1.188 0.943 2.266 1.895 3.036 0.218 0.177 0.461 0.344 0.717 0.49l0.027 0.014v1.152c0 0.264-0.158 0.497-0.403 0.595l-3.803 1.521c-0.814 0.326-1.341 1.103-1.341 1.98v2.756c0 0.259 0.21 0.469 0.469 0.469h0.086v4.523c0 0.259 0.21 0.469 0.469 0.469s0.469-0.21 0.469-0.469v0-4.523h1.281v4.523c0 0.259 0.21 0.469 0.469 0.469s0.469-0.21 0.469-0.469v0-6.102c0-0.259-0.21-0.469-0.469-0.469s-0.469 0.21-0.469 0.469v0 0.641h-1.836v-2.288c0-0.492 0.295-0.927 0.751-1.11l2.958-1.183c0.393 0.665 1.507 2.314 3.378 3.25 0.061 0.031 0.133 0.049 0.21 0.049s0.149-0.018 0.212-0.051l-0.003 0.001c1.871-0.935 2.985-2.584 3.378-3.25l2.958 1.183c0.456 0.183 0.751 0.618 0.751 1.11v2.288h-1.836v-0.641c0-0.259-0.21-0.469-0.469-0.469s-0.469 0.21-0.469 0.469v0 6.102c0 0.259 0.21 0.469 0.469 0.469s0.469-0.21 0.469-0.469v0-4.523h1.281v4.523c0 0.259 0.21 0.469 0.469 0.469s0.469-0.21 0.469-0.469v0-4.523h0.086c0.259 0 0.469-0.21 0.469-0.469v0-2.756c0-0.877-0.526-1.654-1.341-1.98zM23.766 1.77c1.248 0 2.267 0.757 2.303 1.698-0.717-0.269-1.493-0.417-2.303-0.417s-1.586 0.148-2.303 0.417c0.036-0.941 1.055-1.698 2.303-1.698zM20.924 16.469c-0.789-0.638-1.347-1.531-1.57-2.514-0.071-0.302-0.112-0.648-0.112-1.004 0-0.001 0-0.001 0-0.002v0c0-0.259-0.21-0.469-0.469-0.469v0c-0.353 0-0.641-0.287-0.641-0.641s0.287-0.641 0.641-0.641c1.421 0 2.452-1.287 2.918-2.007 1.093 0.704 2.343 0.952 3.462 1.174 2.060 0.409 3.135 0.71 3.135 2.583 0 0.34-0.038 0.678-0.112 1.006-0.223 0.983-0.781 1.876-1.57 2.514-0.812 0.657-1.795 1.003-2.841 1.003s-2.029-0.347-2.841-1.003zM23.766 22.959c-1.414-0.781-2.324-2.045-2.704-2.656 0.581-0.25 0.954-0.813 0.954-1.449v-0.734c0.561 0.19 1.152 0.29 1.75 0.29s1.189-0.1 1.75-0.29v0.734c0 0.635 0.374 1.199 0.954 1.449-0.381 0.611-1.29 1.875-2.704 2.656z"></path>
<path fill="#fff" d="M16.058 17.137l-3.044-0.913-0.507-0.761c-0.073-0.108-0.187-0.184-0.32-0.204l-0.003-0c-0.020-0.003-0.043-0.005-0.067-0.005-0.031 0-0.061 0.003-0.090 0.009l0.003-0v-0.696c1.243-0.921 2.085-2.355 2.204-3.988 0.649-0.196 1.124-0.799 1.124-1.512 0-0.461-0.207-0.898-0.555-1.195v-3.242c0-0.889-0.45-1.72-1.188-2.219-0.247-0.927-1.078-1.578-2.054-1.578h-4.438c-2.399 0-4.352 1.952-4.352 4.352v2.688c-0.347 0.297-0.555 0.734-0.555 1.195 0 0.712 0.474 1.316 1.124 1.512 0.119 1.633 0.961 3.067 2.204 3.988v0.696c-0.026-0.005-0.056-0.008-0.087-0.008-0.024 0-0.047 0.002-0.069 0.005l0.003-0c-0.135 0.020-0.25 0.096-0.322 0.202l-0.001 0.002-0.507 0.761-3.044 0.913c-0.909 0.273-1.52 1.094-1.52 2.043v11.52c0 0.259 0.21 0.469 0.469 0.469s0.469-0.21 0.469-0.469v0-11.52c0-0.532 0.342-0.992 0.852-1.145l2.094-0.628c0.004 0.104 0.042 0.199 0.103 0.274l-0.001-0.001 1.883 2.354c0.203 0.253 0.499 0.386 0.798 0.386 0.214 0 0.43-0.067 0.615-0.206l1.039-0.779v11.266c0 0.259 0.21 0.469 0.469 0.469s0.469-0.21 0.469-0.469v0-11.266l1.039 0.779c0.169 0.129 0.383 0.206 0.615 0.206h0c0.3 0 0.595-0.132 0.798-0.386l1.883-2.354c0.060-0.074 0.098-0.169 0.102-0.272l0-0.001 2.094 0.628c0.51 0.153 0.852 0.613 0.852 1.145 0 0.259 0.21 0.469 0.469 0.469s0.469-0.21 0.469-0.469v0c0-0.949-0.611-1.77-1.52-2.043zM4.266 10.176c0-0.259-0.21-0.469-0.469-0.469v0c-0.353 0-0.641-0.287-0.641-0.641 0-0.227 0.12-0.433 0.322-0.55 0.010-0.006 0.020-0.013 0.030-0.020 0.084-0.044 0.184-0.070 0.289-0.070h0.655c0.486 0 0.908-0.346 1.004-0.823l0.341-1.705c0.005-0.024 0.017-0.042 0.037-0.054 0.016-0.009 0.041-0.018 0.076-0.008 0.833 0.243 1.829 0.371 2.88 0.371 1.35 0 2.596-0.21 3.509-0.591 0.166-0.075 0.279-0.239 0.279-0.429 0-0.259-0.21-0.469-0.469-0.469-0.062 0-0.121 0.012-0.175 0.034l0.003-0.001c-0.789 0.33-1.937 0.519-3.148 0.519-0.95 0-1.88-0.119-2.618-0.334-0.278-0.081-0.578-0.042-0.824 0.106-0.24 0.148-0.412 0.386-0.469 0.665l-0.001 0.007-0.341 1.705c-0.008 0.040-0.043 0.069-0.084 0.069v0h-0.655c-0.029 0-0.057 0.001-0.086 0.003v-2.308c0-1.883 1.532-3.414 3.414-3.414h4.437c0.588 0 1.082 0.424 1.175 1.008 0.024 0.144 0.11 0.265 0.23 0.334l0.002 0.001c0.553 0.312 0.897 0.893 0.897 1.517v3.482c0 0.172 0.093 0.322 0.231 0.404l0.002 0.001c0.201 0.117 0.322 0.323 0.322 0.55 0 0.353-0.287 0.641-0.641 0.641-0.259 0-0.469 0.21-0.469 0.469v0c0 2.494-2.029 4.523-4.523 4.523s-4.523-2.029-4.523-4.523zM6.719 19.463c-0.014 0.011-0.032 0.017-0.052 0.017-0.027 0-0.051-0.013-0.067-0.032l-0-0-1.669-2.086 0.63-0.945 2.472 2.060-1.314 0.986zM8.789 17.886l-2.305-1.921v-0.84c0.701 0.328 1.482 0.511 2.305 0.511s1.604-0.184 2.305-0.511v0.84l-2.305 1.921zM10.978 19.448c-0.029 0.037-0.081 0.043-0.119 0.015l-1.315-0.986 2.472-2.060 0.63 0.945-1.669 2.086z"></path>
<path fill="#fff" d="M7.131 23.020h-0.006c-0.259 0-0.466 0.21-0.466 0.469s0.213 0.469 0.471 0.469c0 0 0 0 0 0 0.259 0 0.469-0.21 0.469-0.469s-0.21-0.469-0.469-0.469v0zM7.131 27.457h-0.006c-0.259 0-0.466 0.21-0.466 0.469s0.213 0.469 0.471 0.469c0 0 0 0 0 0 0.259 0 0.469-0.21 0.469-0.469s-0.21-0.469-0.469-0.469v0zM7.131 25.238h-0.006c-0.259 0-0.466 0.21-0.466 0.469s0.213 0.469 0.471 0.469c0 0 0 0 0 0 0.259 0 0.469-0.21 0.469-0.469s-0.21-0.469-0.469-0.469v0z"></path>
</svg>
