<!-- Generated by IcoMoon.io -->
<svg version="1.1" xmlns="http://www.w3.org/2000/svg" width="32" height="32" viewBox="0 0 32 32">
<title>photo-album</title>
<path fill="#fff" d="M30.743 6.672v-0.646c0-0.181-0.147-0.328-0.328-0.328v0h-10.84c-0 0-0.001 0-0.001 0-0.519 0-1.014 0.102-1.466 0.286l0.026-0.009c-0.012 0.004-0.024 0.008-0.035 0.014-0.407 0.169-0.758 0.388-1.067 0.654l0.005-0.004h-15.397c-0.904 0-1.64 0.736-1.64 1.64v15.448c0 0.904 0.736 1.64 1.64 1.64h12.782v0.609c0 0.181 0.147 0.328 0.328 0.328v0h2.5c0.181 0 0.328-0.147 0.328-0.328v0-0.609h12.837c0.874 0 1.585-0.711 1.585-1.585v-15.557c0-0.762-0.54-1.4-1.257-1.551zM30.087 6.353v14.389h-10.036c-1.485 0-2.861 0.717-3.726 1.87v-13.009c0-1.185 0.637-2.223 1.587-2.791v10.551c0 0.181 0.147 0.328 0.328 0.328s0.328-0.147 0.328-0.328v0-10.85c0.301-0.102 0.647-0.161 1.007-0.161 0 0 0 0 0.001 0h10.512zM30.087 21.398v2.166h-13.587c0.678-1.313 2.050-2.166 3.551-2.166h10.036zM31.344 23.78c0 0.512-0.417 0.93-0.929 0.93h-13.165c-0.181 0-0.328 0.147-0.328 0.328v0 0.609h-1.844v-0.609c0-0.002-0.001-0.004-0.001-0.006v-0.867c0-0.181-0.147-0.328-0.328-0.328s-0.328 0.147-0.328 0.328v0 0.545h-12.782c-0.542 0-0.984-0.441-0.984-0.984v-15.448c0-0.543 0.441-0.984 0.984-0.984h12.782v14.901c0 0.181 0.147 0.328 0.328 0.328s0.328-0.147 0.328-0.328v0-14.901h1.35c-0.477 0.648-0.759 1.446-0.759 2.31v14.288c0 0.181 0.147 0.328 0.328 0.328 0 0 0 0 0 0v0c0.001 0 0.003-0 0.004-0s0.002 0 0.003 0h14.411c0.181 0 0.328-0.147 0.328-0.328v0-16.538c0.351 0.133 0.601 0.472 0.601 0.869v15.557zM19.894 22.114h9.403c0.181 0 0.328 0.147 0.328 0.328s-0.147 0.328-0.328 0.328v0h-9.403c-0.181 0-0.328-0.147-0.328-0.328s0.147-0.328 0.328-0.328v0zM14.089 23.735c0 0.181-0.147 0.328-0.328 0.328v0h-12.314c-0.181 0-0.328-0.147-0.328-0.328s0.147-0.328 0.328-0.328v0h12.314c0.181 0 0.328 0.147 0.328 0.328v0zM19.686 16.863h4.873c0.181 0 0.328-0.147 0.328-0.328v0-6.717c0-0.181-0.147-0.328-0.328-0.328v0h-4.873c-0.181 0-0.328 0.147-0.328 0.328v0 6.717c0 0 0 0 0 0 0 0.181 0.147 0.328 0.328 0.328v0zM20.014 10.147h4.218v6.061h-4.218v-6.061zM23.631 10.521h-3.015c-0.181 0-0.328 0.147-0.328 0.328v0 4.098c0 0.181 0.147 0.328 0.328 0.328v0h3.015c0.181 0 0.328-0.147 0.328-0.328v0-4.098c0-0.181-0.147-0.328-0.328-0.328v0zM21.771 12.415c0-0.194 0.158-0.352 0.352-0.352s0.352 0.158 0.352 0.352c0 0.194-0.158 0.352-0.352 0.352s-0.352-0.158-0.352-0.352zM21.771 14.618v-0.843c0-0.194 0.158-0.352 0.352-0.352s0.352 0.158 0.352 0.352v0.843h-0.704zM23.303 14.618h-0.171v-0.843c0-0.262-0.101-0.501-0.266-0.68 0.165-0.179 0.266-0.418 0.266-0.68 0-0.556-0.452-1.008-1.008-1.008s-1.008 0.452-1.008 1.008c0 0.262 0.101 0.501 0.266 0.68-0.165 0.179-0.266 0.418-0.266 0.68v0.843h-0.171v-3.442h2.359v3.442zM25.489 13.667h3.541c0.181 0 0.328-0.147 0.328-0.328v0-3.52c0-0.181-0.147-0.328-0.328-0.328v0h-3.541c-0.181 0-0.328 0.147-0.328 0.328v0 3.52c0 0.181 0.147 0.328 0.328 0.328v0zM25.817 12.642l0.877-0.861 0.975 1.23h-1.852v-0.369zM28.506 13.011l-0.613-0.773 0.335-0.442 0.473 0.496v0.719h-0.196zM28.702 10.147v1.195l-0.264-0.277c-0.060-0.063-0.144-0.102-0.237-0.102-0.006 0-0.013 0-0.019 0.001l0.001-0c-0.099 0.006-0.186 0.055-0.242 0.128l-0.001 0.001-0.466 0.614-0.491-0.62c-0.056-0.071-0.141-0.117-0.236-0.124l-0.001-0c-0.006-0-0.014-0.001-0.022-0.001-0.089 0-0.17 0.036-0.229 0.094l0-0-0.677 0.665v-1.576h2.885zM25.489 16.863h3.541c0.181 0 0.328-0.147 0.328-0.328v0-2.239c0-0.181-0.147-0.328-0.328-0.328v0h-3.541c-0.181 0-0.328 0.147-0.328 0.328v0 2.239c0 0.181 0.147 0.328 0.328 0.328v0zM25.817 16.208v-0.431c0.124 0.119 0.296 0.23 0.557 0.23 0.374 0 0.566-0.228 0.693-0.379 0.107-0.127 0.132-0.146 0.192-0.146s0.085 0.019 0.192 0.146c0.127 0.151 0.32 0.379 0.693 0.379 0.261 0 0.434-0.111 0.557-0.23v0.431h-2.885zM28.702 14.625v0.271c-0.171 0.079-0.282 0.21-0.365 0.309-0.107 0.127-0.132 0.146-0.192 0.146s-0.085-0.019-0.192-0.146c-0.127-0.151-0.32-0.379-0.693-0.379s-0.566 0.228-0.693 0.379c-0.107 0.127-0.132 0.146-0.192 0.146s-0.085-0.019-0.192-0.146c-0.083-0.099-0.194-0.23-0.365-0.309v-0.271h2.885z"></path>
</svg>
