<!-- Generated by IcoMoon.io -->
<svg version="1.1" xmlns="http://www.w3.org/2000/svg" width="32" height="32" viewBox="0 0 32 32">
<title>rings</title>
<path fill="#fff" d="M31.666 18.589c-0.608-2.497-2.088-4.702-4.166-6.209-1.978-1.434-4.387-2.16-6.81-2.060-1.117-2.397-3.062-4.292-5.509-5.355-0.054-0.023-0.116-0.036-0.182-0.036-0.262 0-0.474 0.212-0.474 0.474 0 0.191 0.113 0.355 0.275 0.431l0.003 0.001c2.328 1.011 4.158 2.846 5.153 5.164 0.195 0.438 0.375 0.962 0.51 1.503l0.015 0.069c0.023 0.081 0.057 0.232 0.087 0.384l0.011 0.063 0 0c0.475 2.423 0.028 4.922-1.258 7.036-1.216 1.999-3.081 3.489-5.284 4.232-0.098-0.214-0.202-0.484-0.29-0.761l-0.015-0.055c-0.005-0.015-0.009-0.029-0.014-0.044-0.012-0.030-0.038-0.117-0.062-0.204l-0.013-0.055-0.002-0.007c4.143-1.39 6.648-5.704 5.743-10.026v-0c-0.030-0.152-0.052-0.247-0.076-0.341l0.013 0.060c-0.175-0.709-0.409-1.328-0.707-1.91l0.023 0.049-0.002-0.004c-0.003-0.006-0.005-0.010-0.007-0.014l0.001 0.002c-0.87-1.72-2.315-3.121-4.070-3.944-0.841-0.395-1.739-0.649-2.655-0.758l3.368-3.131c0.093-0.087 0.151-0.21 0.151-0.347 0-0.099-0.030-0.19-0.082-0.266l0.001 0.002-0.002-0.003-0-0-1.557-2.319c-0.086-0.127-0.23-0.21-0.394-0.21h-5.047c-0.163 0-0.307 0.083-0.393 0.208l-0.001 0.002-1.56 2.323c-0.050 0.074-0.080 0.166-0.080 0.264 0 0.137 0.058 0.26 0.151 0.347l0 0 3.368 3.131c-0.395 0.048-0.742 0.112-1.081 0.197l0.060-0.013c-4.662 1.136-7.53 5.852-6.395 10.514 0.468 1.922 1.589 3.642 3.156 4.843 1.439 1.104 3.202 1.734 5.001 1.796 0.009 0.037 0.017 0.074 0.026 0.111 0.021 0.087 0.043 0.173 0.067 0.259 0.005 0.020 0.011 0.040 0.017 0.060 0.019 0.069 0.038 0.137 0.058 0.205 0.078 0.268 0.141 0.456 0.208 0.641l-0.025-0.077c-2.086 0.011-4.14-0.643-5.848-1.875-1.906-1.375-3.263-3.392-3.82-5.679-0.556-2.283-0.281-4.694 0.774-6.789 1.044-2.072 2.785-3.717 4.902-4.632 0.167-0.076 0.282-0.241 0.282-0.433 0-0.262-0.212-0.474-0.474-0.474-0.066 0-0.13 0.014-0.187 0.038l0.003-0.001c-2.321 1.003-4.229 2.806-5.372 5.076-1.157 2.296-1.458 4.939-0.849 7.44 0.611 2.506 2.097 4.716 4.187 6.224 1.854 1.338 4.082 2.054 6.346 2.054 0.147 0 0.295-0.004 0.443-0.010 1.78 3.811 5.641 6.253 9.824 6.253 0.847 0 1.707-0.1 2.566-0.309 5.809-1.415 9.384-7.292 7.968-13.101zM20.131 20.547c1.307-2.148 1.822-4.659 1.475-7.131 1.543 0.096 3.047 0.659 4.279 1.613 1.399 1.084 2.36 2.567 2.78 4.291 1.012 4.154-1.544 8.356-5.698 9.368-2.012 0.49-4.095 0.168-5.864-0.909-1.095-0.666-1.989-1.572-2.627-2.642 2.355-0.828 4.349-2.441 5.656-4.59zM13.451 22.223c-0.242-1.726 0.101-3.473 0.994-4.993 0.934-1.591 2.378-2.777 4.101-3.383 0.508 3.634-1.635 7.156-5.095 8.377zM8.597 0.948h4.541l0.92 1.371h-6.382l0.92-1.371zM7.987 3.267h5.76l-2.88 2.677-2.88-2.677zM10.392 22.653c-1.529-0.094-3.019-0.649-4.246-1.59-1.416-1.086-2.388-2.578-2.811-4.315-1.012-4.154 1.544-8.356 5.698-9.368 1.737-0.423 3.509-0.246 5.124 0.512 1.399 0.657 2.576 1.725 3.364 3.039-2.433 0.856-4.468 2.539-5.773 4.79-1.225 2.114-1.693 4.539-1.357 6.931zM23.473 30.769c-0.703 0.179-1.51 0.282-2.342 0.282h-0c-3.937-0-7.563-2.372-9.113-6.040-0.017-0.040-0.034-0.080-0.050-0.121-0.007-0.016-0.013-0.033-0.020-0.049-0.020-0.050-0.040-0.101-0.059-0.152l-0.008-0.023c0 0.008-0.022-0.050-0.043-0.108l-0.022-0.067-0.002-0.006c-0.001 0.004-0.024-0.059-0.046-0.123l-0.020-0.069-0-0.001c-0.002 0.005-0.023-0.060-0.044-0.125l-0.019-0.070-0.004-0.014c0 0.010-0.019-0.051-0.037-0.112l-0.018-0.071c-0.006-0.020-0.011-0.040-0.017-0.060-0.013-0.046-0.026-0.093-0.039-0.139-0.003 0.001-0.020-0.068-0.038-0.136l-0.014-0.068c-0.017-0.069-0.033-0.139-0.048-0.208-0.006-0.027-0.012-0.055-0.018-0.082-0.007-0.032-0.013-0.063-0.020-0.095-0.004-0.021-0.008-0.041-0.013-0.062-0.001-0.003-0.001-0.006-0.002-0.008-0.458-2.349-0.056-4.763 1.151-6.845 1.213-2.093 3.117-3.648 5.393-4.415 0.141 0.31 0.276 0.685 0.382 1.071l0.013 0.055c-1.989 0.666-3.657 2.017-4.728 3.841-1.103 1.877-1.459 4.063-1.014 6.185l0 0 0.001 0.003c0.008 0.038 0.016 0.075 0.024 0.113 0.040 0.185 0.074 0.318 0.111 0.449l-0.013-0.054c0.005 0.019 0.011 0.037 0.016 0.056 0.017 0.059 0.033 0.118 0.051 0.177 0.005 0.018 0.011 0.035 0.016 0.053 0.041 0.139 0.066 0.213 0.091 0.286l-0.019-0.065c0.024 0.071 0.049 0.141 0.074 0.211l0.003 0.008c0.675 1.84 1.943 3.387 3.642 4.42 1.38 0.84 2.93 1.271 4.506 1.27 0.691 0 1.387-0.083 2.075-0.251 4.662-1.136 7.53-5.852 6.395-10.514-0.471-1.934-1.55-3.599-3.12-4.816-1.445-1.119-3.223-1.761-5.037-1.823-0.113-0.484-0.234-0.884-0.376-1.274l0.024 0.076c2.093-0.012 4.156 0.648 5.867 1.889 1.896 1.375 3.246 3.387 3.801 5.666 1.291 5.301-1.971 10.664-7.272 11.956z"></path>
</svg>
