<!-- Generated by IcoMoon.io -->
<svg version="1.1" xmlns="http://www.w3.org/2000/svg" width="32" height="32" viewBox="0 0 32 32">
<title>wedding-ring</title>
<path d="M17.231 9.573l2.875-2.396c0.009-0.008 0.018-0.016 0.026-0.024 0.002-0.002 0.004-0.003 0.006-0.005 0.011-0.011 0.021-0.022 0.030-0.033 0.001-0.001 0.002-0.003 0.003-0.004 0.008-0.010 0.016-0.020 0.023-0.031 0.003-0.004 0.005-0.008 0.008-0.013 0.005-0.008 0.010-0.016 0.015-0.024 0.003-0.006 0.006-0.012 0.009-0.018 0.002-0.004 0.006-0.011 0.009-0.019l0.001-0.003c0.003-0.007 0.006-0.014 0.008-0.020 0.005-0.011 0.009-0.025 0.013-0.039l0.001-0.003c0.003-0.011 0.007-0.025 0.009-0.040l0-0.003c0.002-0.008 0.003-0.016 0.004-0.024 0.001-0.006 0.002-0.013 0.002-0.019 0.001-0.011 0.001-0.021 0.002-0.032 0-0.004 0.001-0.007 0.001-0.011l-0-0.002c-0-0.016-0.001-0.032-0.002-0.048l0 0.002c-0-0.002-0.001-0.003-0.001-0.005-0.002-0.016-0.004-0.029-0.006-0.042l0 0.003c-0.001-0.006-0.003-0.012-0.004-0.018-0.002-0.008-0.004-0.017-0.006-0.025-0.002-0.007-0.005-0.014-0.007-0.021-0.003-0.010-0.006-0.017-0.009-0.023l0.001 0.003c-0.004-0.010-0.007-0.018-0.011-0.025l0.001 0.003c-0.003-0.006-0.006-0.012-0.009-0.018-0.005-0.010-0.009-0.017-0.013-0.024l0.001 0.002c-0.002-0.003-0.003-0.007-0.005-0.010l-1.167-1.901c-0.085-0.137-0.235-0.227-0.405-0.227l-5.271 0c0 0-0 0-0 0-0.171 0-0.32 0.090-0.404 0.225l-0.001 0.002-1.167 1.901c-0.002 0.003-0.004 0.007-0.005 0.010-0.014 0.024-0.027 0.051-0.037 0.079l-0.001 0.003c-0.002 0.007-0.005 0.014-0.007 0.021-0.002 0.008-0.004 0.016-0.006 0.025-0.001 0.006-0.003 0.012-0.004 0.018-0.002 0.010-0.004 0.023-0.006 0.037l-0 0.002c-0 0.002-0.001 0.003-0.001 0.005-0.001 0.014-0.002 0.030-0.002 0.046v0l-0 0.002c0 0.004 0 0.007 0.001 0.011 0 0.011 0.001 0.021 0.002 0.032 0.001 0.006 0.002 0.013 0.002 0.019 0.005 0.041 0.015 0.078 0.029 0.112l-0.001-0.003c0.003 0.007 0.005 0.014 0.008 0.020 0.004 0.010 0.008 0.017 0.011 0.024l-0.001-0.002c0.003 0.006 0.006 0.012 0.009 0.018 0.005 0.008 0.010 0.016 0.015 0.024 0.003 0.004 0.005 0.009 0.008 0.013 0.007 0.011 0.015 0.021 0.023 0.031 0.001 0.001 0.002 0.003 0.003 0.004 0.009 0.011 0.020 0.023 0.030 0.033 0.002 0.002 0.004 0.003 0.006 0.005 0.008 0.008 0.017 0.016 0.026 0.024l0.002 0.001c0 0 0 0 0.001 0v0l2.873 2.394c-5.625 0.615-10.016 5.394-10.016 11.18 0 6.202 5.046 11.248 11.247 11.248s11.248-5.046 11.248-11.248c0-5.786-4.392-10.565-10.016-11.18zM16.475 8.966v-1.678h2.014l-2.014 1.678zM18.098 5.386h0.271l0.583 0.95h-1.805l0.95-0.95zM16.754 5.386l-0.754 0.753-0.754-0.753h1.507zM13.631 5.386h0.272l0.95 0.95h-1.805l0.583-0.95zM13.511 7.287h2.014v1.678l-2.014-1.678zM16 31.049c-5.678 0-10.297-4.619-10.297-10.297s4.619-10.297 10.297-10.297 10.297 4.619 10.297 10.297-4.619 10.297-10.297 10.297z"></path>
<path d="M24.612 17.115c-0.261-0.61-0.549-1.132-0.883-1.62l0.021 0.032c-0.352-0.517-0.728-0.969-1.141-1.383l0 0c-0.414-0.413-0.866-0.789-1.351-1.12l-0.032-0.021c-0.456-0.312-0.978-0.601-1.526-0.838l-0.061-0.024c-1.153-0.487-2.377-0.734-3.639-0.734s-2.486 0.247-3.638 0.734c-0.61 0.261-1.132 0.549-1.62 0.883l0.033-0.021c-0.517 0.352-0.969 0.728-1.383 1.141l0-0c-0.413 0.414-0.789 0.866-1.12 1.351l-0.021 0.032c-0.312 0.456-0.601 0.978-0.838 1.527l-0.023 0.061c-0.487 1.152-0.734 2.376-0.734 3.638 0 1.826 0.527 3.595 1.523 5.115 0.496 0.751 1.067 1.399 1.714 1.959l0.012 0.010c0.639 0.553 1.367 1.027 2.156 1.395l0.058 0.024c0.532 0.251 1.155 0.465 1.804 0.612l0.062 0.012c0.606 0.139 1.301 0.219 2.015 0.219 0.001 0 0.002 0 0.003 0h0.002c0.692 0 1.383-0.076 2.052-0.226 0.721-0.165 1.353-0.387 1.95-0.671l-0.056 0.024c0.644-0.303 1.198-0.642 1.71-1.032l-0.023 0.017c0.532-0.405 0.999-0.844 1.419-1.326l0.010-0.011c0.072-0.083 0.116-0.192 0.116-0.311 0-0.143-0.063-0.271-0.163-0.359l-0.001-0c-0.083-0.072-0.192-0.116-0.311-0.116-0.143 0-0.271 0.063-0.358 0.163l-0 0.001-0.001 0.001c-0.386 0.443-0.807 0.838-1.264 1.187l-0.021 0.015c-0.439 0.336-0.936 0.64-1.464 0.891l-0.051 0.022c-0.486 0.233-1.053 0.433-1.645 0.57l-0.056 0.011c-0.554 0.129-1.19 0.203-1.843 0.203-0 0-0.001 0-0.001 0h0c-1.213 0-2.383-0.253-3.478-0.752-0.003-0.002-0.007-0.003-0.011-0.005l-0.001-0c0-0.001-0.001-0.001-0.001-0.001-0.76-0.352-1.414-0.779-1.998-1.285l0.011 0.009c-0.593-0.512-1.105-1.094-1.532-1.737l-0.019-0.031c-0.895-1.366-1.367-2.955-1.367-4.595 0-1.134 0.222-2.234 0.66-3.268 0.423-0.999 1.028-1.897 1.8-2.669s1.67-1.377 2.668-1.8c1.035-0.438 2.134-0.66 3.268-0.66s2.234 0.222 3.268 0.66c0.999 0.423 1.897 1.028 2.669 1.8s1.377 1.67 1.8 2.669c0.438 1.034 0.66 2.134 0.66 3.268 0 0.715-0.090 1.426-0.267 2.111-0.191 0.727-0.45 1.363-0.78 1.955l0.022-0.043c-0.037 0.066-0.059 0.145-0.059 0.228 0 0.048 0.007 0.094 0.020 0.137l-0.001-0.003c0.037 0.123 0.118 0.223 0.226 0.282l0.002 0.001c0.066 0.037 0.144 0.058 0.228 0.058 0.179 0 0.335-0.099 0.416-0.245l0.001-0.002c0.342-0.612 0.631-1.32 0.829-2.066l0.015-0.065c0.189-0.704 0.298-1.512 0.298-2.345 0-0.002 0-0.003 0-0.005v0c0-1.262-0.247-2.486-0.734-3.638zM16 0c-0 0-0 0-0 0-0.262 0-0.475 0.213-0.475 0.475 0 0 0 0 0 0v0 1.901c0 0.262 0.213 0.475 0.475 0.475s0.475-0.213 0.475-0.475v0-1.901c0-0.263-0.213-0.475-0.475-0.475zM12.61 3.157l-0.95-1.646c-0.084-0.143-0.237-0.238-0.412-0.238-0.088 0-0.169 0.024-0.24 0.065l0.002-0.001c-0.143 0.084-0.238 0.237-0.238 0.412 0 0.087 0.024 0.169 0.065 0.24l-0.001-0.002 0.95 1.646c0.084 0.143 0.236 0.238 0.411 0.238 0.088 0 0.17-0.024 0.24-0.065l-0.002 0.001c0.143-0.084 0.238-0.237 0.238-0.412 0-0.087-0.024-0.169-0.065-0.24l0.001 0.002zM20.99 1.337c-0.068-0.040-0.15-0.064-0.238-0.064-0.175 0-0.328 0.095-0.41 0.235l-0.001 0.002-0.951 1.646c-0.041 0.069-0.066 0.152-0.066 0.241 0 0.262 0.213 0.475 0.475 0.475 0.176 0 0.33-0.096 0.412-0.238l0.001-0.002 0.951-1.646c0.040-0.068 0.064-0.15 0.064-0.238 0-0.175-0.095-0.328-0.235-0.41l-0.002-0.001z"></path>
</svg>
