<!-- Generated by IcoMoon.io -->
<svg version="1.1" xmlns="http://www.w3.org/2000/svg" width="32" height="32" viewBox="0 0 32 32">
<title>wedding-photo</title>
<path d="M20.536 3.393c-0.306-0.306-0.713-0.475-1.146-0.475-0.286 0-0.561 0.074-0.803 0.212-0.242-0.139-0.517-0.212-0.803-0.212-0.433 0-0.84 0.169-1.146 0.475-0.632 0.632-0.632 1.66 0 2.292l1.607 1.607c0.088 0.088 0.209 0.142 0.343 0.142s0.255-0.054 0.343-0.142l1.606-1.607c0.632-0.632 0.632-1.66 0-2.292zM19.85 5l-1.264 1.264-1.264-1.264c-0.254-0.254-0.254-0.667-0-0.921 0.117-0.118 0.279-0.191 0.459-0.191 0.001 0 0.001 0 0.002 0h-0c0.001 0 0.001 0 0.002 0 0.179 0 0.342 0.073 0.459 0.191l0 0c0.088 0.088 0.209 0.142 0.343 0.142h0c0.134-0 0.255-0.054 0.343-0.142v0c0.117-0.118 0.279-0.191 0.458-0.191 0.001 0 0.001 0 0.002 0h-0c0.174 0 0.337 0.068 0.46 0.191 0.254 0.254 0.254 0.667 0 0.921z"></path>
<path d="M30.222 0h-21.98c-0.268 0-0.485 0.217-0.485 0.485v0 24.565c0 0 0 0 0 0 0 0.268 0.217 0.485 0.485 0.485 0 0 0 0 0 0h21.98c0.268 0 0.485-0.217 0.485-0.485v0-24.565c0-0 0-0 0-0 0-0.268-0.217-0.485-0.485-0.485v0zM29.738 24.565h-21.010v-4.202h21.010v4.202zM16.162 9.535c0 0 0 0 0 0 0 0.268 0.217 0.485 0.485 0.485 0 0 0 0 0 0v0c0.345 0 0.64 0.218 0.756 0.524l-0.146-0.107c-0.005-0.004-0.011-0.007-0.017-0.011s-0.011-0.008-0.017-0.011c-0.006-0.004-0.015-0.009-0.024-0.014l-0.003-0.001c-0.005-0.002-0.009-0.005-0.014-0.007-0.007-0.004-0.017-0.008-0.027-0.012l-0.003-0.001c-0.004-0.002-0.009-0.004-0.013-0.005-0.007-0.003-0.018-0.006-0.028-0.010l-0.003-0.001c-0.005-0.001-0.009-0.003-0.014-0.004-0.007-0.002-0.017-0.004-0.027-0.007l-0.003-0.001-0.017-0.003c-0.013-0.002-0.029-0.004-0.046-0.005l-0.002-0c-0.008-0.001-0.017-0.001-0.026-0.001h-0c-0.002-0-0.004-0-0.006-0-0.014 0-0.029 0.001-0.043 0.002l0.002-0c-0.010 0.001-0.018 0.002-0.026 0.003l0.003-0c-0.009 0.001-0.017 0.003-0.025 0.004-0.010 0.002-0.017 0.003-0.024 0.005l0.003-0.001c-0.013 0.003-0.022 0.006-0.031 0.009l0.004-0.001c-0.005 0.001-0.009 0.002-0.014 0.004-0.25 0.083-0.999 0.298-1.463 0.298s-1.213-0.215-1.463-0.298c-0.002-0.001-0.005-0.001-0.007-0.002-0.008-0.002-0.016-0.004-0.024-0.007s-0.016-0.004-0.024-0.006c-0.006-0.001-0.013-0.002-0.019-0.003-0.009-0.002-0.019-0.003-0.028-0.004-0.005-0.001-0.010-0.001-0.015-0.001-0.011-0.001-0.021-0.002-0.032-0.002-0.005-0-0.010 0-0.015 0-0.011 0-0.021 0-0.032 0.001-0.006 0.001-0.013 0.002-0.019 0.002-0.009 0.001-0.018 0.002-0.027 0.004s-0.016 0.004-0.024 0.005c-0.007 0.002-0.014 0.003-0.022 0.005-0.008 0.002-0.017 0.005-0.025 0.008-0.007 0.002-0.013 0.004-0.020 0.007-0.008 0.003-0.015 0.007-0.022 0.010s-0.014 0.006-0.021 0.010c-0.006 0.003-0.013 0.007-0.019 0.011-0.008 0.005-0.016 0.009-0.023 0.014-0.002 0.001-0.004 0.002-0.005 0.003l-0.205 0.137c0.103-1.218 0.951-1.753 2.898-1.825l0 0.799zM13.815 11.359c0.348 0.102 1.020 0.277 1.539 0.277 0.512 0 1.174-0.17 1.526-0.273l0.575 0.422v0.982c0 1.159-0.942 2.101-2.101 2.101s-2.101-0.943-2.101-2.101v-1.033h0l0.562-0.375zM17.593 16.484l0.993 0c0.446 0 0.808 0.363 0.808 0.808v2.101h-3.256l1.455-2.909zM15.354 18.794l-1.454-2.909v-0.415c0.419 0.231 0.919 0.367 1.451 0.367 0.001 0 0.002 0 0.004 0h-0c0.001 0 0.002 0 0.004 0 0.532 0 1.032-0.136 1.467-0.375l-0.016 0.008v0.415l-1.454 2.909zM14.569 19.393h-3.256v-2.101h0c0-0.446 0.363-0.808 0.808-0.808h0.993l1.454 2.909zM21.818 17.777h3.879c0.268 0 0.485-0.217 0.485-0.485v0-0.808l0.162 0c0.446 0 0.808 0.363 0.808 0.808v2.101h-6.788v-2.101c0-0.446 0.363-0.808 0.808-0.808h0.162v0.808c0 0 0 0 0 0 0 0.268 0.217 0.485 0.485 0.485 0 0 0 0 0 0v0zM21.663 11.318c0.080-1.086 0.989-1.945 2.095-1.945 0.392 0 0.759 0.108 1.073 0.296l-3.168 1.649zM25.554 10.386c0.167 0.271 0.275 0.594 0.299 0.941l0 0.006-1.081-0.541 0.782-0.407zM23.71 11.346l2.149 1.074v0.347c0 1.159-0.942 2.101-2.101 2.101s-2.101-0.943-2.101-2.101v-0.352l2.053-1.069zM22.95 16v-0.271c0.242 0.069 0.52 0.109 0.808 0.109v0c0.28 0 0.55-0.038 0.808-0.109v0.271c0 0 0 0 0 0 0 0.268 0.217 0.485 0.485 0.485 0 0 0 0 0 0h0.162v0.323h-2.909v-0.323h0.162c0.268 0 0.485-0.217 0.485-0.485v0zM29.738 19.393h-1.616v-2.101c0-0.978-0.795-1.775-1.773-1.778-0.002 0-0.003-0-0.005-0h-0.808v-0.246c0.782-0.557 1.293-1.47 1.293-2.501v-1.292c0-0.764-0.281-1.464-0.745-2.002-0.015-0.019-0.030-0.037-0.046-0.053v0c-0.562-0.624-1.376-1.016-2.28-1.016-1.693 0-3.071 1.377-3.071 3.071v1.292c0 1.031 0.511 1.944 1.293 2.501v0.246h-0.808c-0.509 0-0.969 0.215-1.293 0.56-0.323-0.343-0.781-0.558-1.288-0.559-0.002 0-0.003-0-0.005-0h-0.808v-0.866c0.405-0.52 0.646-1.173 0.646-1.881v-1.939c0-0.812-0.548-1.498-1.293-1.71v-0.876c0-0 0-0 0-0 0-0.268-0.217-0.485-0.485-0.485-0 0-0 0-0 0v0c-1.337 0-2.281 0.174-2.973 0.547-0.922 0.497-1.39 1.347-1.39 2.524v1.939c0 0.709 0.242 1.361 0.646 1.881v0.867h-0.808c-0.98 0-1.778 0.798-1.778 1.778v2.101h-1.616v-18.424h21.010v18.424z"></path>
<path d="M26.99 26.505c-0.268 0-0.485 0.217-0.485 0.485v0 0.808h-21.010v-23.596h0.808c0.268 0 0.485-0.217 0.485-0.485s-0.217-0.485-0.485-0.485h-1.293c-0.268 0-0.485 0.217-0.485 0.485v0 24.565c0 0 0 0 0 0 0 0.268 0.217 0.485 0.485 0.485 0 0 0 0 0 0h21.98c0.268 0 0.485-0.217 0.485-0.485v0-1.293c0-0 0-0 0-0 0-0.268-0.217-0.485-0.485-0.485-0 0-0 0-0 0v0z"></path>
<path d="M23.757 29.738c-0.268 0-0.485 0.217-0.485 0.485v0 0.808h-21.010v-23.595h0.808c0.268 0 0.485-0.217 0.485-0.485s-0.217-0.485-0.485-0.485h-1.293c-0.268 0-0.485 0.217-0.485 0.485v0 24.565c0 0 0 0 0 0 0 0.268 0.217 0.485 0.485 0.485 0 0 0 0 0 0h21.98c0.268 0 0.485-0.217 0.485-0.485v0-1.293c0-0 0-0 0-0 0-0.268-0.217-0.485-0.485-0.485-0 0-0 0-0 0v0zM23.758 6.464c-2.762 0-5.010 2.247-5.010 5.010 0 0.268 0.217 0.485 0.485 0.485s0.485-0.217 0.485-0.485v0c0-2.228 1.813-4.040 4.040-4.040s4.040 1.813 4.040 4.040c0 0.268 0.217 0.485 0.485 0.485s0.485-0.217 0.485-0.485v0c0-2.762-2.247-5.010-5.010-5.010z"></path>
<path d="M22.465 21.979h-6.465c-0.268 0-0.485 0.217-0.485 0.485s0.217 0.485 0.485 0.485v0h6.465c0.268-0 0.485-0.217 0.485-0.485s-0.217-0.485-0.485-0.485c0 0-0 0-0 0v0z"></path>
</svg>
