<!-- Generated by IcoMoon.io -->
<svg version="1.1" xmlns="http://www.w3.org/2000/svg" width="32" height="32" viewBox="0 0 32 32">
<title>wedding-photography</title>
<path d="M31.861 8.376c-0.086-0.086-0.205-0.139-0.336-0.139h-3.068l-11.032-4.887c0-0.008 0.001-0.016 0.001-0.024 0-0.786-0.64-1.426-1.426-1.426s-1.426 0.64-1.426 1.426c0 0.008 0.001 0.016 0.001 0.024l-11.032 4.887h-3.068c-0.131 0-0.25 0.053-0.336 0.139l0-0c-0.086 0.086-0.139 0.205-0.139 0.336v4.436c0 0.262 0.213 0.475 0.475 0.475s0.475-0.214 0.475-0.475v-3.961h2.687c0.002 0 0.005 0.001 0.007 0.001s0.006-0 0.010-0.001h3.778c0.005 0.001 0.010 0.002 0.014 0h20.9c0.003 0 0.006 0.001 0.010 0.001s0.005-0.001 0.007-0.001h2.687v19.961h-1.584v-0.156l0-0.003c0-1.31-1.066-2.376-2.376-2.376h-2.059l0-0.853c0.707-0.342 1.306-0.802 1.794-1.359l0.006-0.006h2.793c0.262 0 0.475-0.213 0.475-0.475v-5.703c0-4.105-3.34-7.446-7.446-7.446s-7.446 3.34-7.446 7.446v5.703c0 0.262 0.213 0.475 0.475 0.475h2.794c0.494 0.564 1.093 1.024 1.767 1.351l0.033 0.015v0.852h-2.059c-1.31 0-2.376 1.066-2.376 2.376v0.158h-0.318v-0.792c0-1.31-1.066-2.376-2.376-2.376h-0.792l0-1.052c1.164-1.017 1.9-2.511 1.9-4.174v-1.823c0.371-1.868 0.201-3.253-0.507-4.117-0.446-0.544-0.999-0.752-1.394-0.829v-2.103c0-0.262-0.213-0.475-0.475-0.475-0.18 0-0.365-0.001-0.553-0.002-0.197-0.001-0.397-0.002-0.6-0.002-2.293 0-4.867 0.145-6.396 1.877-1.1 1.246-1.481 3.086-1.164 5.625v1.85c0 1.663 0.737 3.158 1.901 4.175v1.052h-0.792c-1.31 0-2.376 1.066-2.376 2.376v0.792h-0.95v-14.099c0-0.262-0.214-0.475-0.475-0.475s-0.475 0.213-0.475 0.475v0 14.574c0 0.125 0.051 0.248 0.139 0.336 0.086 0.086 0.205 0.139 0.336 0.139h6.333c0.001 0 0.002 0 0.003 0s0.003-0 0.005-0h3.791c0.002 0 0.004 0 0.005 0s0.002-0 0.003-0h20.908c0.131-0 0.25-0.054 0.336-0.139v0c0.086-0.086 0.139-0.205 0.139-0.336v-20.911c-0-0.131-0.054-0.25-0.139-0.337v0zM16 2.851c0.262 0 0.475 0.213 0.475 0.475s-0.213 0.475-0.475 0.475-0.475-0.213-0.475-0.475 0.213-0.475 0.475-0.475zM7.446 8.238h-1.556l9.019-3.995c0.262 0.311 0.654 0.51 1.091 0.51s0.83-0.198 1.091-0.51l9.019 3.995h-18.665zM5.045 13.908c1.267-1.435 3.598-1.556 5.683-1.556 0.242 0 0.48 0.001 0.718 0.003l-0.040-0v2.061c0 0.131 0.052 0.257 0.148 0.347 0.084 0.080 0.198 0.129 0.324 0.129 0.010 0 0.020-0 0.030-0.001l-0.001 0c0.044-0.002 0.67-0.009 1.109 0.526 0.324 0.396 0.486 1.003 0.483 1.79l-0.207-0.413c-0.080-0.157-0.24-0.263-0.425-0.263-0.052 0-0.101 0.008-0.148 0.023l0.003-0.001c-0.028 0.009-2.842 0.9-4.468 0.9-1.558 0-2.968-0.845-2.981-0.853-0.071-0.044-0.156-0.070-0.248-0.070-0.155 0-0.293 0.074-0.379 0.189l-0.001 0.001-0.627 0.836c-0.038-1.607 0.306-2.831 1.028-3.65zM4.118 20.755v-1.748l1.040-1.387c0.586 0.291 1.774 0.785 3.094 0.785 1.408 0 3.503-0.572 4.367-0.826l0.686 1.372v1.804c0 2.532-2.061 4.592-4.594 4.592s-4.594-2.060-4.594-4.592zM11.406 25.598l-0 0.603-1.46 0.973-0.758-0.379v-0.519c0.824-0.072 1.578-0.315 2.245-0.693l-0.027 0.014zM8.237 26.277v0.491l-1.028 0.411-1.19-0.951v-0.629c0.64 0.364 1.394 0.607 2.197 0.677l0.021 0.001zM2.851 29.148v-0.792c0-0.786 0.64-1.426 1.426-1.426h0.946l0.887 2.217h-3.258zM10.292 29.148h-3.159l-0.478-1.196 0.177 0.142c0.004 0.003 0.009 0.006 0.013 0.009 0.013 0.010 0.027 0.019 0.041 0.028 0.009 0.005 0.017 0.010 0.026 0.015 0.014 0.007 0.028 0.013 0.042 0.018 0.010 0.004 0.019 0.008 0.028 0.011 0.016 0.005 0.032 0.009 0.048 0.012 0.008 0.002 0.016 0.004 0.024 0.005 0.024 0.004 0.049 0.006 0.074 0.006 0.017 0 0.033-0.001 0.050-0.003 0.003-0 0.006-0.001 0.009-0.001 0.013-0.002 0.026-0.004 0.039-0.006 0.005-0.001 0.011-0.003 0.016-0.004 0.020-0.005 0.037-0.010 0.053-0.016l-0.003 0.001c0.004-0.002 0.008-0.003 0.012-0.004l1.386-0.554 1.077 0.538c0.007 0.003 0.013 0.006 0.020 0.009 0.009 0.004 0.019 0.009 0.028 0.012 0.011 0.004 0.023 0.007 0.034 0.011 0.006 0.002 0.012 0.004 0.018 0.005 0.017 0.004 0.034 0.007 0.050 0.009 0.001 0 0.003 0 0.004 0.001 0.019 0.002 0.038 0.003 0.056 0.003 0.022 0 0.044-0.002 0.066-0.005 0.009-0.001 0.019-0.004 0.028-0.006 0.012-0.003 0.024-0.005 0.037-0.008 0.009-0.003 0.019-0.007 0.028-0.010 0.012-0.004 0.024-0.008 0.035-0.014 0.008-0.004 0.016-0.008 0.024-0.013 0.015-0.008 0.027-0.014 0.039-0.022l-0.002 0.001c0.003-0.002 0.005-0.003 0.008-0.004l0.627-0.418-0.579 1.448zM14.574 29.148h-3.258l0.887-2.217h0.946c0.786 0 1.426 0.64 1.426 1.426v0.792zM16.158 23.445v-5.228c0-3.581 2.914-6.495 6.495-6.495s6.495 2.914 6.495 6.495v5.228h-1.649c0.445-0.797 0.699-1.715 0.699-2.691v-2.537c-0-1.386-0.512-2.655-1.356-3.628-0.020-0.028-0.041-0.052-0.065-0.073l-0-0c-1.016-1.13-2.488-1.841-4.123-1.841-3.057 0-5.545 2.487-5.545 5.545l0 0.001v2.535c0 0.976 0.254 1.893 0.699 2.691h-1.65zM26.317 15.449c0.433 0.565 0.739 1.249 0.866 1.995l0.004 0.027-2.749-1.177 1.88-0.844zM18.063 18.116c0.055-2.486 2.093-4.492 4.591-4.492 1.132 0 2.169 0.412 2.971 1.094l-7.562 3.398zM18.060 20.755v-1.595l5.199-2.336 3.989 1.709v2.223c0 2.532-2.061 4.592-4.594 4.592s-4.594-2.060-4.594-4.592zM18.377 29.148h-1.584v-0.158c0-0.786 0.64-1.426 1.426-1.426h0.158v1.584zM25.98 29.149h-6.653v-1.584h1.426c0.262 0 0.475-0.213 0.475-0.475v-0.978c0.427 0.118 0.917 0.186 1.423 0.186 0.001 0 0.002 0 0.002 0h-0c0.001 0 0.002 0 0.002 0 0.506 0 0.997-0.068 1.463-0.195l-0.039 0.009-0 0.978v0c0 0.008 0.001 0.016 0.001 0.024s0 0.017 0.001 0.025c0.001 0.007 0.002 0.014 0.003 0.022 0.001 0.009 0.002 0.017 0.004 0.026 0.002 0.007 0.004 0.014 0.006 0.022s0.004 0.016 0.006 0.024c0.003 0.008 0.006 0.016 0.009 0.025 0.002 0.006 0.004 0.013 0.007 0.019 0.005 0.011 0.010 0.022 0.016 0.033 0.001 0.003 0.003 0.006 0.004 0.009 0.067 0.122 0.182 0.21 0.319 0.239l0.003 0.001c0.012 0.003 0.025 0.004 0.037 0.006 0.003 0 0.007 0.001 0.010 0.002 0.009 0.001 0.019 0.001 0.029 0.002 0.007 0 0.013 0.001 0.020 0.001h1.426v1.584zM28.515 28.99v0.158h-1.584v-1.584h0.159c0.786 0 1.425 0.639 1.426 1.424l-0 0.002z"></path>
</svg>
