<!-- Generated by IcoMoon.io -->
<svg version="1.1" xmlns="http://www.w3.org/2000/svg" width="32" height="32" viewBox="0 0 32 32">
<title>diet</title>
<path fill="#fff" d="M12.373 12.429c-0.27-0.295-0.653-0.468-1.053-0.474-0.804-0.010-1.469 0.63-1.482 1.434-0.004 0.259 0.202 0.472 0.461 0.477 0.003 0 0.005 0 0.008 0 0.255 0 0.464-0.205 0.469-0.461 0.005-0.287 0.241-0.517 0.53-0.512 0.145 0.002 0.278 0.062 0.375 0.169 0.175 0.191 0.471 0.205 0.662 0.030s0.205-0.471 0.030-0.662z"></path>
<path fill="#fff" d="M14.867 13.957c-0.144-0.338-0.423-0.604-0.768-0.731-0.692-0.255-1.464 0.1-1.72 0.791-0.090 0.243 0.034 0.512 0.276 0.603 0.054 0.020 0.109 0.029 0.163 0.029 0.19 0 0.369-0.117 0.44-0.306 0.077-0.208 0.309-0.314 0.517-0.237 0.104 0.039 0.186 0.116 0.229 0.219 0.101 0.238 0.377 0.349 0.615 0.248s0.349-0.377 0.248-0.615z"></path>
<path fill="#fff" d="M17.888 9.805c-0.183-0.183-0.48-0.183-0.663 0.001l-0.442 0.443c-0.183 0.183-0.183 0.48 0.001 0.663 0.091 0.091 0.211 0.137 0.331 0.137s0.24-0.046 0.332-0.138l0.442-0.443c0.183-0.183 0.183-0.48-0.001-0.663z"></path>
<path fill="#fff" d="M14.972 15.857h-0.625c-0.259 0-0.469 0.21-0.469 0.469s0.21 0.469 0.469 0.469h0.625c0.259 0 0.469-0.21 0.469-0.469s-0.21-0.469-0.469-0.469z"></path>
<path fill="#fff" d="M19.762 15.857h-0.625c-0.259 0-0.469 0.21-0.469 0.469s0.21 0.469 0.469 0.469h0.625c0.259 0 0.469-0.21 0.469-0.469s-0.21-0.469-0.469-0.469z"></path>
<path fill="#fff" d="M31.985 24.309l-0.122-0.659c-0.078-0.421-0.445-0.727-0.874-0.727-0.054 0-0.108 0.005-0.161 0.015l-2.485 0.456 1.125-0.752c0.295-0.197 0.444-0.55 0.38-0.9-0.018-0.096-0.051-0.188-0.1-0.274l-0.341-0.603c-0.117-0.207-0.316-0.361-0.545-0.422-0.113-0.030-0.23-0.037-0.345-0.022 0.125-0.692 0.19-1.398 0.19-2.117 0-0.319-0.192-0.594-0.466-0.716 0.358-0.852 0.383-1.827 0.029-2.72-0.029-0.073-0.071-0.137-0.127-0.193s-0.119-0.097-0.192-0.126c-0.424-0.169-0.87-0.255-1.325-0.255-0.058 0-0.116 0.002-0.174 0.004-0.065-1.308-1.148-2.353-2.47-2.353-0.174 0-0.344 0.018-0.508 0.053 0.114-0.681 0.047-1.394-0.218-2.063-0.029-0.074-0.071-0.14-0.13-0.199-0.056-0.056-0.122-0.099-0.195-0.128-0.457-0.182-0.937-0.274-1.427-0.274-0.738 0-1.445 0.208-2.055 0.594-0.223-0.645-0.59-1.251-1.104-1.766-0.15-0.151-0.35-0.234-0.563-0.234s-0.413 0.083-0.563 0.234l-2.27 2.275c-0.42-0.375-0.973-0.599-1.573-0.599-0.136 0-0.274 0.012-0.409 0.035-0.489 0.085-0.939 0.324-1.284 0.675-0.442-0.213-0.949-0.286-1.436-0.201-0.107 0.019-0.211 0.045-0.312 0.077v-1.753c0-1.207-0.97-2.191-2.17-2.212v-0.994c0.367-0.064 0.648-0.384 0.648-0.769v-2.252c0-0.431-0.35-0.781-0.781-0.781h-3.812c-0.431 0-0.781 0.35-0.781 0.781v2.252c0 0.385 0.28 0.705 0.648 0.769v0.994c-1.2 0.021-2.17 1.005-2.17 2.212v13.681c-0.936 0.845-1.518 2.024-1.518 3.329 0 2.565 2.252 4.652 5.019 4.652l18.762-0.006c0.64-0 1.243-0.282 1.652-0.772 0.399-0.477 0.569-1.097 0.471-1.709l3.747 0.673c0.052 0.009 0.105 0.014 0.158 0.014 0.187 0 0.366-0.057 0.518-0.166 0.195-0.139 0.327-0.355 0.362-0.591l0.102-0.681c0.015-0.098 0.013-0.196-0.005-0.292-0.064-0.348-0.33-0.625-0.676-0.704l-1.321-0.303 2.483-0.456c0.234-0.043 0.437-0.174 0.572-0.37s0.185-0.431 0.142-0.664zM26.626 15.233c0.282 0 0.56 0.045 0.826 0.133 0.238 0.726 0.149 1.509-0.224 2.156h-1.263l0.403-0.404c0.183-0.183 0.183-0.48-0.001-0.663s-0.48-0.183-0.663 0.001l-0.213 0.214c-0.1-0.329-0.274-0.624-0.504-0.865 0.465-0.369 1.036-0.571 1.638-0.571zM23.983 12.885c0.847 0 1.535 0.691 1.535 1.54 0 0.016-0.001 0.031-0.001 0.047-0.494 0.161-0.95 0.429-1.338 0.794-0.062-0.023-0.125-0.045-0.189-0.063-0.137-0.741-0.636-1.335-1.296-1.612 0.274-0.424 0.749-0.706 1.289-0.706zM21.505 10.274c0.318 0 0.631 0.052 0.933 0.153 0.242 0.72 0.193 1.494-0.116 2.165-0.254 0.231-0.46 0.514-0.601 0.833-0.084 0.005-0.167 0.014-0.25 0.028-0.367 0.064-0.71 0.223-0.996 0.454-0.098-0.179-0.217-0.344-0.355-0.492l1.075-1.077c0.183-0.183 0.183-0.48-0.001-0.663s-0.48-0.183-0.663 0.001l-1.175 1.178c-0.224-0.106-0.465-0.179-0.719-0.214 0.11-0.559 0.381-1.086 0.801-1.507 0.552-0.554 1.286-0.859 2.067-0.859zM17.913 17.522h-0.406c-0.068-0.174-0.238-0.298-0.436-0.298s-0.368 0.123-0.436 0.298h-0.478c0.111-0.181 0.089-0.42-0.068-0.577-0.183-0.183-0.48-0.183-0.663 0.001l-0.442 0.443c-0.040 0.040-0.070 0.085-0.093 0.133h-0.954c-0.357-0.548-0.575-1.195-0.601-1.892h7.437c-0.026 0.696-0.244 1.343-0.601 1.892h-0.993c-0.022-0.048-0.053-0.093-0.093-0.133l-0.442-0.443c-0.183-0.183-0.48-0.184-0.663-0.001-0.157 0.156-0.179 0.396-0.068 0.577zM16.823 14.692c0.177-0.655 0.774-1.138 1.482-1.138s1.305 0.483 1.482 1.138h-2.964zM17.781 8.929c0.446 0.482 0.741 1.054 0.885 1.655-0.239 0.26-0.438 0.547-0.595 0.853-0.071-0.044-0.155-0.069-0.244-0.069h-0.625c-0.259 0-0.469 0.21-0.469 0.469s0.21 0.469 0.469 0.469h0.548c-0.031 0.129-0.055 0.26-0.072 0.392-0.186 0.049-0.364 0.118-0.53 0.207-0.312-0.539-0.83-0.941-1.443-1.102-0-0.001-0-0.003-0.001-0.004-0.037-0.212-0.101-0.413-0.188-0.6l2.265-2.27zM9.308 13.158c-0.027-0.077-0.048-0.156-0.062-0.235-0.134-0.775 0.388-1.516 1.165-1.651 0.082-0.014 0.165-0.021 0.247-0.021 0.309 0 0.604 0.098 0.853 0.285 0.103 0.077 0.234 0.108 0.361 0.086s0.239-0.095 0.311-0.203c0.22-0.332 0.557-0.552 0.948-0.62 0.082-0.014 0.165-0.021 0.248-0.021 0.694 0 1.285 0.497 1.403 1.182 0.014 0.078 0.021 0.16 0.021 0.243 0 0.243 0.186 0.445 0.428 0.466 0.524 0.046 0.97 0.376 1.177 0.841-0.277 0.332-0.469 0.738-0.542 1.184h-2.673c-0.332 0-0.618 0.205-0.736 0.496-0.588-0.401-1.281-0.616-2.008-0.616-0.455 0-0.901 0.086-1.325 0.255-0.072 0.029-0.136 0.071-0.191 0.126s-0.098 0.121-0.126 0.192c-0.108 0.272-0.18 0.552-0.219 0.833-0.168-0.191-0.286-0.429-0.333-0.696-0.11-0.636 0.223-1.269 0.809-1.54 0.22-0.102 0.327-0.355 0.245-0.584zM10.705 17.393l0.128 0.128h-1.126c-0.253-0.586-0.291-1.254-0.086-1.88 0.267-0.088 0.544-0.133 0.826-0.133 0.706 0 1.371 0.276 1.871 0.777 0.066 0.067 0.128 0.137 0.187 0.209 0.079 0.36 0.201 0.703 0.359 1.027h-0.706l-0.789-0.79c-0.183-0.183-0.48-0.184-0.663-0.001s-0.184 0.48-0.001 0.663zM8.709 17.522h-1.671c0.074-0.454 0.348-0.841 0.727-1.069 0.224 0.301 0.517 0.544 0.855 0.709 0.024 0.122 0.053 0.242 0.089 0.361zM3.978 2.602h3.499v1.94h-3.499v-1.94zM6.83 5.48v0.981h-2.204v-0.981h2.204zM2.456 10.574h3.044c0.259 0 0.469-0.21 0.469-0.469s-0.21-0.469-0.469-0.469h-3.044v-0.963c0-0.703 0.57-1.275 1.271-1.275h4.002c0.701 0 1.271 0.572 1.271 1.275v0.963h-0.875c-0.259 0-0.469 0.21-0.469 0.469s0.21 0.469 0.469 0.469h0.875v0.416c-0.537 0.527-0.816 1.299-0.678 2.093 0 0.002 0.001 0.003 0.001 0.005-0.752 0.516-1.153 1.433-0.993 2.354 0.009 0.054 0.021 0.107 0.034 0.159-0.234 0.129-0.444 0.296-0.625 0.491h-4.283v-5.518zM2.456 17.029v0h3.738c-0.050 0.158-0.085 0.322-0.102 0.492h-0.079c-0.431 0-0.782 0.351-0.782 0.783 0 0.744 0.069 1.475 0.203 2.19-0.135-0.011-0.273-0.017-0.413-0.017-0.567 0-1.107 0.090-1.521 0.253-0.633 0.25-0.808 0.605-0.846 0.85-0.067 0.033-0.133 0.069-0.198 0.105v-4.657zM8.392 22.788c0.169 0.135 0.272 0.25 0.332 0.333-0.006 0-0.011 0-0.017 0-0.265 0-0.742-0.107-1.284-0.407-0.202-0.112-0.388-0.238-0.538-0.365-0.175-0.148-0.431-0.148-0.606 0-0.15 0.127-0.336 0.253-0.537 0.365-0.542 0.3-1.019 0.407-1.284 0.407-0.006 0-0.012-0-0.018-0 0.060-0.083 0.163-0.198 0.332-0.333 0.148-0.118 0.21-0.313 0.158-0.495s-0.208-0.314-0.396-0.336c-0.457-0.054-0.747-0.17-0.882-0.255 0.17-0.106 0.599-0.286 1.371-0.286 0.639 0 1.107 0.134 1.331 0.26 0.143 0.080 0.316 0.080 0.459 0 0.224-0.126 0.692-0.26 1.331-0.26 0.772 0 1.201 0.18 1.371 0.286-0.135 0.085-0.425 0.201-0.882 0.255-0.188 0.022-0.344 0.155-0.396 0.337s0.010 0.377 0.158 0.495zM7.454 28.493l0.016 0.087c0.056 0.301 0.173 0.577 0.338 0.818h-2.788c-2.251 0-4.082-1.666-4.082-3.715 0-1.4 0.856-2.621 2.115-3.254 0.145 0.108 0.325 0.201 0.539 0.276-0.085 0.145-0.144 0.301-0.158 0.463-0.018 0.216 0.048 0.421 0.186 0.578 0.183 0.207 0.465 0.312 0.836 0.312 0.495 0 1.145-0.196 1.738-0.524 0.137-0.076 0.266-0.155 0.387-0.239 0.121 0.083 0.25 0.163 0.387 0.239 0.593 0.328 1.243 0.524 1.738 0.524h0c0.371 0 0.653-0.105 0.836-0.312 0.139-0.157 0.205-0.362 0.186-0.578-0.014-0.163-0.073-0.318-0.158-0.463 0.214-0.075 0.394-0.168 0.539-0.276 0.999 0.502 1.743 1.374 2.009 2.412l-3.315 1.259c-0.97 0.369-1.538 1.375-1.349 2.393zM24.714 28.957c-0.231 0.277-0.571 0.436-0.933 0.436l-0.492 0-0.307-1.66c-0.047-0.255-0.292-0.423-0.546-0.376s-0.423 0.292-0.376 0.546l0.276 1.489-1.613 0.001-0.208-1.122c-0.047-0.255-0.292-0.423-0.546-0.376s-0.423 0.292-0.376 0.546l0.176 0.952-3.752 0.001-0.282-1.524c-0.047-0.255-0.292-0.423-0.546-0.375s-0.423 0.292-0.376 0.546l0.251 1.354-5.478 0.002c-0 0-0 0-0 0-0.586 0-1.088-0.416-1.194-0.988l-0.016-0.087c-0.106-0.572 0.214-1.138 0.761-1.346l1.842-0.7 0.137 0.741c0.042 0.226 0.239 0.383 0.46 0.383 0.028 0 0.057-0.003 0.086-0.008 0.255-0.047 0.423-0.292 0.375-0.546l-0.168-0.908 2.735-1.039c0.242-0.092 0.364-0.363 0.272-0.605s-0.363-0.364-0.605-0.272l-1.273 0.483c-0.357-1.264-1.274-2.32-2.49-2.925-0.038-0.245-0.213-0.6-0.846-0.85-0.414-0.163-0.954-0.253-1.521-0.253-0.39 0-0.763 0.043-1.092 0.122v-0.283c0-0.259-0.21-0.469-0.469-0.469-0.109 0-0.21 0.038-0.29 0.101-0.074-0.489-0.115-0.986-0.122-1.489h15.268c0.259 0 0.469-0.21 0.469-0.469s-0.21-0.469-0.469-0.469h-0.192c0.299-0.615 0.467-1.304 0.467-2.032 0-0.414-0.316-0.754-0.72-0.793 0.176-0.166 0.395-0.277 0.639-0.32 0.072-0.012 0.144-0.019 0.216-0.019 0.605 0 1.119 0.433 1.223 1.029 0.012 0.069 0.018 0.14 0.018 0.212 0 0.243 0.186 0.445 0.428 0.466 0.56 0.049 1.018 0.471 1.115 1.024 0.026 0.147 0.022 0.293-0.003 0.432h-0.503c-0.259 0-0.469 0.21-0.469 0.469s0.21 0.469 0.469 0.469h3.643c-0.012 0.86-0.122 1.7-0.329 2.515l-2.54 1.5c-0.155-0.541-0.517-0.999-1.014-1.278-0.558-0.312-1.221-0.361-1.819-0.134l-5.232 1.988c-0.242 0.092-0.364 0.363-0.272 0.605s0.363 0.364 0.605 0.272l0.689-0.262 0.214 1.155c0.042 0.226 0.239 0.384 0.46 0.384 0.028 0 0.057-0.003 0.086-0.008 0.255-0.047 0.423-0.292 0.376-0.546l-0.245-1.323 3.652-1.387c0.338-0.128 0.713-0.101 1.029 0.076s0.533 0.48 0.599 0.833l0.948 5.12c0.065 0.353-0.029 0.714-0.26 0.99zM26.386 25.287c-0.219 0.040-0.379 0.228-0.384 0.451s0.147 0.417 0.364 0.467l3.49 0.8-0.087 0.585-4.046-0.727-0.632-3.415 3.524-2.080 0.294 0.52-2.972 1.987c-0.185 0.124-0.257 0.36-0.174 0.566s0.3 0.325 0.519 0.285l4.669-0.858 0.104 0.561-4.668 0.858z"></path>
</svg>
