<!-- Generated by IcoMoon.io -->
<svg version="1.1" xmlns="http://www.w3.org/2000/svg" width="32" height="32" viewBox="0 0 32 32">
<title>family</title>
<path fill="#fff" d="M9.869 11.619c-0.201-0.163-0.496-0.132-0.659 0.069-0.189 0.233-0.44 0.362-0.707 0.362s-0.518-0.129-0.707-0.362c-0.163-0.201-0.458-0.232-0.659-0.069s-0.232 0.458-0.069 0.659c0.365 0.451 0.889 0.709 1.435 0.709s1.070-0.258 1.435-0.709c0.163-0.201 0.132-0.496-0.069-0.659z"></path>
<path fill="#fff" d="M6.36 8.837c-0.259 0-0.469 0.21-0.469 0.469v0.536c0 0.259 0.21 0.469 0.469 0.469s0.469-0.21 0.469-0.469v-0.536c0-0.259-0.21-0.469-0.469-0.469z"></path>
<path fill="#fff" d="M10.645 8.837c-0.259 0-0.469 0.21-0.469 0.469v0.536c0 0.259 0.21 0.469 0.469 0.469s0.469-0.21 0.469-0.469v-0.536c0-0.259-0.21-0.469-0.469-0.469z"></path>
<path fill="#fff" d="M25.4 14.297c-0.201-0.163-0.496-0.132-0.659 0.069-0.189 0.233-0.441 0.362-0.707 0.362s-0.518-0.129-0.707-0.362c-0.163-0.201-0.458-0.232-0.659-0.069s-0.232 0.458-0.069 0.659c0.365 0.451 0.889 0.709 1.435 0.709s1.070-0.258 1.435-0.709c0.163-0.201 0.132-0.496-0.069-0.659z"></path>
<path fill="#fff" d="M21.891 11.514c-0.259 0-0.469 0.21-0.469 0.469v0.536c0 0.259 0.21 0.469 0.469 0.469s0.469-0.21 0.469-0.469v-0.536c0-0.259-0.21-0.469-0.469-0.469z"></path>
<path fill="#fff" d="M26.176 11.514c-0.259 0-0.469 0.21-0.469 0.469v0.536c0 0.259 0.21 0.469 0.469 0.469s0.469-0.21 0.469-0.469v-0.536c0-0.259-0.21-0.469-0.469-0.469z"></path>
<path fill="#fff" d="M30.696 20.784l-3.672-1.469c-0.020-0.008-0.038-0.018-0.057-0.028 2.536-0.577 3.738-1.542 3.791-1.586 0.127-0.104 0.19-0.267 0.167-0.429-0.005-0.037-0.531-3.758-0.531-7.432 0-3.507-2.853-6.36-6.36-6.36s-6.36 2.853-6.36 6.36c0 0.961-0.044 2.136-0.115 3.249l-1.023 0.512-3.004-1.502c-0.009-0.004-0.018-0.007-0.027-0.011 0.143-0.416 0.236-0.856 0.271-1.311 0.628-0.194 1.086-0.78 1.086-1.472 0-0.466-0.208-0.883-0.536-1.166v-3.119c0-0.862-0.435-1.668-1.149-2.152-0.242-0.899-1.049-1.53-1.997-1.53h-4.285c-2.326 0-4.218 1.892-4.218 4.218v2.583c-0.328 0.283-0.536 0.7-0.536 1.166 0 0.691 0.458 1.278 1.086 1.472 0.118 1.574 0.929 2.956 2.127 3.846v1.296l-3.877 1.163c-0.885 0.265-1.479 1.064-1.479 1.988v5.231c0 0.259 0.21 0.469 0.469 0.469h0.067v5.422c0 0.259 0.21 0.469 0.469 0.469s0.469-0.21 0.469-0.469v-5.422h1.74v5.422c0 0.259 0.21 0.469 0.469 0.469s0.469-0.21 0.469-0.469v-8.083c0-0.411-0.121-0.809-0.349-1.151l-0.801-1.202c-0.144-0.215-0.435-0.274-0.65-0.13s-0.274 0.435-0.13 0.65l0.801 1.202c0.125 0.188 0.191 0.406 0.191 0.631v1.723h-2.276v-4.763c0-0.506 0.326-0.944 0.811-1.090l1.609-0.483c0.56 2.346 2.689 4.059 5.145 4.059 0.882 0 1.739-0.218 2.506-0.632 0.28 0.383 0.733 0.632 1.242 0.632h0.067v0.067c0 1.571 0.864 2.944 2.142 3.67v0.765c0 0.029-0.018 0.054-0.046 0.063l-1.749 0.583c-0.849 0.283-1.419 1.074-1.419 1.969v1.52c0 0.259 0.21 0.469 0.469 0.469s0.469-0.21 0.469-0.469v-1.52c0-0.491 0.313-0.924 0.778-1.079l0.514-0.171c0.68 1.015 1.824 1.633 3.059 1.633 1.236 0 2.379-0.618 3.059-1.633l0.514 0.171c0.465 0.155 0.778 0.589 0.778 1.079v1.52c0 0.259 0.21 0.469 0.469 0.469s0.469-0.21 0.469-0.469v-1.52c0-0.895-0.57-1.686-1.419-1.969l-1.749-0.583c-0.027-0.009-0.046-0.035-0.046-0.063v-0.765c0.957-0.543 1.681-1.449 1.985-2.53 0.886 0.927 2.123 1.472 3.438 1.472 2.076 0 3.897-1.342 4.524-3.296l1.789 0.716c0.435 0.174 0.715 0.589 0.715 1.056v2.192h-1.74v-0.602c0-0.259-0.21-0.469-0.469-0.469s-0.469 0.21-0.469 0.469v5.891c0 0.259 0.21 0.469 0.469 0.469s0.469-0.21 0.469-0.469v-4.351h1.205v4.351c0 0.259 0.21 0.469 0.469 0.469s0.469-0.21 0.469-0.469v-4.351h0.067c0.124 0 0.244-0.049 0.331-0.137s0.137-0.207 0.137-0.331v-2.661c0-0.854-0.512-1.61-1.304-1.927zM18.611 9.841c0-2.99 2.433-5.422 5.422-5.422s5.422 2.433 5.422 5.422c0 3.148 0.379 6.33 0.502 7.28-0.42 0.275-1.496 0.88-3.314 1.278v-0.746c0.249-0.141 0.487-0.302 0.712-0.483 0.922-0.746 1.574-1.79 1.835-2.94 0.087-0.383 0.131-0.779 0.131-1.175 0-2.649-1.916-3.030-3.769-3.398-1.179-0.234-2.398-0.476-3.369-1.253-0.141-0.113-0.333-0.134-0.496-0.056s-0.266 0.242-0.266 0.422c0 0.012-0.020 1.246-1.787 1.688-0.251 0.063-0.404 0.317-0.341 0.569s0.317 0.404 0.568 0.341c1.479-0.37 2.082-1.199 2.328-1.822 1.017 0.602 2.155 0.828 3.18 1.032 1.981 0.393 3.014 0.682 3.014 2.478 0 0.327-0.036 0.652-0.108 0.967-0.215 0.946-0.751 1.805-1.51 2.419-0.781 0.631-1.726 0.965-2.733 0.965-0.918 0-1.791-0.282-2.532-0.813-0.272-0.741-0.708-1.419-1.283-1.978v-2.095c0-0.162-0.084-0.313-0.222-0.399s-0.311-0.093-0.456-0.021l-1.012 0.506c0.055-0.976 0.084-1.904 0.084-2.765zM19.28 13.277v1.696l-1.697-0.848 1.697-0.848zM13.791 13.277l1.696 0.848-1.696 0.848v-1.696zM11.247 18.41v0.445c-0.336 0.29-0.536 0.714-0.536 1.161-0.668 0.394-1.426 0.602-2.209 0.602-2.039 0-3.803-1.435-4.244-3.392l1.158-0.347c0.286 1.443 1.561 2.535 3.086 2.535 1.211 0 2.264-0.689 2.79-1.695-0.030 0.228-0.046 0.458-0.046 0.69zM6.293 16.267v-1.086c0.673 0.311 1.421 0.484 2.209 0.484s1.536-0.174 2.209-0.484v1.086c0 1.218-0.991 2.209-2.209 2.209-1.216 0-2.206-0.988-2.209-2.203 0-0.002-0-0.005-0-0.007zM8.502 14.728c-2.399 0-4.351-1.952-4.351-4.351 0-0.259-0.21-0.469-0.469-0.469-0.332 0-0.602-0.27-0.602-0.602s0.27-0.602 0.602-0.602h1.071c0.202 0 0.381-0.129 0.445-0.32l0.43-1.291c1.077-0.024 4.417-0.176 6.297-1.116 0.232-0.116 0.325-0.397 0.21-0.629s-0.397-0.325-0.629-0.21c-2.018 1.009-6.175 1.022-6.217 1.022-0.202 0-0.381 0.129-0.445 0.321l-0.429 1.286h-0.733c-0.022 0-0.045 0.001-0.067 0.002v-2.211c0-1.809 1.471-3.28 3.28-3.28h4.285c0.56 0 1.030 0.403 1.118 0.959 0.022 0.141 0.108 0.264 0.233 0.335 0.529 0.299 0.858 0.854 0.858 1.451v2.746c-0.022-0.001-0.044-0.002-0.067-0.002h-0.536c-0.259 0-0.469 0.21-0.469 0.469s0.21 0.469 0.469 0.469h0.536c0.332 0 0.602 0.27 0.602 0.602s-0.27 0.602-0.602 0.602c-0.259 0-0.469 0.21-0.469 0.469 0 2.399-1.952 4.351-4.351 4.351zM11.649 16.268v-1.644c0.466-0.346 0.874-0.767 1.205-1.245v1.236c-0.525 0.51-0.934 1.118-1.208 1.784 0.002-0.043 0.003-0.087 0.003-0.13zM18.659 27.11c-0.516 0.63-1.291 1.007-2.124 1.007s-1.607-0.377-2.123-1.007l0.299-0.1c0.411-0.137 0.687-0.52 0.687-0.953v-0.374c0.362 0.102 0.744 0.157 1.138 0.157s0.776-0.056 1.138-0.157v0.374c-0 0.433 0.276 0.816 0.687 0.953l0.299 0.1zM20.285 20.619c-0.259 0-0.469 0.21-0.469 0.469v0.466c0 0.004-0 0.008 0 0.012v0.057c-0 1.809-1.472 3.28-3.28 3.28s-3.28-1.471-3.28-3.28v-0.536c0-0.259-0.21-0.469-0.469-0.469h-0.536c-0.332 0-0.602-0.27-0.602-0.602 0-0.214 0.113-0.407 0.303-0.517 0.042-0.025 0.079-0.056 0.111-0.091 1.159-0.034 4.915-0.252 7.384-1.662 0.225-0.128 0.303-0.415 0.174-0.64s-0.415-0.303-0.64-0.174c-2.163 1.236-5.561 1.483-6.797 1.533v-0.055c0-0.872 0.264-1.716 0.742-2.428 0.037 0.059 0.088 0.111 0.149 0.149 0.075 0.047 0.161 0.070 0.246 0.070 0.072 0 0.143-0.016 0.21-0.049l3.004-1.502 3.004 1.502c0.066 0.033 0.138 0.049 0.21 0.049 0.086 0 0.171-0.023 0.246-0.070 0.062-0.038 0.112-0.090 0.149-0.149 0.478 0.712 0.742 1.556 0.742 2.428v0.684c0 0.167 0.089 0.321 0.233 0.405 0.189 0.11 0.303 0.304 0.303 0.517 0 0.332-0.27 0.602-0.602 0.602h-0.536zM24.034 23.297c-1.298 0-2.502-0.661-3.203-1.741 0.844-0.006 1.529-0.694 1.529-1.54 0-0.448-0.2-0.872-0.536-1.162v-0.445c0-0.189-0.010-0.376-0.030-0.562 0.695 0.326 1.454 0.495 2.239 0.495 0.572 0 1.137-0.095 1.674-0.274v0.686c0 0.633 0.38 1.195 0.968 1.43l1.011 0.404c-0.484 1.602-1.964 2.707-3.652 2.707z"></path>
<path fill="#fff" d="M17.902 22.33c-0.201-0.163-0.496-0.132-0.659 0.069-0.189 0.233-0.441 0.362-0.707 0.362s-0.518-0.129-0.707-0.362c-0.163-0.201-0.458-0.232-0.659-0.069s-0.232 0.458-0.069 0.659c0.366 0.451 0.889 0.709 1.435 0.709s1.070-0.258 1.435-0.709c0.163-0.201 0.132-0.496-0.069-0.659z"></path>
<path fill="#fff" d="M15.406 20.554c0 0.259-0.21 0.469-0.469 0.469s-0.469-0.21-0.469-0.469c0-0.259 0.21-0.469 0.469-0.469s0.469 0.21 0.469 0.469z"></path>
<path fill="#fff" d="M18.594 20.554c0 0.259-0.21 0.469-0.469 0.469s-0.469-0.21-0.469-0.469c0-0.259 0.21-0.469 0.469-0.469s0.469 0.21 0.469 0.469z"></path>
</svg>
