<!-- Generated by IcoMoon.io -->
<svg version="1.1" xmlns="http://www.w3.org/2000/svg" width="32" height="32" viewBox="0 0 32 32">
<title>fruit</title>
<path fill="#fff" d="M20.799 6.911l1.067-0.006 0.006 1.067-1.067 0.006-0.006-1.067z"></path>
<path fill="#fff" d="M31.467 17.025h-7.572l0.64-9.564c0.009-0.148-0.043-0.293-0.143-0.401-0.104-0.103-0.244-0.162-0.39-0.167l-1.067 0.006 0.005 1.067h0.494l-0.127 1.908-1.546 0.858c-1.61 0.889-3.544 0.974-5.226 0.23v-2.963l3.202-0.017-0.005-1.067-3.195 0.017v-2.412l5.619-3.573-0.573-0.903-5.866 3.733c-0.154 0.098-0.247 0.268-0.247 0.45v2.71l-7.463 0.038c-0.295 0.002-0.532 0.242-0.53 0.536 0 0.011 0 0.022 0.001 0.033l0.594 8.9c-0.311 0.566-0.562 1.164-0.747 1.784-0.936-1.674-2.703-2.712-4.621-2.714-0.295 0-0.533 0.239-0.533 0.533-0.001 1.035 0.303 2.047 0.875 2.91-0.231 0.114-0.446 0.257-0.64 0.427l-0.155 0.137c-1.881 1.653-2.668 4.226-2.032 6.648l0.326 1.259c0.409 1.581 1.387 2.956 2.746 3.861 1.172 0.787 2.688 0.846 3.918 0.152l-0.030-0.053c0.998 0.295 2.028 0.469 3.068 0.518 0.107 0.005 0.213 0.005 0.324 0.007v0.044h7.032c7.945 0.007 14.391-6.428 14.398-14.373 0-0.009 0-0.017 0-0.026 0-0.294-0.239-0.533-0.533-0.533zM23.691 18.382v-0.291h5.311c-0.205 4.323-2.833 8.16-6.79 9.915-0.987 0.436-2.032 0.729-3.103 0.87 0.8-0.697 1.506-1.495 2.101-2.374 1.622-2.397 2.486-5.226 2.481-8.12zM15.469 8.003v2.578c-1.749-0.485-3.619-0.266-5.208 0.61l-1.42 0.789-0.262-3.941 6.89-0.035zM9.679 15.928l0.065-0.084-0.681-0.525-0.145-2.16 1.857-1.035c1.625-0.898 3.578-0.977 5.27-0.213 2 0.905 4.309 0.812 6.229-0.251l0.942-0.523-0.239 3.586c-0.119-0.092-0.249-0.168-0.387-0.227l-0.797-0.332c-0.425-0.179-0.909-0.153-1.313 0.069-0.414 0.227-0.702 0.631-0.781 1.097-0.565 3.276-2.272 6.246-4.818 8.384-0.188-1.621-0.969-3.115-2.193-4.194l-0.155-0.137c-1.076-0.958-2.693-0.981-3.796-0.053l-0.671 0.56c0.168-1.442 0.725-2.812 1.613-3.961zM6.898 20.241c-1.883-0.259-3.363-1.74-3.623-3.622 1.882 0.26 3.362 1.74 3.623 3.622zM3.881 30.401c-1.141-0.76-1.962-1.914-2.305-3.241l-0.326-1.259c-0.534-2.034 0.128-4.196 1.709-5.583v0l0.155-0.137c0.189-0.162 0.409-0.283 0.647-0.358 0.989 0.975 2.322 1.521 3.71 1.52 0.034-0.003 0.068-0.010 0.1-0.020 0.303-0.019 0.593-0.134 0.827-0.327l1.021-0.853c0.7-0.588 1.726-0.574 2.408 0.035l0.155 0.137c1.197 1.054 1.882 2.573 1.879 4.168-2.075 1.455-4.503 2.324-7.031 2.514l-2.362 0.178c-0.279 0.021-0.494 0.254-0.493 0.533v1.943c0.001 0.19 0.102 0.365 0.267 0.46l0.074 0.044c0.436 0.253 0.887 0.481 1.35 0.682-0.628 0.070-1.26-0.084-1.785-0.435zM10.296 30.84l-0.001 0.001c-1.843-0.088-3.641-0.601-5.253-1.5v-1.14l1.866-0.141c6.943-0.52 12.645-5.689 13.841-12.548 0.024-0.146 0.113-0.273 0.243-0.344 0.12-0.067 0.264-0.074 0.39-0.021l0.797 0.333c0.268 0.111 0.443 0.373 0.442 0.663v2.24c0.005 2.681-0.796 5.302-2.298 7.523-2.243 3.293-6.050 5.166-10.028 4.933zM17.602 30.89h-1.7c0.589-0.254 1.157-0.553 1.7-0.895v0.050c1.737 0.003 3.454-0.359 5.041-1.063 4.342-1.925 7.219-6.144 7.425-10.889h0.855c-0.279 7.153-6.163 12.806-13.321 12.798z"></path>
<path fill="#fff" d="M24.534 19.158h1.067v1.067h-1.067v-1.067z"></path>
<path fill="#fff" d="M22.934 24.491h1.067v1.067h-1.067v-1.067z"></path>
<path fill="#fff" d="M24.534 22.358h1.067v1.067h-1.067v-1.067z"></path>
</svg>
